<svg xmlns="http://www.w3.org/2000/svg" xmlns:xlink="http://www.w3.org/1999/xlink" width="161pt" height="232" viewBox="0 0 161 174"><g id="graph0" class="graph" transform="scale(1 1) rotate(0) translate(4 170)"><title>CLGEMMMatrixMultiplyKernel</title><polygon fill="#fff" stroke="none" points="-4 4 -4 -170 157 -170 157 4 -4 4"/><g id="node1" class="node"><title>Node1</title><polygon fill="#bfbfbf" stroke="#000" points="0 -.5 0 -19.5 153 -19.5 153 -.5 0 -.5"/><text x="76.5" y="-7.5" font-family="Helvetica,sans-Serif" font-size="10" text-anchor="middle">CLGEMMMatrixMultiplyKernel</text></g><g id="node2" class="node"><title>Node2</title><g id="a_node2"><a target="_top" xlink:href="classarm__compute_1_1_i_c_l_kernel.xhtml" xlink:title="Common interface for all the OpenCL kernels."><polygon fill="#fff" stroke="#000" points="2.5 -89.5 2.5 -108.5 62.5 -108.5 62.5 -89.5 2.5 -89.5"/><text x="32.5" y="-96.5" font-family="Helvetica,sans-Serif" font-size="10" text-anchor="middle">ICLKernel</text></a></g></g><g id="edge1" class="edge"><title>Node2-&gt;Node1</title><path fill="none" stroke="#191970" d="M41.4873,-80.2297C50.8213,-61.7739 65.0336,-33.6721 72.138,-19.6249"/><polygon fill="#191970" stroke="#191970" points="38.27 -78.837 36.88 -89.34 44.516 -81.996 38.27 -78.837"/></g><g id="node3" class="node"><title>Node3</title><g id="a_node3"><a target="_top" xlink:href="classarm__compute_1_1_i_kernel.xhtml" xlink:title="Common information for all the kernels."><polygon fill="#fff" stroke="#000" points="8.5 -146.5 8.5 -165.5 56.5 -165.5 56.5 -146.5 8.5 -146.5"/><text x="32.5" y="-153.5" font-family="Helvetica,sans-Serif" font-size="10" text-anchor="middle">IKernel</text></a></g></g><g id="edge2" class="edge"><title>Node3-&gt;Node2</title><path fill="none" stroke="#191970" d="M32.5,-136.117C32.5,-126.817 32.5,-116.056 32.5,-108.715"/><polygon fill="#191970" stroke="#191970" points="29 -136.406 32.5 -146.406 36 -136.406 29 -136.406"/></g><g id="node4" class="node"><title>Node4</title><g id="a_node4"><a target="_top" xlink:href="classarm__compute_1_1_i_c_l_tensor.xhtml" xlink:title="Interface for OpenCL tensor."><polygon fill="#fff" stroke="#000" points="80.5 -89.5 80.5 -108.5 140.5 -108.5 140.5 -89.5 80.5 -89.5"/><text x="110.5" y="-96.5" font-family="Helvetica,sans-Serif" font-size="10" text-anchor="middle">ICLTensor</text></a></g></g><g id="edge3" class="edge"><title>Node4-&gt;Node1</title><path fill="none" stroke="#9a32cd" stroke-dasharray="5 2" d="M103.455,-79.9727C96.2411,-61.514 85.3349,-33.6071 79.8707,-19.6249"/><polygon fill="#9a32cd" stroke="#9a32cd" points="100.216 -81.3 107.116 -89.34 106.736 -78.752 100.216 -81.3"/><text x="119.5" y="-63" font-family="Helvetica,sans-Serif" font-size="10" text-anchor="middle">_output</text><text x="119.5" y="-52" font-family="Helvetica,sans-Serif" font-size="10" text-anchor="middle">_input0</text><text x="119.5" y="-41" font-family="Helvetica,sans-Serif" font-size="10" text-anchor="middle">_input1</text></g><g id="node5" class="node"><title>Node5</title><g id="a_node5"><a target="_top" xlink:href="classarm__compute_1_1_i_tensor.xhtml" xlink:title="Interface for NEON tensor."><polygon fill="#fff" stroke="#000" points="85.5 -146.5 85.5 -165.5 135.5 -165.5 135.5 -146.5 85.5 -146.5"/><text x="110.5" y="-153.5" font-family="Helvetica,sans-Serif" font-size="10" text-anchor="middle">ITensor</text></a></g></g><g id="edge4" class="edge"><title>Node5-&gt;Node4</title><path fill="none" stroke="#191970" d="M110.5,-136.117C110.5,-126.817 110.5,-116.056 110.5,-108.715"/><polygon fill="#191970" stroke="#191970" points="107 -136.406 110.5 -146.406 114 -136.406 107 -136.406"/></g></g></svg>