<svg xmlns="http://www.w3.org/2000/svg" xmlns:xlink="http://www.w3.org/1999/xlink" width="148pt" height="106pt" viewBox="0 0 148 106"><g id="graph0" class="graph" transform="scale(1 1) rotate(0) translate(4 102)"><title>StrongType&lt; T, Tag, Attributes &gt;</title><polygon fill="#fff" stroke="none" points="-4 4 -4 -102 144 -102 144 4 -4 4"/><g id="node1" class="node"><title>Node1</title><polygon fill="#bfbfbf" stroke="#000" points="14.5 -.5 14.5 -30.5 125.5 -30.5 125.5 -.5 14.5 -.5"/><text x="22.5" y="-18.5" font-family="Helvetica,sans-Serif" font-size="10" text-anchor="start">StrongType&lt; T, Tag,</text><text x="70" y="-7.5" font-family="Helvetica,sans-Serif" font-size="10" text-anchor="middle">Attributes &gt;</text></g><g id="node2" class="node"><title>Node2</title><polygon fill="#fff" stroke="#bfbfbf" points="0 -67.5 0 -97.5 140 -97.5 140 -67.5 0 -67.5"/><text x="8" y="-85.5" font-family="Helvetica,sans-Serif" font-size="10" text-anchor="start">Attributes&lt; StrongType</text><text x="70" y="-74.5" font-family="Helvetica,sans-Serif" font-size="10" text-anchor="middle">&lt; T, Tag, Attributes... &gt; &gt;</text></g><g id="edge1" class="edge"><title>Node2-&gt;Node1</title><path fill="none" stroke="#191970" d="M70,-57.1081C70,-48.1539 70,-38.3227 70,-30.5765"/><polygon fill="#191970" stroke="#191970" points="66.5 -57.396 70 -67.396 73.5 -57.396 66.5 -57.396"/></g></g></svg>