<svg xmlns="http://www.w3.org/2000/svg" xmlns:xlink="http://www.w3.org/1999/xlink" width="1135pt" height="416pt" viewBox="0 0 1135 416.24"><g id="graph0" class="graph" transform="scale(1 1) rotate(0) translate(4 412.24)"><title>CommonGraphOptions</title><polygon fill="#fff" stroke="none" points="-4 4 -4 -412.24 1131 -412.24 1131 4 -4 4"/><g id="node1" class="node"><title>Node1</title><polygon fill="#bfbfbf" stroke="#000" points="1000 -188.74 1000 -207.74 1127 -207.74 1127 -188.74 1000 -188.74"/><text x="1063.5" y="-195.74" font-family="Helvetica,sans-Serif" font-size="10" text-anchor="middle">CommonGraphOptions</text></g><g id="node2" class="node"><title>Node2</title><g id="a_node2"><a target="_top" xlink:href="classarm__compute_1_1utils_1_1_toggle_option.xhtml" xlink:title="Implementation of an option that can be either true or false."><polygon fill="#fff" stroke="#000" points="774.5 -313.74 774.5 -332.74 852.5 -332.74 852.5 -313.74 774.5 -313.74"/><text x="813.5" y="-320.74" font-family="Helvetica,sans-Serif" font-size="10" text-anchor="middle">ToggleOption</text></a></g></g><g id="edge1" class="edge"><title>Node2-&gt;Node1</title><path fill="none" stroke="#9a32cd" stroke-dasharray="5 2" d="M860.526,-310.672C870.724,-307.373 881.36,-303.523 891,-299.24 952.892,-271.74 1020.54,-227.145 1048.85,-207.751"/><polygon fill="#9a32cd" stroke="#9a32cd" points="859.436 -307.345 850.93 -313.661 861.518 -314.028 859.436 -307.345"/><text x="945.5" y="-315.24" font-family="Helvetica,sans-Serif" font-size="10" text-anchor="middle">help</text><text x="945.5" y="-304.24" font-family="Helvetica,sans-Serif" font-size="10" text-anchor="middle">enable_tuner</text><text x="945.5" y="-293.24" font-family="Helvetica,sans-Serif" font-size="10" text-anchor="middle">fast_math_hint</text></g><g id="node3" class="node"><title>Node3</title><g id="a_node3"><a target="_top" xlink:href="classarm__compute_1_1utils_1_1_simple_option.xhtml" xlink:title="SimpleOption\&lt; bool \&gt;"><polygon fill="#fff" stroke="#000" points="403 -313.74 403 -332.74 527 -332.74 527 -313.74 403 -313.74"/><text x="465" y="-320.74" font-family="Helvetica,sans-Serif" font-size="10" text-anchor="middle">SimpleOption&lt; bool &gt;</text></a></g></g><g id="edge2" class="edge"><title>Node3-&gt;Node2</title><path fill="none" stroke="#191970" d="M537.488,-323.24C609.409,-323.24 717.576,-323.24 774.448,-323.24"/><polygon fill="#191970" stroke="#191970" points="537.15 -319.74 527.15 -323.24 537.15 -326.74 537.15 -319.74"/></g><g id="node4" class="node"><title>Node4</title><g id="a_node4"><a target="_top" xlink:href="classarm__compute_1_1utils_1_1_option.xhtml" xlink:title="Abstract base class for a command line option."><polygon fill="#fff" stroke="#000" points="0 -167.74 0 -186.74 48 -186.74 48 -167.74 0 -167.74"/><text x="24" y="-174.74" font-family="Helvetica,sans-Serif" font-size="10" text-anchor="middle">Option</text></a></g></g><g id="edge3" class="edge"><title>Node4-&gt;Node3</title><path fill="none" stroke="#191970" d="M36.4822,-195.691C47.3635,-211.987 64.9876,-235.533 85,-251.24 134.108,-289.782 151.43,-296.13 212,-311.24 275.746,-327.142 351.307,-328.528 402.952,-326.95"/><polygon fill="#191970" stroke="#191970" points="39.26 -193.541 30.887 -187.049 33.384 -197.345 39.26 -193.541"/></g><g id="node5" class="node"><title>Node5</title><g id="a_node5"><a target="_top" xlink:href="classarm__compute_1_1utils_1_1_simple_option.xhtml" xlink:title="Implementation of an option that accepts a single value."><polygon fill="#fff" stroke="#000" points="85 -190.74 85 -209.74 194 -209.74 194 -190.74 85 -190.74"/><text x="139.5" y="-197.74" font-family="Helvetica,sans-Serif" font-size="10" text-anchor="middle">SimpleOption&lt; T &gt;</text></a></g></g><g id="edge5" class="edge"><title>Node4-&gt;Node5</title><path fill="none" stroke="#191970" d="M58.1436,-183.956C68.5402,-186.063 80.2233,-188.43 91.3928,-190.694"/><polygon fill="#191970" stroke="#191970" points="58.738 -180.505 48.242 -181.949 57.348 -187.366 58.738 -180.505"/></g><g id="node6" class="node"><title>Node6</title><g id="a_node6"><a target="_top" xlink:href="classarm__compute_1_1utils_1_1_simple_option.xhtml" xlink:title="SimpleOption\&lt; int \&gt;"><polygon fill="#fff" stroke="#000" points="407 -359.74 407 -378.74 523 -378.74 523 -359.74 407 -359.74"/><text x="465" y="-366.74" font-family="Helvetica,sans-Serif" font-size="10" text-anchor="middle">SimpleOption&lt; int &gt;</text></a></g></g><g id="edge7" class="edge"><title>Node4-&gt;Node6</title><path fill="none" stroke="#191970" d="M31.3325,-196.727C40.1607,-221.509 58.1644,-264.523 85,-293.24 130.069,-341.467 148.427,-352.473 212,-370.24 276.889,-388.374 354.902,-384.329 406.767,-378.226"/><polygon fill="#191970" stroke="#191970" points="34.564 -195.358 28.017 -187.028 27.94 -197.623 34.564 -195.358"/></g><g id="node8" class="node"><title>Node8</title><g id="a_node8"><a target="_top" xlink:href="classarm__compute_1_1utils_1_1_simple_option.xhtml" xlink:title="SimpleOption\&lt; arm_compute\l::graph::Target \&gt;"><polygon fill="#fff" stroke="#000" points="385 -176.24 385 -206.24 545 -206.24 545 -176.24 385 -176.24"/><text x="393" y="-194.24" font-family="Helvetica,sans-Serif" font-size="10" text-anchor="start">SimpleOption&lt; arm_compute</text><text x="465" y="-183.24" font-family="Helvetica,sans-Serif" font-size="10" text-anchor="middle">::graph::Target &gt;</text></a></g></g><g id="edge11" class="edge"><title>Node4-&gt;Node8</title><path fill="none" stroke="#191970" d="M58.5654,-177.902C92.6697,-178.606 147.015,-179.814 194,-181.24 258.233,-183.189 331.043,-185.916 384.853,-188.03"/><polygon fill="#191970" stroke="#191970" points="58.308 -174.396 48.239 -177.691 58.165 -181.395 58.308 -174.396"/></g><g id="node10" class="node"><title>Node10</title><g id="a_node10"><a target="_top" xlink:href="classarm__compute_1_1utils_1_1_simple_option.xhtml" xlink:title="Implementation of an option that accepts a single value."><polygon fill="#fff" stroke="#000" points="85 -55.74 85 -74.74 194 -74.74 194 -55.74 85 -55.74"/><text x="139.5" y="-62.74" font-family="Helvetica,sans-Serif" font-size="10" text-anchor="middle">SimpleOption&lt; T &gt;</text></a></g></g><g id="edge15" class="edge"><title>Node4-&gt;Node10</title><path fill="none" stroke="#191970" d="M29.274,-157.701C34.6026,-137.81 45.6032,-107.392 66,-89.2396 73.1311,-82.8933 81.9858,-78.2183 91.0306,-74.7766"/><polygon fill="#191970" stroke="#191970" points="25.848 -156.978 26.874 -167.523 32.648 -158.64 25.848 -156.978"/></g><g id="node12" class="node"><title>Node12</title><g id="a_node12"><a target="_top" xlink:href="classarm__compute_1_1utils_1_1_simple_option.xhtml" xlink:title="SimpleOption\&lt; arm_compute\l::DataLayout \&gt;"><polygon fill="#fff" stroke="#000" points="385 -107.24 385 -137.24 545 -137.24 545 -107.24 385 -107.24"/><text x="393" y="-125.24" font-family="Helvetica,sans-Serif" font-size="10" text-anchor="start">SimpleOption&lt; arm_compute</text><text x="465" y="-114.24" font-family="Helvetica,sans-Serif" font-size="10" text-anchor="middle">::DataLayout &gt;</text></a></g></g><g id="edge18" class="edge"><title>Node4-&gt;Node12</title><path fill="none" stroke="#191970" d="M57.9436,-169.159C95.1241,-160.364 157.531,-146.578 212,-139.24 269.58,-131.482 335.064,-127.201 384.844,-124.875"/><polygon fill="#191970" stroke="#191970" points="57.066 -165.77 48.153 -171.498 58.693 -172.578 57.066 -165.77"/></g><g id="node14" class="node"><title>Node14</title><g id="a_node14"><a target="_top" xlink:href="classarm__compute_1_1utils_1_1_simple_option.xhtml" xlink:title="SimpleOption\&lt; arm_compute\l::DataType \&gt;"><polygon fill="#fff" stroke="#000" points="385 -14.24 385 -44.24 545 -44.24 545 -14.24 385 -14.24"/><text x="393" y="-32.24" font-family="Helvetica,sans-Serif" font-size="10" text-anchor="start">SimpleOption&lt; arm_compute</text><text x="465" y="-21.24" font-family="Helvetica,sans-Serif" font-size="10" text-anchor="middle">::DataType &gt;</text></a></g></g><g id="edge23" class="edge"><title>Node4-&gt;Node14</title><path fill="none" stroke="#191970" d="M27.5478,-157.323C32.5706,-127.307 46.8077,-71.3244 85,-46.2396 181.204,16.9471 322.668,1.79055 402.774,-14.1952"/><polygon fill="#191970" stroke="#191970" points="24.053 -157.031 26.043 -167.437 30.977 -158.061 24.053 -157.031"/></g><g id="node15" class="node"><title>Node15</title><g id="a_node15"><a target="_top" xlink:href="classarm__compute_1_1utils_1_1_simple_option.xhtml" xlink:title="SimpleOption\&lt; std::\lstring \&gt;"><polygon fill="#fff" stroke="#000" points="408.5 -225.24 408.5 -255.24 521.5 -255.24 521.5 -225.24 408.5 -225.24"/><text x="416.5" y="-243.24" font-family="Helvetica,sans-Serif" font-size="10" text-anchor="start">SimpleOption&lt; std::</text><text x="465" y="-232.24" font-family="Helvetica,sans-Serif" font-size="10" text-anchor="middle">string &gt;</text></a></g></g><g id="edge27" class="edge"><title>Node4-&gt;Node15</title><path fill="none" stroke="#191970" d="M44.0122,-193.309C55.2901,-202.11 70.2309,-212.554 85,-219.24 199.868,-271.236 241.078,-256.713 367,-250.24 380.441,-249.549 394.889,-248.322 408.421,-246.96"/><polygon fill="#191970" stroke="#191970" points="46.149 -190.536 36.165 -186.989 41.758 -195.988 46.149 -190.536"/></g><g id="edge4" class="edge"><title>Node5-&gt;Node3</title><path fill="none" stroke="orange" stroke-dasharray="5 2" d="M159.713,-216.303C173.524,-227.17 192.989,-241.147 212,-250.24 250.009,-268.418 364.686,-298.446 425.372,-313.704"/><polygon fill="orange" stroke="orange" points="161.883 -213.557 151.9 -210.01 157.493 -219.009 161.883 -213.557"/><text x="289.5" y="-301.24" font-family="Helvetica,sans-Serif" font-size="10" text-anchor="middle">&lt; bool &gt;</text></g><g id="edge8" class="edge"><title>Node5-&gt;Node6</title><path fill="none" stroke="orange" stroke-dasharray="5 2" d="M147.311,-219.619C157.343,-245.208 178.596,-289.76 212,-313.24 242.937,-334.985 342.586,-352.395 406.918,-361.737"/><polygon fill="orange" stroke="orange" points="150.471 -218.076 143.696 -209.93 143.913 -220.523 150.471 -218.076"/><text x="289.5" y="-358.24" font-family="Helvetica,sans-Serif" font-size="10" text-anchor="middle">&lt; int &gt;</text></g><g id="edge12" class="edge"><title>Node5-&gt;Node8</title><path fill="none" stroke="orange" stroke-dasharray="5 2" d="M204.376,-196.551C206.951,-196.439 209.5,-196.334 212,-196.24 269.829,-194.049 335.162,-192.787 384.813,-192.079"/><polygon fill="orange" stroke="orange" points="204.193 -193.056 194.367 -197.018 204.519 -200.048 204.193 -193.056"/><text x="231.5" y="-210.24" font-family="Helvetica,sans-Serif" font-size="10" text-anchor="start">&lt; arm_compute::graph</text><text x="289.5" y="-199.24" font-family="Helvetica,sans-Serif" font-size="10" text-anchor="middle">::Target &gt;</text></g><g id="edge19" class="edge"><title>Node5-&gt;Node12</title><path fill="none" stroke="orange" stroke-dasharray="5 2" d="M179.348,-187.669C189.894,-184.426 201.343,-181.058 212,-178.24 271.033,-162.625 338.611,-147.769 388.916,-137.286"/><polygon fill="orange" stroke="orange" points="178.075 -184.4 169.57 -190.719 180.158 -191.083 178.075 -184.4"/><text x="289.5" y="-181.24" font-family="Helvetica,sans-Serif" font-size="10" text-anchor="middle">&lt; arm_compute::DataLayout &gt;</text></g><g id="edge24" class="edge"><title>Node5-&gt;Node14</title><path fill="none" stroke="orange" stroke-dasharray="5 2" d="M154.406,-182.571C167.747,-166.592 189.186,-143.324 212,-128.24 273.167,-87.7972 353.364,-59.8815 406.684,-44.2434"/><polygon fill="orange" stroke="orange" points="151.469 -180.635 147.87 -190.6 156.897 -185.054 151.469 -180.635"/><text x="289.5" y="-131.24" font-family="Helvetica,sans-Serif" font-size="10" text-anchor="middle">&lt; arm_compute::DataType &gt;</text></g><g id="edge28" class="edge"><title>Node5-&gt;Node15</title><path fill="none" stroke="orange" stroke-dasharray="5 2" d="M183.581,-212.264C192.895,-214.532 202.73,-216.678 212,-218.24 278.909,-229.508 356.843,-235.188 408.124,-237.921"/><polygon fill="orange" stroke="orange" points="184.284 -208.831 173.731 -209.777 182.571 -215.619 184.284 -208.831"/><text x="289.5" y="-238.24" font-family="Helvetica,sans-Serif" font-size="10" text-anchor="middle">&lt; std::string &gt;</text></g><g id="edge6" class="edge"><title>Node6-&gt;Node1</title><path fill="none" stroke="#9a32cd" stroke-dasharray="5 2" d="M519.469,-380.586C619.62,-398.698 838.313,-423.057 982,-327.24 1027.02,-297.215 1051.56,-232.555 1059.55,-207.984"/><polygon fill="#9a32cd" stroke="#9a32cd" points="520.049 -377.134 509.577 -378.747 518.769 -384.016 520.049 -377.134"/><text x="813.5" y="-400.24" font-family="Helvetica,sans-Serif" font-size="10" text-anchor="middle">threads</text></g><g id="node7" class="node"><title>Node7</title><g id="a_node7"><a target="_top" xlink:href="classarm__compute_1_1utils_1_1_enum_option.xhtml" xlink:title="EnumOption\&lt; arm_compute\l::graph::Target \&gt;"><polygon fill="#fff" stroke="#000" points="736 -151.24 736 -181.24 891 -181.24 891 -151.24 736 -151.24"/><text x="744" y="-169.24" font-family="Helvetica,sans-Serif" font-size="10" text-anchor="start">EnumOption&lt; arm_compute</text><text x="813.5" y="-158.24" font-family="Helvetica,sans-Serif" font-size="10" text-anchor="middle">::graph::Target &gt;</text></a></g></g><g id="edge9" class="edge"><title>Node7-&gt;Node1</title><path fill="none" stroke="#9a32cd" stroke-dasharray="5 2" d="M901.216,-177.429C933.687,-181.619 969.92,-186.294 999.805,-190.15"/><polygon fill="#9a32cd" stroke="#9a32cd" points="901.636 -173.954 891.27 -176.145 900.74 -180.896 901.636 -173.954"/><text x="945.5" y="-190.24" font-family="Helvetica,sans-Serif" font-size="10" text-anchor="middle">target</text></g><g id="edge10" class="edge"><title>Node8-&gt;Node7</title><path fill="none" stroke="#191970" d="M555.371,-188.257C603.6,-186.237 664.125,-183.043 718,-178.24 723.848,-177.718 729.891,-177.111 735.963,-176.451"/><polygon fill="#191970" stroke="#191970" points="555.121 -184.764 545.273 -188.67 555.408 -191.758 555.121 -184.764"/></g><g id="node9" class="node"><title>Node9</title><g id="a_node9"><a target="_top" xlink:href="classarm__compute_1_1utils_1_1_enum_option.xhtml" xlink:title="Implementation of a simple option that accepts a value from a fixed set."><polygon fill="#fff" stroke="#000" points="413 -68.74 413 -87.74 517 -87.74 517 -68.74 413 -68.74"/><text x="465" y="-75.74" font-family="Helvetica,sans-Serif" font-size="10" text-anchor="middle">EnumOption&lt; T &gt;</text></a></g></g><g id="edge13" class="edge"><title>Node9-&gt;Node7</title><path fill="none" stroke="orange" stroke-dasharray="5 2" d="M527.195,-88.6648C533.449,-90.9739 539.512,-93.7945 545,-97.2396 555.7,-103.956 552.136,-112.792 563,-119.24 577.854,-128.055 668.059,-143.696 735.771,-154.499"/><polygon fill="orange" stroke="orange" points="527.857 -85.2 517.265 -85.441 525.696 -91.858 527.857 -85.2"/><text x="582.5" y="-166.24" font-family="Helvetica,sans-Serif" font-size="10" text-anchor="start">&lt; arm_compute::graph</text><text x="640.5" y="-155.24" font-family="Helvetica,sans-Serif" font-size="10" text-anchor="middle">::Target &gt;</text></g><g id="node11" class="node"><title>Node11</title><g id="a_node11"><a target="_top" xlink:href="classarm__compute_1_1utils_1_1_enum_option.xhtml" xlink:title="EnumOption\&lt; arm_compute\l::DataLayout \&gt;"><polygon fill="#fff" stroke="#000" points="736 -102.24 736 -132.24 891 -132.24 891 -102.24 736 -102.24"/><text x="744" y="-120.24" font-family="Helvetica,sans-Serif" font-size="10" text-anchor="start">EnumOption&lt; arm_compute</text><text x="813.5" y="-109.24" font-family="Helvetica,sans-Serif" font-size="10" text-anchor="middle">::DataLayout &gt;</text></a></g></g><g id="edge20" class="edge"><title>Node9-&gt;Node11</title><path fill="none" stroke="orange" stroke-dasharray="5 2" d="M527.426,-83.9903C578.491,-88.9119 653.044,-96.4231 718,-104.24 723.837,-104.942 729.872,-105.7 735.939,-106.484"/><polygon fill="orange" stroke="orange" points="527.506 -80.482 517.217 -83.011 526.837 -87.45 527.506 -80.482"/><text x="640.5" y="-107.24" font-family="Helvetica,sans-Serif" font-size="10" text-anchor="middle">&lt; arm_compute::DataLayout &gt;</text></g><g id="node13" class="node"><title>Node13</title><g id="a_node13"><a target="_top" xlink:href="classarm__compute_1_1utils_1_1_enum_option.xhtml" xlink:title="EnumOption\&lt; arm_compute\l::DataType \&gt;"><polygon fill="#fff" stroke="#000" points="736 -47.24 736 -77.24 891 -77.24 891 -47.24 736 -47.24"/><text x="744" y="-65.24" font-family="Helvetica,sans-Serif" font-size="10" text-anchor="start">EnumOption&lt; arm_compute</text><text x="813.5" y="-54.24" font-family="Helvetica,sans-Serif" font-size="10" text-anchor="middle">::DataType &gt;</text></a></g></g><g id="edge25" class="edge"><title>Node9-&gt;Node13</title><path fill="none" stroke="orange" stroke-dasharray="5 2" d="M527.382,-67.3313C539.167,-65.639 551.438,-64.1516 563,-63.2396 620.864,-58.6753 686.511,-58.6153 735.94,-59.5947"/><polygon fill="orange" stroke="orange" points="526.55 -63.917 517.18 -68.862 527.589 -70.839 526.55 -63.917"/><text x="640.5" y="-66.24" font-family="Helvetica,sans-Serif" font-size="10" text-anchor="middle">&lt; arm_compute::DataType &gt;</text></g><g id="edge14" class="edge"><title>Node10-&gt;Node9</title><path fill="none" stroke="#191970" d="M204.568,-67.8142C265.623,-70.2677 356.365,-73.9142 412.761,-76.1806"/><polygon fill="#191970" stroke="#191970" points="204.415 -64.305 194.283 -67.401 204.134 -71.3 204.415 -64.305"/></g><g id="edge16" class="edge"><title>Node11-&gt;Node1</title><path fill="none" stroke="#9a32cd" stroke-dasharray="5 2" d="M882.844,-134.994C913.42,-143.405 949.766,-154.052 982,-165.24 1002.26,-172.272 1024.81,-181.656 1040.88,-188.62"/><polygon fill="#9a32cd" stroke="#9a32cd" points="883.7 -131.599 873.131 -132.343 881.857 -138.353 883.7 -131.599"/><text x="945.5" y="-168.24" font-family="Helvetica,sans-Serif" font-size="10" text-anchor="middle">data_layout</text></g><g id="edge17" class="edge"><title>Node12-&gt;Node11</title><path fill="none" stroke="#191970" d="M555.314,-120.951C611.23,-120.144 682.527,-119.115 735.865,-118.345"/><polygon fill="#191970" stroke="#191970" points="555.008 -117.455 545.06 -121.099 555.109 -124.454 555.008 -117.455"/></g><g id="edge21" class="edge"><title>Node13-&gt;Node1</title><path fill="none" stroke="#9a32cd" stroke-dasharray="5 2" d="M875.212,-80.5396C908.099,-91.8128 948.698,-107.994 982,-128.24 1010.8,-145.749 1039.34,-173.743 1053.43,-188.463"/><polygon fill="#9a32cd" stroke="#9a32cd" points="876.307 -77.215 865.713 -77.346 874.076 -83.85 876.307 -77.215"/><text x="945.5" y="-131.24" font-family="Helvetica,sans-Serif" font-size="10" text-anchor="middle">data_type</text></g><g id="edge22" class="edge"><title>Node14-&gt;Node13</title><path fill="none" stroke="#191970" d="M555.314,-37.7457C611.23,-43.071 682.527,-49.8613 735.865,-54.9411"/><polygon fill="#191970" stroke="#191970" points="555.347 -34.233 545.06 -36.769 554.683 -41.202 555.347 -34.233"/></g><g id="edge26" class="edge"><title>Node15-&gt;Node1</title><path fill="none" stroke="#9a32cd" stroke-dasharray="5 2" d="M531.718,-235.612C647.451,-227.463 886.104,-210.66 999.72,-202.66"/><polygon fill="#9a32cd" stroke="#9a32cd" points="531.311 -232.132 521.582 -236.326 531.803 -239.115 531.311 -232.132"/><text x="813.5" y="-290.24" font-family="Helvetica,sans-Serif" font-size="10" text-anchor="middle">data_path</text><text x="813.5" y="-279.24" font-family="Helvetica,sans-Serif" font-size="10" text-anchor="middle">validation_range</text><text x="813.5" y="-268.24" font-family="Helvetica,sans-Serif" font-size="10" text-anchor="middle">validation_path</text><text x="813.5" y="-257.24" font-family="Helvetica,sans-Serif" font-size="10" text-anchor="middle">tuner_file</text><text x="813.5" y="-246.24" font-family="Helvetica,sans-Serif" font-size="10" text-anchor="middle">image</text><text x="813.5" y="-235.24" font-family="Helvetica,sans-Serif" font-size="10" text-anchor="middle">validation_file</text><text x="813.5" y="-224.24" font-family="Helvetica,sans-Serif" font-size="10" text-anchor="middle">labels</text></g></g></svg>