<svg xmlns="http://www.w3.org/2000/svg" xmlns:xlink="http://www.w3.org/1999/xlink" width="185pt" height="151pt" viewBox="0 0 185 151"><g id="graph0" class="graph" transform="scale(1 1) rotate(0) translate(4 147)"><title>NEGEMMLowpQuantizeDownInt32ToUint8ScaleByFixedPoint</title><polygon fill="#fff" stroke="none" points="-4 4 -4 -147 181 -147 181 4 -4 4"/><g id="node1" class="node"><title>Node1</title><polygon fill="#bfbfbf" stroke="#000" points="0 -.5 0 -30.5 177 -30.5 177 -.5 0 -.5"/><text x="8" y="-18.5" font-family="Helvetica,sans-Serif" font-size="10" text-anchor="start">NEGEMMLowpQuantizeDownInt32</text><text x="88.5" y="-7.5" font-family="Helvetica,sans-Serif" font-size="10" text-anchor="middle">ToUint8ScaleByFixedPoint</text></g><g id="node2" class="node"><title>Node2</title><g id="a_node2"><a target="_top" xlink:href="classarm__compute_1_1_i_n_e_simple_function.xhtml" xlink:title="Basic interface for functions which have a single NEON kernel."><polygon fill="#fff" stroke="#000" points="36 -67.5 36 -86.5 141 -86.5 141 -67.5 36 -67.5"/><text x="88.5" y="-74.5" font-family="Helvetica,sans-Serif" font-size="10" text-anchor="middle">INESimpleFunction</text></a></g></g><g id="edge1" class="edge"><title>Node2-&gt;Node1</title><path fill="none" stroke="#191970" d="M88.5,-57.2349C88.5,-48.5864 88.5,-38.4969 88.5,-30.523"/><polygon fill="#191970" stroke="#191970" points="85 -57.475 88.5 -67.475 92 -57.475 85 -57.475"/></g><g id="node3" class="node"><title>Node3</title><g id="a_node3"><a target="_top" xlink:href="classarm__compute_1_1_i_function.xhtml" xlink:title="Base class for all functions."><polygon fill="#fff" stroke="#000" points="59 -123.5 59 -142.5 118 -142.5 118 -123.5 59 -123.5"/><text x="88.5" y="-130.5" font-family="Helvetica,sans-Serif" font-size="10" text-anchor="middle">IFunction</text></a></g></g><g id="edge2" class="edge"><title>Node3-&gt;Node2</title><path fill="none" stroke="#191970" d="M88.5,-112.805C88.5,-103.91 88.5,-93.7798 88.5,-86.7511"/><polygon fill="#191970" stroke="#191970" points="85 -113.083 88.5 -123.083 92 -113.083 85 -113.083"/></g></g></svg>