<svg xmlns="http://www.w3.org/2000/svg" xmlns:xlink="http://www.w3.org/1999/xlink" width="161pt" height="223pt" viewBox="0 0 161.01 223"><g id="graph0" class="graph" transform="scale(1 1) rotate(0) translate(4 219)"><title>tests/validation/CPP</title><polygon fill="#fff" stroke="none" points="-4 4 -4 -219 157.011 -219 157.011 4 -4 4"/><g id="clust1" class="cluster"><title>clusterdir_e7c7b16542faa38cb4655ff1750d3604</title><g id="a_clust1"><a target="_top" xlink:href="dir_e7c7b16542faa38cb4655ff1750d3604.xhtml" xlink:title="validation"><polygon fill="#dde" stroke="#000" points="71 -136 71 -207 141 -207 141 -136 71 -136"/><text x="106" y="-195" font-family="Helvetica,sans-Serif" font-size="10" text-anchor="middle">validation</text></a></g></g><g id="node1" class="node"><title>dir_420d2db1b9c99f59825a3985434c3703</title><g id="a_node1"><a target="_top" xlink:href="dir_420d2db1b9c99f59825a3985434c3703.xhtml" xlink:title="CPP"><polygon fill="#eef" stroke="#000" points="133 -180 79 -180 79 -144 133 -144 133 -180"/><text x="106" y="-159.5" font-family="Helvetica,sans-Serif" font-size="10" text-anchor="middle">CPP</text></a></g></g><g id="node2" class="node"><title>dir_445738e6fed662d0b65e690e3f1e1de0</title><g id="a_node2"><a target="_top" xlink:href="dir_445738e6fed662d0b65e690e3f1e1de0.xhtml" xlink:title="NEON"><polygon fill="none" stroke="#000" points="54 -108 0 -108 0 -72 54 -72 54 -108"/><text x="27" y="-87.5" font-family="Helvetica,sans-Serif" font-size="10" text-anchor="middle">NEON</text></a></g></g><g id="edge3" class="edge"><title>dir_420d2db1b9c99f59825a3985434c3703-&gt;dir_445738e6fed662d0b65e690e3f1e1de0</title><path fill="none" stroke="#000" d="M86.4719,-143.697C76.6182,-134.965 64.5143,-124.24 53.8039,-114.75"/><polygon fill="#000" stroke="#000" points="56.109 -112.117 46.303 -108.104 51.467 -117.356 56.109 -112.117"/><g id="a_edge3-headlabel"><a target="_top" xlink:href="dir_000067_000063.xhtml" xlink:title="1"><text x="60.682" y="-109.875" font-family="Helvetica,sans-Serif" font-size="10" text-anchor="middle">1</text></a></g></g><g id="node3" class="node"><title>dir_9e71e2da941d3cafc4d98a9f6ae3de4f</title><g id="a_node3"><a target="_top" xlink:href="dir_9e71e2da941d3cafc4d98a9f6ae3de4f.xhtml" xlink:title="framework"><polygon fill="#fff" stroke="red" points="139.5 -108 72.5 -108 72.5 -72 139.5 -72 139.5 -108"/><text x="106" y="-87.5" font-family="Helvetica,sans-Serif" font-size="10" text-anchor="middle">framework</text></a></g></g><g id="edge4" class="edge"><title>dir_420d2db1b9c99f59825a3985434c3703-&gt;dir_9e71e2da941d3cafc4d98a9f6ae3de4f</title><path fill="none" stroke="#000" d="M106,-143.697C106,-135.983 106,-126.712 106,-118.112"/><polygon fill="#000" stroke="#000" points="109.5 -118.104 106 -108.104 102.5 -118.104 109.5 -118.104"/><g id="a_edge4-headlabel"><a target="_top" xlink:href="dir_000067_000021.xhtml" xlink:title="3"><text x="112.339" y="-119.199" font-family="Helvetica,sans-Serif" font-size="10" text-anchor="middle">3</text></a></g></g><g id="node4" class="node"><title>dir_214608ef36d61442cb2b0c1c4e9a7def</title><g id="a_node4"><a target="_top" xlink:href="dir_214608ef36d61442cb2b0c1c4e9a7def.xhtml" xlink:title="arm_compute"><polygon fill="#fff" stroke="red" points="148 -36 64 -36 64 0 148 0 148 -36"/><text x="106" y="-15.5" font-family="Helvetica,sans-Serif" font-size="10" text-anchor="middle">arm_compute</text></a></g></g><g id="edge5" class="edge"><title>dir_420d2db1b9c99f59825a3985434c3703-&gt;dir_214608ef36d61442cb2b0c1c4e9a7def</title><path fill="none" stroke="#000" d="M125.039,-143.837C134.176,-134.3 144.168,-121.624 149,-108 154.348,-92.9202 154.348,-87.0798 149,-72 145.338,-61.6754 138.713,-51.8956 131.743,-43.6136"/><polygon fill="#000" stroke="#000" points="134.33 -41.256 125.039 -36.163 129.126 -45.938 134.33 -41.256"/><g id="a_edge5-headlabel"><a target="_top" xlink:href="dir_000067_000000.xhtml" xlink:title="4"><text x="138.845" y="-39.529" font-family="Helvetica,sans-Serif" font-size="10" text-anchor="middle">4</text></a></g></g><g id="edge1" class="edge"><title>dir_445738e6fed662d0b65e690e3f1e1de0-&gt;dir_214608ef36d61442cb2b0c1c4e9a7def</title><path fill="none" stroke="#000" d="M46.5281,-71.6966C56.3818,-62.9655 68.4857,-52.2405 79.1961,-42.7503"/><polygon fill="#000" stroke="#000" points="81.533 -45.356 86.697 -36.104 76.891 -40.117 81.533 -45.356"/><g id="a_edge1-headlabel"><a target="_top" xlink:href="dir_000063_000000.xhtml" xlink:title="6"><text x="80.726" y="-47.365" font-family="Helvetica,sans-Serif" font-size="10" text-anchor="middle">6</text></a></g></g><g id="edge2" class="edge"><title>dir_9e71e2da941d3cafc4d98a9f6ae3de4f-&gt;dir_214608ef36d61442cb2b0c1c4e9a7def</title><path fill="none" stroke="#000" d="M106,-71.6966C106,-63.9827 106,-54.7125 106,-46.1124"/><polygon fill="#000" stroke="#000" points="109.5 -46.104 106 -36.104 102.5 -46.104 109.5 -46.104"/><g id="a_edge2-headlabel"><a target="_top" xlink:href="dir_000021_000000.xhtml" xlink:title="13"><text x="112.339" y="-47.199" font-family="Helvetica,sans-Serif" font-size="10" text-anchor="middle">13</text></a></g></g></g></svg>