<svg xmlns="http://www.w3.org/2000/svg" xmlns:xlink="http://www.w3.org/1999/xlink" width="334pt" height="404" viewBox="0 0 334 303"><g id="graph0" class="graph" transform="scale(1 1) rotate(0) translate(4 299)"><title>arm_compute/graph/backends</title><polygon fill="#fff" stroke="none" points="-4 4 -4 -299 330 -299 330 4 -4 4"/><g id="clust1" class="cluster"><title>clusterdir_99ae3712d1eecd2a93fc4d38b59a99ba</title><g id="a_clust1"><a target="_top" xlink:href="dir_99ae3712d1eecd2a93fc4d38b59a99ba.xhtml" xlink:title="graph"><polygon fill="#dde" stroke="#000" points="8 -200 8 -287 318 -287 318 -200 8 -200"/><text x="163" y="-275" font-family="Helvetica,sans-Serif" font-size="10" text-anchor="middle">graph</text></a></g></g><g id="clust2" class="cluster"><title>clusterdir_59b2231210c554f4cc243709030bf1f8</title><g id="a_clust2"><a target="_top" xlink:href="dir_59b2231210c554f4cc243709030bf1f8.xhtml"><polygon fill="#eef" stroke="#000" points="16 -208 16 -260 310 -260 310 -208 16 -208"/></a></g></g><g id="node1" class="node"><title>dir_59b2231210c554f4cc243709030bf1f8</title><text x="55" y="-231.5" font-family="Helvetica,sans-Serif" font-size="10" text-anchor="middle">backends</text></g><g id="node5" class="node"><title>dir_8bc26130589aa16388b5a02f17abf2c2</title><g id="a_node5"><a target="_top" xlink:href="dir_8bc26130589aa16388b5a02f17abf2c2.xhtml" xlink:title="runtime"><polygon fill="#fff" stroke="red" points="211 -180 157 -180 157 -144 211 -144 211 -180"/><text x="184" y="-159.5" font-family="Helvetica,sans-Serif" font-size="10" text-anchor="middle">runtime</text></a></g></g><g id="edge7" class="edge"><title>dir_59b2231210c554f4cc243709030bf1f8-&gt;dir_8bc26130589aa16388b5a02f17abf2c2</title><path fill="none" stroke="#000" d="M73.6667,-215.665C80.1195,-210.213 87.5956,-204.458 95,-200 111.265,-190.208 130.593,-181.829 147.075,-175.532"/><polygon fill="#000" stroke="#000" points="148.755 -178.643 156.917 -171.887 146.324 -172.078 148.755 -178.643"/><g id="a_edge7-headlabel"><a target="_top" xlink:href="dir_000020_000019.xhtml" xlink:title="13"><text x="146.371" y="-180.054" font-family="Helvetica,sans-Serif" font-size="10" text-anchor="middle">13</text></a></g></g><g id="node6" class="node"><title>dir_1fb090f0c6070330bfaccc4236d3ca0d</title><g id="a_node6"><a target="_top" xlink:href="dir_1fb090f0c6070330bfaccc4236d3ca0d.xhtml" xlink:title="core"><polygon fill="#fff" stroke="red" points="211 -108 157 -108 157 -72 211 -72 211 -108"/><text x="184" y="-87.5" font-family="Helvetica,sans-Serif" font-size="10" text-anchor="middle">core</text></a></g></g><g id="edge8" class="edge"><title>dir_59b2231210c554f4cc243709030bf1f8-&gt;dir_1fb090f0c6070330bfaccc4236d3ca0d</title><path fill="none" stroke="#000" d="M44.617,-215.663C34.6104,-196.458 23.0131,-165.384 38,-144 62.404,-109.179 112.139,-97.146 146.739,-93.0395"/><polygon fill="#000" stroke="#000" points="147.351 -96.495 156.946 -92.003 146.644 -89.531 147.351 -96.495"/><g id="a_edge8-headlabel"><a target="_top" xlink:href="dir_000020_000001.xhtml" xlink:title="10"><text x="144.061" y="-97.183" font-family="Helvetica,sans-Serif" font-size="10" text-anchor="middle">10</text></a></g></g><g id="node7" class="node"><title>dir_b30607d43e07fadf88f4c95a88a6c88e</title><g id="a_node7"><a target="_top" xlink:href="dir_b30607d43e07fadf88f4c95a88a6c88e.xhtml" xlink:title="nodes"><polygon fill="none" stroke="#000" points="101 -180 47 -180 47 -144 101 -144 101 -180"/><text x="74" y="-159.5" font-family="Helvetica,sans-Serif" font-size="10" text-anchor="middle">nodes</text></a></g></g><g id="edge9" class="edge"><title>dir_59b2231210c554f4cc243709030bf1f8-&gt;dir_b30607d43e07fadf88f4c95a88a6c88e</title><path fill="none" stroke="#000" d="M59.6966,-215.697C61.8134,-207.898 64.362,-198.509 66.7178,-189.829"/><polygon fill="#000" stroke="#000" points="70.116 -190.672 69.357 -180.104 63.36 -188.838 70.116 -190.672"/><g id="a_edge9-headlabel"><a target="_top" xlink:href="dir_000020_000036.xhtml" xlink:title="2"><text x="71.914" y="-192.385" font-family="Helvetica,sans-Serif" font-size="10" text-anchor="middle">2</text></a></g></g><g id="node8" class="node"><title>dir_5815af820a9cc9481f1d0990a0d60286</title><g id="a_node8"><a target="_top" xlink:href="dir_5815af820a9cc9481f1d0990a0d60286.xhtml" xlink:title="support"><polygon fill="none" stroke="#000" points="156 -36 102 -36 102 0 156 0 156 -36"/><text x="129" y="-15.5" font-family="Helvetica,sans-Serif" font-size="10" text-anchor="middle">support</text></a></g></g><g id="edge10" class="edge"><title>dir_59b2231210c554f4cc243709030bf1f8-&gt;dir_5815af820a9cc9481f1d0990a0d60286</title><path fill="none" stroke="#000" d="M42.8852,-215.812C31.746,-197.793 18.1944,-168.719 27,-144 41.503,-103.287 75.5788,-66.241 100.364,-43.2322"/><polygon fill="#000" stroke="#000" points="102.989 -45.577 108.048 -36.268 98.288 -40.39 102.989 -45.577"/><g id="a_edge10-headlabel"><a target="_top" xlink:href="dir_000020_000053.xhtml" xlink:title="1"><text x="102.232" y="-47.595" font-family="Helvetica,sans-Serif" font-size="10" text-anchor="middle">1</text></a></g></g><g id="node2" class="node"><title>dir_550bba389faad7f08ae5a13c29129f99</title><g id="a_node2"><a target="_top" xlink:href="dir_550bba389faad7f08ae5a13c29129f99.xhtml" xlink:title="CL"><polygon fill="#fff" stroke="#000" points="302 -252 248 -252 248 -216 302 -216 302 -252"/><text x="275" y="-231.5" font-family="Helvetica,sans-Serif" font-size="10" text-anchor="middle">CL</text></a></g></g><g id="edge3" class="edge"><title>dir_550bba389faad7f08ae5a13c29129f99-&gt;dir_8bc26130589aa16388b5a02f17abf2c2</title><path fill="none" stroke="#000" d="M257.152,-215.664C251.501,-210.445 245.128,-204.826 239,-200 232.971,-195.252 226.35,-190.467 219.856,-185.986"/><polygon fill="#000" stroke="#000" points="221.39 -182.798 211.146 -180.097 217.469 -188.597 221.39 -182.798"/><g id="a_edge3-headlabel"><a target="_top" xlink:href="dir_000031_000019.xhtml" xlink:title="5"><text x="225.958" y="-179.96" font-family="Helvetica,sans-Serif" font-size="10" text-anchor="middle">5</text></a></g></g><g id="edge4" class="edge"><title>dir_550bba389faad7f08ae5a13c29129f99-&gt;dir_1fb090f0c6070330bfaccc4236d3ca0d</title><path fill="none" stroke="#000" d="M269.629,-215.999C263.284,-197.367 251.589,-167.06 236,-144 229.076,-133.758 220.042,-123.751 211.45,-115.241"/><polygon fill="#000" stroke="#000" points="213.721 -112.569 204.078 -108.18 208.879 -117.624 213.721 -112.569"/><g id="a_edge4-headlabel"><a target="_top" xlink:href="dir_000031_000001.xhtml" xlink:title="1"><text x="218.281" y="-110.505" font-family="Helvetica,sans-Serif" font-size="10" text-anchor="middle">1</text></a></g></g><g id="node3" class="node"><title>dir_154b7715c8b805d6c07751152e8bda26</title><g id="a_node3"><a target="_top" xlink:href="dir_154b7715c8b805d6c07751152e8bda26.xhtml" xlink:title="GLES"><polygon fill="#fff" stroke="#000" points="158 -252 104 -252 104 -216 158 -216 158 -252"/><text x="131" y="-231.5" font-family="Helvetica,sans-Serif" font-size="10" text-anchor="middle">GLES</text></a></g></g><g id="edge12" class="edge"><title>dir_154b7715c8b805d6c07751152e8bda26-&gt;dir_8bc26130589aa16388b5a02f17abf2c2</title><path fill="none" stroke="#000" d="M144.101,-215.697C150.391,-207.389 158.047,-197.277 164.965,-188.141"/><polygon fill="#000" stroke="#000" points="167.804 -190.19 171.05 -180.104 162.223 -185.964 167.804 -190.19"/><g id="a_edge12-headlabel"><a target="_top" xlink:href="dir_000032_000019.xhtml" xlink:title="3"><text x="167.897" y="-192.269" font-family="Helvetica,sans-Serif" font-size="10" text-anchor="middle">3</text></a></g></g><g id="edge13" class="edge"><title>dir_154b7715c8b805d6c07751152e8bda26-&gt;dir_1fb090f0c6070330bfaccc4236d3ca0d</title><path fill="none" stroke="#000" d="M132.216,-215.676C133.979,-197.293 138.188,-167.689 148,-144 151.981,-134.39 157.857,-124.728 163.713,-116.335"/><polygon fill="#000" stroke="#000" points="166.654 -118.243 169.727 -108.104 161.002 -114.113 166.654 -118.243"/><g id="a_edge13-headlabel"><a target="_top" xlink:href="dir_000032_000001.xhtml" xlink:title="1"><text x="166.826" y="-120.32" font-family="Helvetica,sans-Serif" font-size="10" text-anchor="middle">1</text></a></g></g><g id="node4" class="node"><title>dir_2af5ba73c22f603fb662b4c21cfc8574</title><g id="a_node4"><a target="_top" xlink:href="dir_2af5ba73c22f603fb662b4c21cfc8574.xhtml" xlink:title="NEON"><polygon fill="#fff" stroke="#000" points="230 -252 176 -252 176 -216 230 -216 230 -252"/><text x="203" y="-231.5" font-family="Helvetica,sans-Serif" font-size="10" text-anchor="middle">NEON</text></a></g></g><g id="edge1" class="edge"><title>dir_2af5ba73c22f603fb662b4c21cfc8574-&gt;dir_8bc26130589aa16388b5a02f17abf2c2</title><path fill="none" stroke="#000" d="M198.303,-215.697C196.187,-207.898 193.638,-198.509 191.282,-189.829"/><polygon fill="#000" stroke="#000" points="194.64 -188.838 188.643 -180.104 187.884 -190.672 194.64 -188.838"/><g id="a_edge1-headlabel"><a target="_top" xlink:href="dir_000033_000019.xhtml" xlink:title="4"><text x="198.322" y="-189.064" font-family="Helvetica,sans-Serif" font-size="10" text-anchor="middle">4</text></a></g></g><g id="edge2" class="edge"><title>dir_2af5ba73c22f603fb662b4c21cfc8574-&gt;dir_1fb090f0c6070330bfaccc4236d3ca0d</title><path fill="none" stroke="#000" d="M211.223,-215.666C218.693,-197.528 227.49,-168.358 220,-144 216.991,-134.215 211.493,-124.616 205.684,-116.334"/><polygon fill="#000" stroke="#000" points="208.407 -114.131 199.61 -108.226 202.805 -118.328 208.407 -114.131"/><g id="a_edge2-headlabel"><a target="_top" xlink:href="dir_000033_000001.xhtml" xlink:title="1"><text x="212.835" y="-112.805" font-family="Helvetica,sans-Serif" font-size="10" text-anchor="middle">1</text></a></g></g><g id="edge5" class="edge"><title>dir_8bc26130589aa16388b5a02f17abf2c2-&gt;dir_1fb090f0c6070330bfaccc4236d3ca0d</title><path fill="none" stroke="#000" d="M184,-143.697C184,-135.983 184,-126.712 184,-118.112"/><polygon fill="#000" stroke="#000" points="187.5 -118.104 184 -108.104 180.5 -118.104 187.5 -118.104"/><g id="a_edge5-headlabel"><a target="_top" xlink:href="dir_000019_000001.xhtml" xlink:title="458"><text x="190.339" y="-119.199" font-family="Helvetica,sans-Serif" font-size="10" text-anchor="middle">458</text></a></g></g><g id="edge6" class="edge"><title>dir_8bc26130589aa16388b5a02f17abf2c2-&gt;dir_5815af820a9cc9481f1d0990a0d60286</title><path fill="none" stroke="#000" d="M169.835,-143.851C162.31,-133.93 153.503,-120.89 148,-108 139.587,-88.2932 134.755,-64.4881 132.072,-46.4579"/><polygon fill="#000" stroke="#000" points="135.51 -45.764 130.697 -36.325 128.573 -46.705 135.51 -45.764"/><g id="a_edge6-headlabel"><a target="_top" xlink:href="dir_000019_000053.xhtml" xlink:title="4"><text x="138.806" y="-46.445" font-family="Helvetica,sans-Serif" font-size="10" text-anchor="middle">4</text></a></g></g><g id="edge11" class="edge"><title>dir_1fb090f0c6070330bfaccc4236d3ca0d-&gt;dir_5815af820a9cc9481f1d0990a0d60286</title><path fill="none" stroke="#000" d="M170.404,-71.6966C163.877,-63.3893 155.932,-53.2771 148.753,-44.1407"/><polygon fill="#000" stroke="#000" points="151.369 -41.805 142.439 -36.104 145.865 -46.13 151.369 -41.805"/><g id="a_edge11-headlabel"><a target="_top" xlink:href="dir_000001_000053.xhtml" xlink:title="13"><text x="155.823" y="-40.377" font-family="Helvetica,sans-Serif" font-size="10" text-anchor="middle">13</text></a></g></g></g></svg>