<svg xmlns="http://www.w3.org/2000/svg" xmlns:xlink="http://www.w3.org/1999/xlink" width="196pt" height="308" viewBox="0 0 196 231"><g id="graph0" class="graph" transform="scale(1 1) rotate(0) translate(4 227)"><title>arm_compute/runtime/NEON/functions</title><polygon fill="#fff" stroke="none" points="-4 4 -4 -227 192 -227 192 4 -4 4"/><g id="clust1" class="cluster"><title>clusterdir_65e289039e1347f87d412b0a1b1a312c</title><g id="a_clust1"><a target="_top" xlink:href="dir_65e289039e1347f87d412b0a1b1a312c.xhtml" xlink:title="NEON"><polygon fill="#dde" stroke="#000" points="8 -128 8 -215 180 -215 180 -128 8 -128"/><text x="94" y="-203" font-family="Helvetica,sans-Serif" font-size="10" text-anchor="middle">NEON</text></a></g></g><g id="clust2" class="cluster"><title>clusterdir_345bd7154d1542d1e03fd2836959a19d</title><g id="a_clust2"><a target="_top" xlink:href="dir_345bd7154d1542d1e03fd2836959a19d.xhtml"><polygon fill="#eef" stroke="#000" points="16 -136 16 -188 172 -188 172 -136 16 -136"/></a></g></g><g id="node1" class="node"><title>dir_345bd7154d1542d1e03fd2836959a19d</title><text x="134" y="-159.5" font-family="Helvetica,sans-Serif" font-size="10" text-anchor="middle">functions</text></g><g id="node3" class="node"><title>dir_b496024afd63bafbf4e8da80d7d3a81a</title><g id="a_node3"><a target="_top" xlink:href="dir_b496024afd63bafbf4e8da80d7d3a81a.xhtml" xlink:title="CPP"><polygon fill="#fff" stroke="red" points="134 -108 80 -108 80 -72 134 -72 134 -108"/><text x="107" y="-87.5" font-family="Helvetica,sans-Serif" font-size="10" text-anchor="middle">CPP</text></a></g></g><g id="edge1" class="edge"><title>dir_345bd7154d1542d1e03fd2836959a19d-&gt;dir_b496024afd63bafbf4e8da80d7d3a81a</title><path fill="none" stroke="#000" d="M127.326,-143.697C124.285,-135.813 120.617,-126.304 117.239,-117.546"/><polygon fill="#000" stroke="#000" points="120.462 -116.175 113.597 -108.104 113.931 -118.694 120.462 -116.175"/><g id="a_edge1-headlabel"><a target="_top" xlink:href="dir_000045_000040.xhtml" xlink:title="2"><text x="124.404" y="-116.007" font-family="Helvetica,sans-Serif" font-size="10" text-anchor="middle">2</text></a></g></g><g id="node4" class="node"><title>dir_1fb090f0c6070330bfaccc4236d3ca0d</title><g id="a_node4"><a target="_top" xlink:href="dir_1fb090f0c6070330bfaccc4236d3ca0d.xhtml" xlink:title="core"><polygon fill="#fff" stroke="red" points="161 -36 107 -36 107 0 161 0 161 -36"/><text x="134" y="-15.5" font-family="Helvetica,sans-Serif" font-size="10" text-anchor="middle">core</text></a></g></g><g id="edge2" class="edge"><title>dir_345bd7154d1542d1e03fd2836959a19d-&gt;dir_1fb090f0c6070330bfaccc4236d3ca0d</title><path fill="none" stroke="#000" d="M137.654,-143.908C139.676,-133.569 141.981,-120.09 143,-108 144.344,-92.0566 144.344,-87.9434 143,-72 142.283,-63.4991 140.931,-54.3119 139.488,-46.0122"/><polygon fill="#000" stroke="#000" points="142.914 -45.289 137.654 -36.093 136.031 -46.562 142.914 -45.289"/><g id="a_edge2-headlabel"><a target="_top" xlink:href="dir_000045_000001.xhtml" xlink:title="163"><text x="146.36" y="-45.807" font-family="Helvetica,sans-Serif" font-size="10" text-anchor="middle">163</text></a></g></g><g id="node2" class="node"><title>dir_5cc15eabebeaf52b5630c3e40d7a7661</title><g id="a_node2"><a target="_top" xlink:href="dir_5cc15eabebeaf52b5630c3e40d7a7661.xhtml" xlink:title="assembly"><polygon fill="#fff" stroke="#000" points="86 -180 24 -180 24 -144 86 -144 86 -180"/><text x="55" y="-159.5" font-family="Helvetica,sans-Serif" font-size="10" text-anchor="middle">assembly</text></a></g></g><g id="edge3" class="edge"><title>dir_b496024afd63bafbf4e8da80d7d3a81a-&gt;dir_1fb090f0c6070330bfaccc4236d3ca0d</title><path fill="none" stroke="#000" d="M113.674,-71.6966C116.715,-63.8132 120.383,-54.3042 123.761,-45.5464"/><polygon fill="#000" stroke="#000" points="127.069 -46.694 127.403 -36.104 120.538 -44.175 127.069 -46.694"/><g id="a_edge3-headlabel"><a target="_top" xlink:href="dir_000040_000001.xhtml" xlink:title="3"><text x="128.425" y="-48.569" font-family="Helvetica,sans-Serif" font-size="10" text-anchor="middle">3</text></a></g></g></g></svg>