<svg xmlns="http://www.w3.org/2000/svg" xmlns:xlink="http://www.w3.org/1999/xlink" width="289pt" height="500" viewBox="0 0 289 375"><g id="graph0" class="graph" transform="scale(1 1) rotate(0) translate(4 371)"><title>tests/validation/CL</title><polygon fill="#fff" stroke="none" points="-4 4 -4 -371 285 -371 285 4 -4 4"/><g id="clust1" class="cluster"><title>clusterdir_e7c7b16542faa38cb4655ff1750d3604</title><g id="a_clust1"><a target="_top" xlink:href="dir_e7c7b16542faa38cb4655ff1750d3604.xhtml" xlink:title="validation"><polygon fill="#dde" stroke="#000" points="115 -272 115 -359 273 -359 273 -272 115 -272"/><text x="194" y="-347" font-family="Helvetica,sans-Serif" font-size="10" text-anchor="middle">validation</text></a></g></g><g id="clust2" class="cluster"><title>clusterdir_f7024513cd67abef53e86ee9382ac5ce</title><g id="a_clust2"><a target="_top" xlink:href="dir_f7024513cd67abef53e86ee9382ac5ce.xhtml"><polygon fill="#eef" stroke="#000" points="123 -280 123 -332 265 -332 265 -280 123 -280"/></a></g></g><g id="node1" class="node"><title>dir_f7024513cd67abef53e86ee9382ac5ce</title><text x="158" y="-303.5" font-family="Helvetica,sans-Serif" font-size="10" text-anchor="middle">CL</text></g><g id="node3" class="node"><title>dir_46fdb196cebdbffe77dac340cde62f29</title><g id="a_node3"><a target="_top" xlink:href="dir_46fdb196cebdbffe77dac340cde62f29.xhtml" xlink:title="reference"><polygon fill="none" stroke="#000" points="62 -252 0 -252 0 -216 62 -216 62 -252"/><text x="31" y="-231.5" font-family="Helvetica,sans-Serif" font-size="10" text-anchor="middle">reference</text></a></g></g><g id="edge11" class="edge"><title>dir_f7024513cd67abef53e86ee9382ac5ce-&gt;dir_46fdb196cebdbffe77dac340cde62f29</title><path fill="none" stroke="#000" d="M130.755,-289.983C113.389,-280.412 90.5832,-267.841 71.1609,-257.136"/><polygon fill="#000" stroke="#000" points="72.67 -253.971 62.223 -252.209 69.291 -260.102 72.67 -253.971"/><g id="a_edge11-headlabel"><a target="_top" xlink:href="dir_000058_000022.xhtml" xlink:title="2"><text x="77.189" y="-250.72" font-family="Helvetica,sans-Serif" font-size="10" text-anchor="middle">2</text></a></g></g><g id="node4" class="node"><title>dir_9e71e2da941d3cafc4d98a9f6ae3de4f</title><g id="a_node4"><a target="_top" xlink:href="dir_9e71e2da941d3cafc4d98a9f6ae3de4f.xhtml" xlink:title="framework"><polygon fill="#fff" stroke="red" points="137.5 -180 70.5 -180 70.5 -144 137.5 -144 137.5 -180"/><text x="104" y="-159.5" font-family="Helvetica,sans-Serif" font-size="10" text-anchor="middle">framework</text></a></g></g><g id="edge12" class="edge"><title>dir_f7024513cd67abef53e86ee9382ac5ce-&gt;dir_9e71e2da941d3cafc4d98a9f6ae3de4f</title><path fill="none" stroke="#000" d="M139.151,-287.673C129.974,-278.091 119.714,-265.425 114,-252 105.691,-232.478 103.399,-208.481 103.07,-190.327"/><polygon fill="#000" stroke="#000" points="106.57 -190.133 103.077 -180.131 99.57 -190.128 106.57 -190.133"/><g id="a_edge12-headlabel"><a target="_top" xlink:href="dir_000058_000021.xhtml" xlink:title="244"><text x="109.407" y="-191.23" font-family="Helvetica,sans-Serif" font-size="10" text-anchor="middle">244</text></a></g></g><g id="node5" class="node"><title>dir_214608ef36d61442cb2b0c1c4e9a7def</title><g id="a_node5"><a target="_top" xlink:href="dir_214608ef36d61442cb2b0c1c4e9a7def.xhtml" xlink:title="arm_compute"><polygon fill="#fff" stroke="red" points="214 -108 130 -108 130 -72 214 -72 214 -108"/><text x="172" y="-87.5" font-family="Helvetica,sans-Serif" font-size="10" text-anchor="middle">arm_compute</text></a></g></g><g id="edge13" class="edge"><title>dir_f7024513cd67abef53e86ee9382ac5ce-&gt;dir_214608ef36d61442cb2b0c1c4e9a7def</title><path fill="none" stroke="#000" d="M159.122,-287.849C161.544,-250.832 167.278,-163.181 170.208,-118.386"/><polygon fill="#000" stroke="#000" points="173.712 -118.44 170.873 -108.232 166.727 -117.983 173.712 -118.44"/><g id="a_edge13-headlabel"><a target="_top" xlink:href="dir_000058_000000.xhtml" xlink:title="329"><text x="176.311" y="-119.712" font-family="Helvetica,sans-Serif" font-size="10" text-anchor="middle">329</text></a></g></g><g id="node6" class="node"><title>dir_896191444cf08ec8ade6f88256cb2bdd</title><g id="a_node6"><a target="_top" xlink:href="dir_896191444cf08ec8ade6f88256cb2bdd.xhtml" xlink:title="CL"><polygon fill="none" stroke="#000" points="250 -252 196 -252 196 -216 250 -216 250 -252"/><text x="223" y="-231.5" font-family="Helvetica,sans-Serif" font-size="10" text-anchor="middle">CL</text></a></g></g><g id="edge14" class="edge"><title>dir_f7024513cd67abef53e86ee9382ac5ce-&gt;dir_896191444cf08ec8ade6f88256cb2bdd</title><path fill="none" stroke="#000" d="M174.067,-287.697C181.939,-279.22 191.555,-268.864 200.173,-259.583"/><polygon fill="#000" stroke="#000" points="202.878 -261.814 207.117 -252.104 197.748 -257.051 202.878 -261.814"/><g id="a_edge14-headlabel"><a target="_top" xlink:href="dir_000058_000061.xhtml" xlink:title="102"><text x="202.512" y="-263.88" font-family="Helvetica,sans-Serif" font-size="10" text-anchor="middle">102</text></a></g></g><g id="node2" class="node"><title>dir_4fe3055359cf5438733b5e64b064b197</title><g id="a_node2"><a target="_top" xlink:href="dir_4fe3055359cf5438733b5e64b064b197.xhtml" xlink:title="UNIT"><polygon fill="#fff" stroke="#000" points="257 -324 203 -324 203 -288 257 -288 257 -324"/><text x="230" y="-303.5" font-family="Helvetica,sans-Serif" font-size="10" text-anchor="middle">UNIT</text></a></g></g><g id="edge4" class="edge"><title>dir_4fe3055359cf5438733b5e64b064b197-&gt;dir_9e71e2da941d3cafc4d98a9f6ae3de4f</title><path fill="none" stroke="#000" d="M214.801,-287.871C192.665,-262.924 151.427,-216.45 125.982,-187.773"/><polygon fill="#000" stroke="#000" points="128.508 -185.346 119.252 -180.189 123.272 -189.992 128.508 -185.346"/><g id="a_edge4-headlabel"><a target="_top" xlink:href="dir_000068_000021.xhtml" xlink:title="8"><text x="133.017" y="-183.65" font-family="Helvetica,sans-Serif" font-size="10" text-anchor="middle">8</text></a></g></g><g id="edge5" class="edge"><title>dir_4fe3055359cf5438733b5e64b064b197-&gt;dir_214608ef36d61442cb2b0c1c4e9a7def</title><path fill="none" stroke="#000" d="M242.307,-287.784C248.65,-277.843 255.726,-264.804 259,-252 262.964,-236.499 263.562,-231.336 259,-216 247.281,-176.61 217.722,-138.973 196.306,-115.48"/><polygon fill="#000" stroke="#000" points="198.774 -112.995 189.392 -108.073 193.657 -117.772 198.774 -112.995"/><g id="a_edge5-headlabel"><a target="_top" xlink:href="dir_000068_000000.xhtml" xlink:title="12"><text x="203.303" y="-111.186" font-family="Helvetica,sans-Serif" font-size="10" text-anchor="middle">12</text></a></g></g><g id="edge6" class="edge"><title>dir_4fe3055359cf5438733b5e64b064b197-&gt;dir_896191444cf08ec8ade6f88256cb2bdd</title><path fill="none" stroke="#000" d="M228.27,-287.697C227.498,-279.983 226.571,-270.712 225.711,-262.112"/><polygon fill="#000" stroke="#000" points="229.188 -261.706 224.71 -252.104 222.223 -262.403 229.188 -261.706"/><g id="a_edge6-headlabel"><a target="_top" xlink:href="dir_000068_000061.xhtml" xlink:title="2"><text x="232.371" y="-262.501" font-family="Helvetica,sans-Serif" font-size="10" text-anchor="middle">2</text></a></g></g><g id="node7" class="node"><title>dir_5815af820a9cc9481f1d0990a0d60286</title><g id="a_node7"><a target="_top" xlink:href="dir_5815af820a9cc9481f1d0990a0d60286.xhtml" xlink:title="support"><polygon fill="none" stroke="#000" points="199 -36 145 -36 145 0 199 0 199 -36"/><text x="172" y="-15.5" font-family="Helvetica,sans-Serif" font-size="10" text-anchor="middle">support</text></a></g></g><g id="edge7" class="edge"><title>dir_4fe3055359cf5438733b5e64b064b197-&gt;dir_5815af820a9cc9481f1d0990a0d60286</title><path fill="none" stroke="#000" d="M250.379,-287.531C259.807,-278.092 270.006,-265.597 275,-252 280.516,-236.981 276.798,-231.899 275,-216 267.62,-150.757 277.653,-127.136 242,-72 233.392,-58.6878 220.225,-47.4447 207.624,-38.7866"/><polygon fill="#000" stroke="#000" points="209.345 -35.731 199.054 -33.212 205.528 -41.599 209.345 -35.731"/><g id="a_edge7-headlabel"><a target="_top" xlink:href="dir_000068_000053.xhtml" xlink:title="3"><text x="213.906" y="-32.811" font-family="Helvetica,sans-Serif" font-size="10" text-anchor="middle">3</text></a></g></g><g id="edge1" class="edge"><title>dir_46fdb196cebdbffe77dac340cde62f29-&gt;dir_9e71e2da941d3cafc4d98a9f6ae3de4f</title><path fill="none" stroke="#000" d="M49.0449,-215.697C58.0619,-207.05 69.1179,-196.449 78.9432,-187.027"/><polygon fill="#000" stroke="#000" points="81.367 -189.552 86.163 -180.104 76.522 -184.499 81.367 -189.552"/><g id="a_edge1-headlabel"><a target="_top" xlink:href="dir_000022_000021.xhtml" xlink:title="3"><text x="80.738" y="-191.589" font-family="Helvetica,sans-Serif" font-size="10" text-anchor="middle">3</text></a></g></g><g id="edge2" class="edge"><title>dir_46fdb196cebdbffe77dac340cde62f29-&gt;dir_214608ef36d61442cb2b0c1c4e9a7def</title><path fill="none" stroke="#000" d="M32.7565,-215.947C35.5881,-196.423 42.8299,-164.5 61,-144 76.6614,-126.33 99.5002,-114.037 120.395,-105.773"/><polygon fill="#000" stroke="#000" points="121.68 -109.029 129.826 -102.254 119.233 -102.47 121.68 -109.029"/><g id="a_edge2-headlabel"><a target="_top" xlink:href="dir_000022_000000.xhtml" xlink:title="49"><text x="119.305" y="-110.445" font-family="Helvetica,sans-Serif" font-size="10" text-anchor="middle">49</text></a></g></g><g id="edge3" class="edge"><title>dir_46fdb196cebdbffe77dac340cde62f29-&gt;dir_5815af820a9cc9481f1d0990a0d60286</title><path fill="none" stroke="#000" d="M29.0676,-215.78C27.7166,-197.225 27.6896,-167.234 38,-144 58.1707,-98.5471 103.664,-61.9994 136.039,-40.4269"/><polygon fill="#000" stroke="#000" points="138.309 -43.126 144.79 -34.744 134.497 -37.255 138.309 -43.126"/><g id="a_edge3-headlabel"><a target="_top" xlink:href="dir_000022_000053.xhtml" xlink:title="2"><text x="136.84" y="-44.965" font-family="Helvetica,sans-Serif" font-size="10" text-anchor="middle">2</text></a></g></g><g id="edge8" class="edge"><title>dir_9e71e2da941d3cafc4d98a9f6ae3de4f-&gt;dir_214608ef36d61442cb2b0c1c4e9a7def</title><path fill="none" stroke="#000" d="M120.809,-143.697C129.126,-135.135 139.305,-124.656 148.39,-115.304"/><polygon fill="#000" stroke="#000" points="150.927 -117.716 155.384 -108.104 145.906 -112.838 150.927 -117.716"/><g id="a_edge8-headlabel"><a target="_top" xlink:href="dir_000021_000000.xhtml" xlink:title="13"><text x="150.459" y="-119.773" font-family="Helvetica,sans-Serif" font-size="10" text-anchor="middle">13</text></a></g></g><g id="edge9" class="edge"><title>dir_9e71e2da941d3cafc4d98a9f6ae3de4f-&gt;dir_5815af820a9cc9481f1d0990a0d60286</title><path fill="none" stroke="#000" d="M104.396,-143.996C105.458,-125.362 109.073,-95.053 121,-72 126.436,-61.4931 134.616,-51.65 142.843,-43.3662"/><polygon fill="#000" stroke="#000" points="145.512 -45.657 150.334 -36.223 140.681 -40.591 145.512 -45.657"/><g id="a_edge9-headlabel"><a target="_top" xlink:href="dir_000021_000053.xhtml" xlink:title="7"><text x="144.871" y="-47.693" font-family="Helvetica,sans-Serif" font-size="10" text-anchor="middle">7</text></a></g></g><g id="edge10" class="edge"><title>dir_214608ef36d61442cb2b0c1c4e9a7def-&gt;dir_5815af820a9cc9481f1d0990a0d60286</title><path fill="none" stroke="#000" d="M172,-71.6966C172,-63.9827 172,-54.7125 172,-46.1124"/><polygon fill="#000" stroke="#000" points="175.5 -46.104 172 -36.104 168.5 -46.104 175.5 -46.104"/><g id="a_edge10-headlabel"><a target="_top" xlink:href="dir_000000_000053.xhtml" xlink:title="20"><text x="178.339" y="-47.199" font-family="Helvetica,sans-Serif" font-size="10" text-anchor="middle">20</text></a></g></g><g id="edge15" class="edge"><title>dir_896191444cf08ec8ade6f88256cb2bdd-&gt;dir_214608ef36d61442cb2b0c1c4e9a7def</title><path fill="none" stroke="#000" d="M216.848,-215.871C208.08,-191.457 191.906,-146.426 181.566,-117.635"/><polygon fill="#000" stroke="#000" points="184.848 -116.418 178.174 -108.189 178.26 -118.784 184.848 -116.418"/><g id="a_edge15-headlabel"><a target="_top" xlink:href="dir_000061_000000.xhtml" xlink:title="5"><text x="188.735" y="-116.341" font-family="Helvetica,sans-Serif" font-size="10" text-anchor="middle">5</text></a></g></g><g id="edge16" class="edge"><title>dir_896191444cf08ec8ade6f88256cb2bdd-&gt;dir_5815af820a9cc9481f1d0990a0d60286</title><path fill="none" stroke="#000" d="M227.058,-215.757C233.336,-185.402 242.746,-120.999 223,-72 218.651,-61.209 210.938,-51.3859 202.806,-43.2085"/><polygon fill="#000" stroke="#000" points="204.996 -40.464 195.305 -36.181 200.21 -45.572 204.996 -40.464"/><g id="a_edge16-headlabel"><a target="_top" xlink:href="dir_000061_000053.xhtml" xlink:title="1"><text x="209.56" y="-38.349" font-family="Helvetica,sans-Serif" font-size="10" text-anchor="middle">1</text></a></g></g></g></svg>