<svg xmlns="http://www.w3.org/2000/svg" xmlns:xlink="http://www.w3.org/1999/xlink" width="140" height="223pt" viewBox="0 0 105 223"><g id="graph0" class="graph" transform="scale(1 1) rotate(0) translate(4 219)"><title>arm_compute/core/CPP/kernels</title><polygon fill="#fff" stroke="none" points="-4 4 -4 -219 101 -219 101 4 -4 4"/><g id="clust1" class="cluster"><title>clusterdir_7484b841a86f2d7fdd057c9b24fbf230</title><g id="a_clust1"><a target="_top" xlink:href="dir_7484b841a86f2d7fdd057c9b24fbf230.xhtml" xlink:title="CPP"><polygon fill="#dde" stroke="#000" points="19 -136 19 -207 89 -207 89 -136 19 -136"/><text x="54" y="-195" font-family="Helvetica,sans-Serif" font-size="10" text-anchor="middle">CPP</text></a></g></g><g id="node1" class="node"><title>dir_9b109a3838d873f4037ee21889a49db8</title><g id="a_node1"><a target="_top" xlink:href="dir_9b109a3838d873f4037ee21889a49db8.xhtml" xlink:title="kernels"><polygon fill="#eef" stroke="#000" points="81 -180 27 -180 27 -144 81 -144 81 -180"/><text x="54" y="-159.5" font-family="Helvetica,sans-Serif" font-size="10" text-anchor="middle">kernels</text></a></g></g><g id="node2" class="node"><title>dir_315f6cf1ec0b2df3ae747ff8286a19f5</title><g id="a_node2"><a target="_top" xlink:href="dir_315f6cf1ec0b2df3ae747ff8286a19f5.xhtml" xlink:title="NEON"><polygon fill="#fff" stroke="red" points="54 -108 0 -108 0 -72 54 -72 54 -108"/><text x="27" y="-87.5" font-family="Helvetica,sans-Serif" font-size="10" text-anchor="middle">NEON</text></a></g></g><g id="edge1" class="edge"><title>dir_9b109a3838d873f4037ee21889a49db8-&gt;dir_315f6cf1ec0b2df3ae747ff8286a19f5</title><path fill="none" stroke="#000" d="M47.3258,-143.697C44.2851,-135.813 40.6173,-126.304 37.2393,-117.546"/><polygon fill="#000" stroke="#000" points="40.462 -116.175 33.597 -108.104 33.931 -118.694 40.462 -116.175"/><g id="a_edge1-headlabel"><a target="_top" xlink:href="dir_000005_000012.xhtml" xlink:title="2"><text x="44.404" y="-116.007" font-family="Helvetica,sans-Serif" font-size="10" text-anchor="middle">2</text></a></g></g><g id="node3" class="node"><title>dir_5815af820a9cc9481f1d0990a0d60286</title><g id="a_node3"><a target="_top" xlink:href="dir_5815af820a9cc9481f1d0990a0d60286.xhtml" xlink:title="support"><polygon fill="none" stroke="#000" points="81 -36 27 -36 27 0 81 0 81 -36"/><text x="54" y="-15.5" font-family="Helvetica,sans-Serif" font-size="10" text-anchor="middle">support</text></a></g></g><g id="edge2" class="edge"><title>dir_9b109a3838d873f4037ee21889a49db8-&gt;dir_5815af820a9cc9481f1d0990a0d60286</title><path fill="none" stroke="#000" d="M57.6538,-143.908C59.6758,-133.569 61.9808,-120.09 63,-108 64.3441,-92.0566 64.3441,-87.9434 63,-72 62.2834,-63.4991 60.9311,-54.3119 59.4884,-46.0122"/><polygon fill="#000" stroke="#000" points="62.914 -45.289 57.654 -36.093 56.031 -46.562 62.914 -45.289"/><g id="a_edge2-headlabel"><a target="_top" xlink:href="dir_000005_000053.xhtml" xlink:title="1"><text x="66.36" y="-45.807" font-family="Helvetica,sans-Serif" font-size="10" text-anchor="middle">1</text></a></g></g><g id="edge3" class="edge"><title>dir_315f6cf1ec0b2df3ae747ff8286a19f5-&gt;dir_5815af820a9cc9481f1d0990a0d60286</title><path fill="none" stroke="#000" d="M33.6742,-71.6966C36.7149,-63.8132 40.3827,-54.3042 43.7607,-45.5464"/><polygon fill="#000" stroke="#000" points="47.069 -46.694 47.403 -36.104 40.538 -44.175 47.069 -46.694"/><g id="a_edge3-headlabel"><a target="_top" xlink:href="dir_000012_000053.xhtml" xlink:title="5"><text x="48.425" y="-48.569" font-family="Helvetica,sans-Serif" font-size="10" text-anchor="middle">5</text></a></g></g></g></svg>