<svg xmlns="http://www.w3.org/2000/svg" xmlns:xlink="http://www.w3.org/1999/xlink" width="384" height="500" viewBox="0 0 288.01 375"><g id="graph0" class="graph" transform="scale(1 1) rotate(0) translate(4 371)"><title>tests/validation/NEON</title><polygon fill="#fff" stroke="none" points="-4 4 -4 -371 284.008 -371 284.008 4 -4 4"/><g id="clust1" class="cluster"><title>clusterdir_e7c7b16542faa38cb4655ff1750d3604</title><g id="a_clust1"><a target="_top" xlink:href="dir_e7c7b16542faa38cb4655ff1750d3604.xhtml" xlink:title="validation"><polygon fill="#dde" stroke="#000" points="97 -272 97 -359 255 -359 255 -272 97 -272"/><text x="176" y="-347" font-family="Helvetica,sans-Serif" font-size="10" text-anchor="middle">validation</text></a></g></g><g id="clust2" class="cluster"><title>clusterdir_0538a82dae0483a21d0f1e9d7e0a45c6</title><g id="a_clust2"><a target="_top" xlink:href="dir_0538a82dae0483a21d0f1e9d7e0a45c6.xhtml"><polygon fill="#eef" stroke="#000" points="105 -280 105 -332 247 -332 247 -280 105 -280"/></a></g></g><g id="node1" class="node"><title>dir_0538a82dae0483a21d0f1e9d7e0a45c6</title><text x="140" y="-303.5" font-family="Helvetica,sans-Serif" font-size="10" text-anchor="middle">NEON</text></g><g id="node3" class="node"><title>dir_46fdb196cebdbffe77dac340cde62f29</title><g id="a_node3"><a target="_top" xlink:href="dir_46fdb196cebdbffe77dac340cde62f29.xhtml" xlink:title="reference"><polygon fill="none" stroke="#000" points="62 -252 0 -252 0 -216 62 -216 62 -252"/><text x="31" y="-231.5" font-family="Helvetica,sans-Serif" font-size="10" text-anchor="middle">reference</text></a></g></g><g id="edge13" class="edge"><title>dir_0538a82dae0483a21d0f1e9d7e0a45c6-&gt;dir_46fdb196cebdbffe77dac340cde62f29</title><path fill="none" stroke="#000" d="M113.336,-287.876C99.2158,-278.808 81.6886,-267.552 66.4393,-257.759"/><polygon fill="#000" stroke="#000" points="68.073 -254.648 57.767 -252.19 64.29 -260.538 68.073 -254.648"/><g id="a_edge13-headlabel"><a target="_top" xlink:href="dir_000060_000022.xhtml" xlink:title="2"><text x="72.631" y="-251.702" font-family="Helvetica,sans-Serif" font-size="10" text-anchor="middle">2</text></a></g></g><g id="node4" class="node"><title>dir_445738e6fed662d0b65e690e3f1e1de0</title><g id="a_node4"><a target="_top" xlink:href="dir_445738e6fed662d0b65e690e3f1e1de0.xhtml" xlink:title="NEON"><polygon fill="none" stroke="#000" points="250 -252 196 -252 196 -216 250 -216 250 -252"/><text x="223" y="-231.5" font-family="Helvetica,sans-Serif" font-size="10" text-anchor="middle">NEON</text></a></g></g><g id="edge14" class="edge"><title>dir_0538a82dae0483a21d0f1e9d7e0a45c6-&gt;dir_445738e6fed662d0b65e690e3f1e1de0</title><path fill="none" stroke="#000" d="M158.076,-287.942C163.735,-282.734 170.056,-277.051 176,-272 181.21,-267.572 186.849,-262.974 192.352,-258.587"/><polygon fill="#000" stroke="#000" points="194.569 -261.296 200.251 -252.353 190.233 -255.8 194.569 -261.296"/><g id="a_edge14-headlabel"><a target="_top" xlink:href="dir_000060_000063.xhtml" xlink:title="92"><text x="193.506" y="-263.251" font-family="Helvetica,sans-Serif" font-size="10" text-anchor="middle">92</text></a></g></g><g id="node5" class="node"><title>dir_9e71e2da941d3cafc4d98a9f6ae3de4f</title><g id="a_node5"><a target="_top" xlink:href="dir_9e71e2da941d3cafc4d98a9f6ae3de4f.xhtml" xlink:title="framework"><polygon fill="#fff" stroke="red" points="125.5 -180 58.5 -180 58.5 -144 125.5 -144 125.5 -180"/><text x="92" y="-159.5" font-family="Helvetica,sans-Serif" font-size="10" text-anchor="middle">framework</text></a></g></g><g id="edge15" class="edge"><title>dir_0538a82dae0483a21d0f1e9d7e0a45c6-&gt;dir_9e71e2da941d3cafc4d98a9f6ae3de4f</title><path fill="none" stroke="#000" d="M131.273,-287.628C126.364,-277.42 120.364,-264.17 116,-252 108.685,-231.6 102.393,-207.878 98.0889,-190.057"/><polygon fill="#000" stroke="#000" points="101.494 -189.245 95.792 -180.316 94.68 -190.852 101.494 -189.245"/><g id="a_edge15-headlabel"><a target="_top" xlink:href="dir_000060_000021.xhtml" xlink:title="226"><text x="105.082" y="-189.592" font-family="Helvetica,sans-Serif" font-size="10" text-anchor="middle">226</text></a></g></g><g id="node6" class="node"><title>dir_214608ef36d61442cb2b0c1c4e9a7def</title><g id="a_node6"><a target="_top" xlink:href="dir_214608ef36d61442cb2b0c1c4e9a7def.xhtml" xlink:title="arm_compute"><polygon fill="#fff" stroke="red" points="202 -108 118 -108 118 -72 202 -72 202 -108"/><text x="160" y="-87.5" font-family="Helvetica,sans-Serif" font-size="10" text-anchor="middle">arm_compute</text></a></g></g><g id="edge16" class="edge"><title>dir_0538a82dae0483a21d0f1e9d7e0a45c6-&gt;dir_214608ef36d61442cb2b0c1c4e9a7def</title><path fill="none" stroke="#000" d="M141.603,-287.849C145.062,-250.832 153.254,-163.181 157.441,-118.386"/><polygon fill="#000" stroke="#000" points="160.944 -118.515 158.389 -108.232 153.974 -117.863 160.944 -118.515"/><g id="a_edge16-headlabel"><a target="_top" xlink:href="dir_000060_000000.xhtml" xlink:title="302"><text x="163.436" y="-119.858" font-family="Helvetica,sans-Serif" font-size="10" text-anchor="middle">302</text></a></g></g><g id="node2" class="node"><title>dir_6fc87decd8cffc07e5f49c197ca3de10</title><g id="a_node2"><a target="_top" xlink:href="dir_6fc87decd8cffc07e5f49c197ca3de10.xhtml" xlink:title="UNIT"><polygon fill="#fff" stroke="#000" points="239 -324 185 -324 185 -288 239 -288 239 -324"/><text x="212" y="-303.5" font-family="Helvetica,sans-Serif" font-size="10" text-anchor="middle">UNIT</text></a></g></g><g id="edge4" class="edge"><title>dir_6fc87decd8cffc07e5f49c197ca3de10-&gt;dir_445738e6fed662d0b65e690e3f1e1de0</title><path fill="none" stroke="#000" d="M214.719,-287.697C215.931,-279.983 217.388,-270.712 218.739,-262.112"/><polygon fill="#000" stroke="#000" points="222.217 -262.526 220.312 -252.104 215.302 -261.44 222.217 -262.526"/><g id="a_edge4-headlabel"><a target="_top" xlink:href="dir_000070_000063.xhtml" xlink:title="1"><text x="224.464" y="-264.018" font-family="Helvetica,sans-Serif" font-size="10" text-anchor="middle">1</text></a></g></g><g id="edge5" class="edge"><title>dir_6fc87decd8cffc07e5f49c197ca3de10-&gt;dir_9e71e2da941d3cafc4d98a9f6ae3de4f</title><path fill="none" stroke="#000" d="M197.525,-287.871C176.533,-263.031 137.504,-216.846 113.246,-188.142"/><polygon fill="#000" stroke="#000" points="115.654 -185.568 106.526 -180.189 110.307 -190.086 115.654 -185.568"/><g id="a_edge5-headlabel"><a target="_top" xlink:href="dir_000070_000021.xhtml" xlink:title="4"><text x="120.143" y="-183.981" font-family="Helvetica,sans-Serif" font-size="10" text-anchor="middle">4</text></a></g></g><g id="edge6" class="edge"><title>dir_6fc87decd8cffc07e5f49c197ca3de10-&gt;dir_214608ef36d61442cb2b0c1c4e9a7def</title><path fill="none" stroke="#000" d="M233.267,-287.701C243.109,-278.305 253.763,-265.798 259,-252 264.677,-237.041 263.992,-231.201 259,-216 245.674,-175.417 212.446,-138.344 188.149,-115.293"/><polygon fill="#000" stroke="#000" points="190.327 -112.54 180.61 -108.316 185.572 -117.677 190.327 -112.54"/><g id="a_edge6-headlabel"><a target="_top" xlink:href="dir_000070_000000.xhtml" xlink:title="11"><text x="194.893" y="-110.398" font-family="Helvetica,sans-Serif" font-size="10" text-anchor="middle">11</text></a></g></g><g id="node7" class="node"><title>dir_5815af820a9cc9481f1d0990a0d60286</title><g id="a_node7"><a target="_top" xlink:href="dir_5815af820a9cc9481f1d0990a0d60286.xhtml" xlink:title="support"><polygon fill="none" stroke="#000" points="187 -36 133 -36 133 0 187 0 187 -36"/><text x="160" y="-15.5" font-family="Helvetica,sans-Serif" font-size="10" text-anchor="middle">support</text></a></g></g><g id="edge7" class="edge"><title>dir_6fc87decd8cffc07e5f49c197ca3de10-&gt;dir_5815af820a9cc9481f1d0990a0d60286</title><path fill="none" stroke="#000" d="M239.096,-290.388C252.887,-281.337 268.326,-268.319 276,-252 282.809,-237.521 278.414,-231.817 276,-216 265.884,-149.715 269.753,-126.719 231,-72 221.827,-59.0471 208.513,-47.9253 195.887,-39.2629"/><polygon fill="#000" stroke="#000" points="197.602 -36.203 187.315 -33.666 193.775 -42.064 197.602 -36.203"/><g id="a_edge7-headlabel"><a target="_top" xlink:href="dir_000070_000053.xhtml" xlink:title="2"><text x="202.164" y="-33.29" font-family="Helvetica,sans-Serif" font-size="10" text-anchor="middle">2</text></a></g></g><g id="edge1" class="edge"><title>dir_46fdb196cebdbffe77dac340cde62f29-&gt;dir_9e71e2da941d3cafc4d98a9f6ae3de4f</title><path fill="none" stroke="#000" d="M46.0787,-215.697C53.3917,-207.305 62.31,-197.07 70.3351,-187.861"/><polygon fill="#000" stroke="#000" points="73.164 -189.943 77.095 -180.104 67.886 -185.344 73.164 -189.943"/><g id="a_edge1-headlabel"><a target="_top" xlink:href="dir_000022_000021.xhtml" xlink:title="3"><text x="72.943" y="-192.018" font-family="Helvetica,sans-Serif" font-size="10" text-anchor="middle">3</text></a></g></g><g id="edge2" class="edge"><title>dir_46fdb196cebdbffe77dac340cde62f29-&gt;dir_214608ef36d61442cb2b0c1c4e9a7def</title><path fill="none" stroke="#000" d="M30.1429,-215.735C30.0817,-196.308 32.8082,-164.758 49,-144 63.7498,-125.091 86.9192,-112.572 108.283,-104.477"/><polygon fill="#000" stroke="#000" points="109.675 -107.697 117.935 -101.061 107.34 -101.098 109.675 -107.697"/><g id="a_edge2-headlabel"><a target="_top" xlink:href="dir_000022_000000.xhtml" xlink:title="49"><text x="107.234" y="-109.072" font-family="Helvetica,sans-Serif" font-size="10" text-anchor="middle">49</text></a></g></g><g id="edge3" class="edge"><title>dir_46fdb196cebdbffe77dac340cde62f29-&gt;dir_5815af820a9cc9481f1d0990a0d60286</title><path fill="none" stroke="#000" d="M27.216,-215.956C23.9373,-197.551 20.994,-167.688 30,-144 47.3921,-98.2553 92.0089,-61.7721 124.122,-40.2941"/><polygon fill="#000" stroke="#000" points="126.341 -43.026 132.815 -34.639 122.524 -37.158 126.341 -43.026"/><g id="a_edge3-headlabel"><a target="_top" xlink:href="dir_000022_000053.xhtml" xlink:title="2"><text x="124.876" y="-44.866" font-family="Helvetica,sans-Serif" font-size="10" text-anchor="middle">2</text></a></g></g><g id="edge8" class="edge"><title>dir_445738e6fed662d0b65e690e3f1e1de0-&gt;dir_214608ef36d61442cb2b0c1c4e9a7def</title><path fill="none" stroke="#000" d="M215.401,-215.871C204.569,-191.457 184.59,-146.426 171.817,-117.635"/><polygon fill="#000" stroke="#000" points="174.881 -115.911 167.626 -108.189 168.482 -118.749 174.881 -115.911"/><g id="a_edge8-headlabel"><a target="_top" xlink:href="dir_000063_000000.xhtml" xlink:title="6"><text x="178.934" y="-115.545" font-family="Helvetica,sans-Serif" font-size="10" text-anchor="middle">6</text></a></g></g><g id="edge9" class="edge"><title>dir_445738e6fed662d0b65e690e3f1e1de0-&gt;dir_5815af820a9cc9481f1d0990a0d60286</title><path fill="none" stroke="#000" d="M225.406,-215.627C228.855,-185.07 232.615,-120.364 211,-72 206.213,-61.289 198.293,-51.4396 190.106,-43.2131"/><polygon fill="#000" stroke="#000" points="192.273 -40.446 182.594 -36.136 187.473 -45.541 192.273 -40.446"/><g id="a_edge9-headlabel"><a target="_top" xlink:href="dir_000063_000053.xhtml" xlink:title="1"><text x="196.836" y="-38.344" font-family="Helvetica,sans-Serif" font-size="10" text-anchor="middle">1</text></a></g></g><g id="edge10" class="edge"><title>dir_9e71e2da941d3cafc4d98a9f6ae3de4f-&gt;dir_214608ef36d61442cb2b0c1c4e9a7def</title><path fill="none" stroke="#000" d="M108.809,-143.697C117.126,-135.135 127.305,-124.656 136.39,-115.304"/><polygon fill="#000" stroke="#000" points="138.927 -117.716 143.384 -108.104 133.906 -112.838 138.927 -117.716"/><g id="a_edge10-headlabel"><a target="_top" xlink:href="dir_000021_000000.xhtml" xlink:title="13"><text x="138.459" y="-119.773" font-family="Helvetica,sans-Serif" font-size="10" text-anchor="middle">13</text></a></g></g><g id="edge11" class="edge"><title>dir_9e71e2da941d3cafc4d98a9f6ae3de4f-&gt;dir_5815af820a9cc9481f1d0990a0d60286</title><path fill="none" stroke="#000" d="M92.3958,-143.996C93.4584,-125.362 97.0728,-95.053 109,-72 114.436,-61.4931 122.616,-51.65 130.843,-43.3662"/><polygon fill="#000" stroke="#000" points="133.512 -45.657 138.334 -36.223 128.681 -40.591 133.512 -45.657"/><g id="a_edge11-headlabel"><a target="_top" xlink:href="dir_000021_000053.xhtml" xlink:title="7"><text x="132.871" y="-47.693" font-family="Helvetica,sans-Serif" font-size="10" text-anchor="middle">7</text></a></g></g><g id="edge12" class="edge"><title>dir_214608ef36d61442cb2b0c1c4e9a7def-&gt;dir_5815af820a9cc9481f1d0990a0d60286</title><path fill="none" stroke="#000" d="M160,-71.6966C160,-63.9827 160,-54.7125 160,-46.1124"/><polygon fill="#000" stroke="#000" points="163.5 -46.104 160 -36.104 156.5 -46.104 163.5 -46.104"/><g id="a_edge12-headlabel"><a target="_top" xlink:href="dir_000000_000053.xhtml" xlink:title="20"><text x="166.339" y="-47.199" font-family="Helvetica,sans-Serif" font-size="10" text-anchor="middle">20</text></a></g></g></g></svg>