<svg xmlns="http://www.w3.org/2000/svg" xmlns:xlink="http://www.w3.org/1999/xlink" width="116pt" height="244" viewBox="0 0 116 183"><g id="graph0" class="graph" transform="scale(1 1) rotate(0) translate(4 179)"><title>arm_compute/core/NEON/wrapper</title><polygon fill="#fff" stroke="none" points="-4 4 -4 -179 112 -179 112 4 -4 4"/><g id="clust1" class="cluster"><title>clusterdir_315f6cf1ec0b2df3ae747ff8286a19f5</title><g id="a_clust1"><a target="_top" xlink:href="dir_315f6cf1ec0b2df3ae747ff8286a19f5.xhtml" xlink:title="NEON"><polygon fill="#dde" stroke="#000" points="8 -8 8 -167 100 -167 100 -8 8 -8"/><text x="54" y="-155" font-family="Helvetica,sans-Serif" font-size="10" text-anchor="middle">NEON</text></a></g></g><g id="clust2" class="cluster"><title>clusterdir_9eca3c725728e372597fcd0d17c1ea0f</title><g id="a_clust2"><a target="_top" xlink:href="dir_9eca3c725728e372597fcd0d17c1ea0f.xhtml"><polygon fill="#eef" stroke="#000" points="16 -16 16 -140 92 -140 92 -16 16 -16"/></a></g></g><g id="node1" class="node"><title>dir_9eca3c725728e372597fcd0d17c1ea0f</title><text x="54" y="-111.5" font-family="Helvetica,sans-Serif" font-size="10" text-anchor="middle">wrapper</text></g><g id="node2" class="node"><title>dir_36bd1941057d7130e210a25993eacc69</title><g id="a_node2"><a target="_top" xlink:href="dir_36bd1941057d7130e210a25993eacc69.xhtml" xlink:title="intrinsics"><polygon fill="#fff" stroke="#000" points="83.5 -60 24.5 -60 24.5 -24 83.5 -24 83.5 -60"/><text x="54" y="-39.5" font-family="Helvetica,sans-Serif" font-size="10" text-anchor="middle">intrinsics</text></a></g></g><g id="edge1" class="edge"><title>dir_9eca3c725728e372597fcd0d17c1ea0f-&gt;dir_36bd1941057d7130e210a25993eacc69</title><path fill="none" stroke="#000" d="M54,-95.6966C54,-87.9827 54,-78.7125 54,-70.1124"/><polygon fill="#000" stroke="#000" points="57.5 -70.104 54 -60.104 50.5 -70.104 57.5 -70.104"/><g id="a_edge1-headlabel"><a target="_top" xlink:href="dir_000015_000016.xhtml" xlink:title="1"><text x="60.339" y="-71.199" font-family="Helvetica,sans-Serif" font-size="10" text-anchor="middle">1</text></a></g></g></g></svg>