<svg xmlns="http://www.w3.org/2000/svg" xmlns:xlink="http://www.w3.org/1999/xlink" width="368pt" height="308" viewBox="0 0 368 231"><g id="graph0" class="graph" transform="scale(1 1) rotate(0) translate(4 227)"><title>arm_compute/core</title><polygon fill="#fff" stroke="none" points="-4 4 -4 -227 364 -227 364 4 -4 4"/><g id="clust1" class="cluster"><title>clusterdir_214608ef36d61442cb2b0c1c4e9a7def</title><g id="a_clust1"><a target="_top" xlink:href="dir_214608ef36d61442cb2b0c1c4e9a7def.xhtml" xlink:title="arm_compute"><polygon fill="#dde" stroke="#000" points="8 -56 8 -215 352 -215 352 -56 8 -56"/><text x="180" y="-203" font-family="Helvetica,sans-Serif" font-size="10" text-anchor="middle">arm_compute</text></a></g></g><g id="clust2" class="cluster"><title>clusterdir_1fb090f0c6070330bfaccc4236d3ca0d</title><g id="a_clust2"><a target="_top" xlink:href="dir_1fb090f0c6070330bfaccc4236d3ca0d.xhtml"><polygon fill="#eef" stroke="#000" points="16 -64 16 -188 344 -188 344 -64 16 -64"/></a></g></g><g id="node1" class="node"><title>dir_1fb090f0c6070330bfaccc4236d3ca0d</title><text x="51" y="-159.5" font-family="Helvetica,sans-Serif" font-size="10" text-anchor="middle">core</text></g><g id="node6" class="node"><title>dir_7b0825b7536eda12b63e5d87347b1c7d</title><g id="a_node6"><a target="_top" xlink:href="dir_7b0825b7536eda12b63e5d87347b1c7d.xhtml" xlink:title="utils"><polygon fill="#fff" stroke="red" points="78 -108 24 -108 24 -72 78 -72 78 -108"/><text x="51" y="-87.5" font-family="Helvetica,sans-Serif" font-size="10" text-anchor="middle">utils</text></a></g></g><g id="edge1" class="edge"><title>dir_1fb090f0c6070330bfaccc4236d3ca0d-&gt;dir_7b0825b7536eda12b63e5d87347b1c7d</title><path fill="none" stroke="#000" d="M51,-143.697C51,-135.983 51,-126.712 51,-118.112"/><polygon fill="#000" stroke="#000" points="54.5 -118.104 51 -108.104 47.5 -118.104 54.5 -118.104"/><g id="a_edge1-headlabel"><a target="_top" xlink:href="dir_000001_000008.xhtml" xlink:title="6"><text x="57.339" y="-119.199" font-family="Helvetica,sans-Serif" font-size="10" text-anchor="middle">6</text></a></g></g><g id="node2" class="node"><title>dir_1633709b037eda5b8477677909f78129</title><g id="a_node2"><a target="_top" xlink:href="dir_1633709b037eda5b8477677909f78129.xhtml" xlink:title="CL"><polygon fill="#fff" stroke="red" points="336 -180 282 -180 282 -144 336 -144 336 -180"/><text x="309" y="-159.5" font-family="Helvetica,sans-Serif" font-size="10" text-anchor="middle">CL</text></a></g></g><g id="node7" class="node"><title>dir_5815af820a9cc9481f1d0990a0d60286</title><g id="a_node7"><a target="_top" xlink:href="dir_5815af820a9cc9481f1d0990a0d60286.xhtml" xlink:title="support"><polygon fill="none" stroke="#000" points="205 -36 151 -36 151 0 205 0 205 -36"/><text x="178" y="-15.5" font-family="Helvetica,sans-Serif" font-size="10" text-anchor="middle">support</text></a></g></g><g id="edge4" class="edge"><title>dir_1633709b037eda5b8477677909f78129-&gt;dir_5815af820a9cc9481f1d0990a0d60286</title><path fill="none" stroke="#000" d="M293.458,-143.823C274.546,-122.962 241.595,-86.748 213,-56 209.331,-52.0543 205.425,-47.8906 201.603,-43.8362"/><polygon fill="#000" stroke="#000" points="203.855 -41.123 194.442 -36.26 198.768 -45.932 203.855 -41.123"/><g id="a_edge4-headlabel"><a target="_top" xlink:href="dir_000002_000053.xhtml" xlink:title="1"><text x="208.388" y="-39.285" font-family="Helvetica,sans-Serif" font-size="10" text-anchor="middle">1</text></a></g></g><g id="node3" class="node"><title>dir_7484b841a86f2d7fdd057c9b24fbf230</title><g id="a_node3"><a target="_top" xlink:href="dir_7484b841a86f2d7fdd057c9b24fbf230.xhtml" xlink:title="CPP"><polygon fill="#fff" stroke="red" points="150 -180 96 -180 96 -144 150 -144 150 -180"/><text x="123" y="-159.5" font-family="Helvetica,sans-Serif" font-size="10" text-anchor="middle">CPP</text></a></g></g><g id="node5" class="node"><title>dir_315f6cf1ec0b2df3ae747ff8286a19f5</title><g id="a_node5"><a target="_top" xlink:href="dir_315f6cf1ec0b2df3ae747ff8286a19f5.xhtml" xlink:title="NEON"><polygon fill="#fff" stroke="red" points="150 -108 96 -108 96 -72 150 -72 150 -108"/><text x="123" y="-87.5" font-family="Helvetica,sans-Serif" font-size="10" text-anchor="middle">NEON</text></a></g></g><g id="edge7" class="edge"><title>dir_7484b841a86f2d7fdd057c9b24fbf230-&gt;dir_315f6cf1ec0b2df3ae747ff8286a19f5</title><path fill="none" stroke="#000" d="M117.084,-143.697C116.289,-135.983 116.062,-126.712 116.405,-118.112"/><polygon fill="#000" stroke="#000" points="119.898 -118.324 117.105 -108.104 112.915 -117.836 119.898 -118.324"/><g id="a_edge7-headlabel"><a target="_top" xlink:href="dir_000004_000012.xhtml" xlink:title="2"><text x="122.48" y="-119.608" font-family="Helvetica,sans-Serif" font-size="10" text-anchor="middle">2</text></a></g></g><g id="edge8" class="edge"><title>dir_7484b841a86f2d7fdd057c9b24fbf230-&gt;dir_5815af820a9cc9481f1d0990a0d60286</title><path fill="none" stroke="#000" d="M137.165,-143.851C144.69,-133.93 153.497,-120.89 159,-108 167.413,-88.2932 172.245,-64.4881 174.928,-46.4579"/><polygon fill="#000" stroke="#000" points="178.427 -46.705 176.303 -36.325 171.49 -45.764 178.427 -46.705"/><g id="a_edge8-headlabel"><a target="_top" xlink:href="dir_000004_000053.xhtml" xlink:title="1"><text x="180.757" y="-48.149" font-family="Helvetica,sans-Serif" font-size="10" text-anchor="middle">1</text></a></g></g><g id="node4" class="node"><title>dir_541ebbb21ca179b54b469d645ff46bd9</title><g id="a_node4"><a target="_top" xlink:href="dir_541ebbb21ca179b54b469d645ff46bd9.xhtml" xlink:title="GLES_COMPUTE"><polygon fill="#fff" stroke="red" points="263.5 -180 168.5 -180 168.5 -144 263.5 -144 263.5 -180"/><text x="216" y="-159.5" font-family="Helvetica,sans-Serif" font-size="10" text-anchor="middle">GLES_COMPUTE</text></a></g></g><g id="edge2" class="edge"><title>dir_541ebbb21ca179b54b469d645ff46bd9-&gt;dir_5815af820a9cc9481f1d0990a0d60286</title><path fill="none" stroke="#000" d="M212.805,-143.716C208.757,-122.749 201.188,-86.432 192,-56 190.976,-52.6098 189.797,-49.0843 188.567,-45.6154"/><polygon fill="#000" stroke="#000" points="191.813 -44.303 185.049 -36.149 185.251 -46.742 191.813 -44.303"/><g id="a_edge2-headlabel"><a target="_top" xlink:href="dir_000006_000053.xhtml" xlink:title="1"><text x="195.726" y="-44.184" font-family="Helvetica,sans-Serif" font-size="10" text-anchor="middle">1</text></a></g></g><g id="edge6" class="edge"><title>dir_315f6cf1ec0b2df3ae747ff8286a19f5-&gt;dir_7484b841a86f2d7fdd057c9b24fbf230</title><path fill="none" stroke="#000" d="M128.895,-108.104C129.701,-115.791 129.937,-125.054 129.604,-133.665"/><polygon fill="#000" stroke="#000" points="126.109 -133.48 128.916 -143.697 133.092 -133.96 126.109 -133.48"/><g id="a_edge6-headlabel"><a target="_top" xlink:href="dir_000012_000004.xhtml" xlink:title="4"><text x="123.522" y="-127.2" font-family="Helvetica,sans-Serif" font-size="10" text-anchor="middle">4</text></a></g></g><g id="edge5" class="edge"><title>dir_315f6cf1ec0b2df3ae747ff8286a19f5-&gt;dir_5815af820a9cc9481f1d0990a0d60286</title><path fill="none" stroke="#000" d="M136.596,-71.6966C143.123,-63.3893 151.068,-53.2771 158.247,-44.1407"/><polygon fill="#000" stroke="#000" points="161.135 -46.13 164.561 -36.104 155.631 -41.805 161.135 -46.13"/><g id="a_edge5-headlabel"><a target="_top" xlink:href="dir_000012_000053.xhtml" xlink:title="5"><text x="161.147" y="-48.211" font-family="Helvetica,sans-Serif" font-size="10" text-anchor="middle">5</text></a></g></g><g id="edge3" class="edge"><title>dir_7b0825b7536eda12b63e5d87347b1c7d-&gt;dir_5815af820a9cc9481f1d0990a0d60286</title><path fill="none" stroke="#000" d="M67.188,-71.8818C73.0568,-66.3193 79.9782,-60.4422 87,-56 103.747,-45.4056 124.039,-36.806 141.207,-30.573"/><polygon fill="#000" stroke="#000" points="142.622 -33.786 150.905 -27.179 140.31 -27.179 142.622 -33.786"/><g id="a_edge3-headlabel"><a target="_top" xlink:href="dir_000008_000053.xhtml" xlink:title="3"><text x="140.167" y="-35.153" font-family="Helvetica,sans-Serif" font-size="10" text-anchor="middle">3</text></a></g></g></g></svg>