<svg xmlns="http://www.w3.org/2000/svg" xmlns:xlink="http://www.w3.org/1999/xlink" width="379pt" height="500" viewBox="0 0 379.5 375"><g id="graph0" class="graph" transform="scale(1 1) rotate(0) translate(4 371)"><title>tests/framework</title><polygon fill="#fff" stroke="none" points="-4 4 -4 -371 375.499 -371 375.499 4 -4 4"/><g id="clust1" class="cluster"><title>clusterdir_59425e443f801f1f2fd8bbe4959a3ccf</title><g id="a_clust1"><a target="_top" xlink:href="dir_59425e443f801f1f2fd8bbe4959a3ccf.xhtml" xlink:title="tests"><polygon fill="#dde" stroke="#000" points="8 -128 8 -359 290 -359 290 -128 8 -128"/><text x="149" y="-347" font-family="Helvetica,sans-Serif" font-size="10" text-anchor="middle">tests</text></a></g></g><g id="clust2" class="cluster"><title>clusterdir_9e71e2da941d3cafc4d98a9f6ae3de4f</title><g id="a_clust2"><a target="_top" xlink:href="dir_9e71e2da941d3cafc4d98a9f6ae3de4f.xhtml"><polygon fill="#eef" stroke="#000" points="16 -136 16 -332 282 -332 282 -136 16 -136"/></a></g></g><g id="node1" class="node"><title>dir_9e71e2da941d3cafc4d98a9f6ae3de4f</title><text x="240" y="-303.5" font-family="Helvetica,sans-Serif" font-size="10" text-anchor="middle">framework</text></g><g id="node2" class="node"><title>dir_d247c927d0dc22626cf668ab2bd7f080</title><g id="a_node2"><a target="_top" xlink:href="dir_d247c927d0dc22626cf668ab2bd7f080.xhtml" xlink:title="command_line"><polygon fill="#fff" stroke="#000" points="111.5 -324 24.5 -324 24.5 -288 111.5 -288 111.5 -324"/><text x="68" y="-303.5" font-family="Helvetica,sans-Serif" font-size="10" text-anchor="middle">command_line</text></a></g></g><g id="node4" class="node"><title>dir_4efd0ee2ecda32567e74991b08d544ea</title><g id="a_node4"><a target="_top" xlink:href="dir_4efd0ee2ecda32567e74991b08d544ea.xhtml" xlink:title="instruments"><polygon fill="#fff" stroke="#000" points="151 -180 77 -180 77 -144 151 -144 151 -180"/><text x="114" y="-159.5" font-family="Helvetica,sans-Serif" font-size="10" text-anchor="middle">instruments</text></a></g></g><g id="edge4" class="edge"><title>dir_d247c927d0dc22626cf668ab2bd7f080-&gt;dir_4efd0ee2ecda32567e74991b08d544ea</title><path fill="none" stroke="#000" d="M67.5193,-287.708C67.5578,-269.352 69.2078,-239.77 78,-216 81.5513,-206.399 87.2018,-196.851 92.9832,-188.559"/><polygon fill="#000" stroke="#000" points="95.863 -190.552 98.973 -180.424 90.226 -186.402 95.863 -190.552"/><g id="a_edge4-headlabel"><a target="_top" xlink:href="dir_000064_000066.xhtml" xlink:title="1"><text x="96.018" y="-192.63" font-family="Helvetica,sans-Serif" font-size="10" text-anchor="middle">1</text></a></g></g><g id="node5" class="node"><title>dir_68cb0bded1cc5601c88ddaacbb31e482</title><g id="a_node5"><a target="_top" xlink:href="dir_68cb0bded1cc5601c88ddaacbb31e482.xhtml" xlink:title="printers"><polygon fill="#fff" stroke="#000" points="141 -252 87 -252 87 -216 141 -216 141 -252"/><text x="114" y="-231.5" font-family="Helvetica,sans-Serif" font-size="10" text-anchor="middle">printers</text></a></g></g><g id="edge2" class="edge"><title>dir_d247c927d0dc22626cf668ab2bd7f080-&gt;dir_68cb0bded1cc5601c88ddaacbb31e482</title><path fill="none" stroke="#000" d="M79.3708,-287.697C84.7185,-279.559 91.2043,-269.689 97.1106,-260.701"/><polygon fill="#000" stroke="#000" points="100.193 -262.384 102.76 -252.104 94.343 -258.539 100.193 -262.384"/><g id="a_edge2-headlabel"><a target="_top" xlink:href="dir_000064_000026.xhtml" xlink:title="1"><text x="100.592" y="-264.447" font-family="Helvetica,sans-Serif" font-size="10" text-anchor="middle">1</text></a></g></g><g id="node6" class="node"><title>dir_cbdb8362360e11eafe2fa3bc74cf0ffd</title><g id="a_node6"><a target="_top" xlink:href="dir_cbdb8362360e11eafe2fa3bc74cf0ffd.xhtml" xlink:title="utils"><polygon fill="#fff" stroke="red" points="352 -180 298 -180 298 -144 352 -144 352 -180"/><text x="325" y="-159.5" font-family="Helvetica,sans-Serif" font-size="10" text-anchor="middle">utils</text></a></g></g><g id="edge3" class="edge"><title>dir_d247c927d0dc22626cf668ab2bd7f080-&gt;dir_cbdb8362360e11eafe2fa3bc74cf0ffd</title><path fill="none" stroke="#000" d="M99.0002,-287.871C146.759,-261.483 238.109,-211.01 288.82,-182.99"/><polygon fill="#000" stroke="#000" points="290.737 -185.93 297.797 -178.031 287.351 -179.803 290.737 -185.93"/><g id="a_edge3-headlabel"><a target="_top" xlink:href="dir_000064_000023.xhtml" xlink:title="2"><text x="288.963" y="-187.654" font-family="Helvetica,sans-Serif" font-size="10" text-anchor="middle">2</text></a></g></g><g id="node3" class="node"><title>dir_0dd7887818bb8d90732685575a13f58a</title><g id="a_node3"><a target="_top" xlink:href="dir_0dd7887818bb8d90732685575a13f58a.xhtml" xlink:title="datasets"><polygon fill="#fff" stroke="#000" points="188.5 -324 129.5 -324 129.5 -288 188.5 -288 188.5 -324"/><text x="159" y="-303.5" font-family="Helvetica,sans-Serif" font-size="10" text-anchor="middle">datasets</text></a></g></g><g id="edge10" class="edge"><title>dir_0dd7887818bb8d90732685575a13f58a-&gt;dir_cbdb8362360e11eafe2fa3bc74cf0ffd</title><path fill="none" stroke="#000" d="M188.665,-288.542C205.079,-278.838 225.445,-265.783 242,-252 265.338,-232.57 288.633,-206.903 304.577,-188.127"/><polygon fill="#000" stroke="#000" points="307.407 -190.199 311.149 -180.287 302.043 -185.703 307.407 -190.199"/><g id="a_edge10-headlabel"><a target="_top" xlink:href="dir_000065_000023.xhtml" xlink:title="1"><text x="307.274" y="-192.278" font-family="Helvetica,sans-Serif" font-size="10" text-anchor="middle">1</text></a></g></g><g id="node8" class="node"><title>dir_5815af820a9cc9481f1d0990a0d60286</title><g id="a_node8"><a target="_top" xlink:href="dir_5815af820a9cc9481f1d0990a0d60286.xhtml" xlink:title="support"><polygon fill="none" stroke="#000" points="369 -36 315 -36 315 0 369 0 369 -36"/><text x="342" y="-15.5" font-family="Helvetica,sans-Serif" font-size="10" text-anchor="middle">support</text></a></g></g><g id="edge11" class="edge"><title>dir_0dd7887818bb8d90732685575a13f58a-&gt;dir_5815af820a9cc9481f1d0990a0d60286</title><path fill="none" stroke="#000" d="M188.747,-291.522C221.499,-276.647 270.081,-254.466 274,-252 316.482,-225.272 339.634,-225.416 361,-180 381.522,-136.378 366.077,-79.0566 353.608,-45.8945"/><polygon fill="#000" stroke="#000" points="356.797 -44.442 349.876 -36.42 350.284 -47.007 356.797 -44.442"/><g id="a_edge11-headlabel"><a target="_top" xlink:href="dir_000065_000053.xhtml" xlink:title="3"><text x="360.756" y="-44.246" font-family="Helvetica,sans-Serif" font-size="10" text-anchor="middle">3</text></a></g></g><g id="node7" class="node"><title>dir_214608ef36d61442cb2b0c1c4e9a7def</title><g id="a_node7"><a target="_top" xlink:href="dir_214608ef36d61442cb2b0c1c4e9a7def.xhtml" xlink:title="arm_compute"><polygon fill="#fff" stroke="red" points="314 -108 230 -108 230 -72 314 -72 314 -108"/><text x="272" y="-87.5" font-family="Helvetica,sans-Serif" font-size="10" text-anchor="middle">arm_compute</text></a></g></g><g id="edge9" class="edge"><title>dir_4efd0ee2ecda32567e74991b08d544ea-&gt;dir_214608ef36d61442cb2b0c1c4e9a7def</title><path fill="none" stroke="#000" d="M151.044,-144.588C172.849,-134.928 200.662,-122.606 224.118,-112.213"/><polygon fill="#000" stroke="#000" points="225.813 -115.291 233.538 -108.04 222.978 -108.891 225.813 -115.291"/><g id="a_edge9-headlabel"><a target="_top" xlink:href="dir_000066_000000.xhtml" xlink:title="13"><text x="223.677" y="-116.843" font-family="Helvetica,sans-Serif" font-size="10" text-anchor="middle">13</text></a></g></g><g id="edge1" class="edge"><title>dir_68cb0bded1cc5601c88ddaacbb31e482-&gt;dir_4efd0ee2ecda32567e74991b08d544ea</title><path fill="none" stroke="#000" d="M114,-215.697C114,-207.983 114,-198.712 114,-190.112"/><polygon fill="#000" stroke="#000" points="117.5 -190.104 114 -180.104 110.5 -190.104 117.5 -190.104"/><g id="a_edge1-headlabel"><a target="_top" xlink:href="dir_000026_000066.xhtml" xlink:title="3"><text x="120.339" y="-191.199" font-family="Helvetica,sans-Serif" font-size="10" text-anchor="middle">3</text></a></g></g><g id="edge5" class="edge"><title>dir_cbdb8362360e11eafe2fa3bc74cf0ffd-&gt;dir_214608ef36d61442cb2b0c1c4e9a7def</title><path fill="none" stroke="#000" d="M305.983,-143.697C298.909,-135.474 291.143,-125.483 284.727,-116.421"/><polygon fill="#000" stroke="#000" points="287.581 -114.394 279.055 -108.104 281.798 -118.338 287.581 -114.394"/><g id="a_edge5-headlabel"><a target="_top" xlink:href="dir_000023_000000.xhtml" xlink:title="36"><text x="291.952" y="-113.264" font-family="Helvetica,sans-Serif" font-size="10" text-anchor="middle">36</text></a></g></g><g id="edge6" class="edge"><title>dir_cbdb8362360e11eafe2fa3bc74cf0ffd-&gt;dir_5815af820a9cc9481f1d0990a0d60286</title><path fill="none" stroke="#000" d="M327.051,-143.871C329.948,-119.67 335.271,-75.2108 338.721,-46.3932"/><polygon fill="#000" stroke="#000" points="342.229 -46.534 339.942 -36.189 335.278 -45.702 342.229 -46.534"/><g id="a_edge6-headlabel"><a target="_top" xlink:href="dir_000023_000053.xhtml" xlink:title="3"><text x="344.62" y="-47.941" font-family="Helvetica,sans-Serif" font-size="10" text-anchor="middle">3</text></a></g></g><g id="edge7" class="edge"><title>dir_214608ef36d61442cb2b0c1c4e9a7def-&gt;dir_cbdb8362360e11eafe2fa3bc74cf0ffd</title><path fill="none" stroke="#000" d="M290.845,-108.104C297.908,-116.298 305.679,-126.282 312.117,-135.359"/><polygon fill="#000" stroke="#000" points="309.283 -137.415 317.815 -143.697 315.062 -133.466 309.283 -137.415"/><g id="a_edge7-headlabel"><a target="_top" xlink:href="dir_000000_000023.xhtml" xlink:title="1"><text x="304.91" y="-133.549" font-family="Helvetica,sans-Serif" font-size="10" text-anchor="middle">1</text></a></g></g><g id="edge8" class="edge"><title>dir_214608ef36d61442cb2b0c1c4e9a7def-&gt;dir_5815af820a9cc9481f1d0990a0d60286</title><path fill="none" stroke="#000" d="M289.303,-71.6966C297.865,-63.135 308.344,-52.6562 317.696,-43.3045"/><polygon fill="#000" stroke="#000" points="320.299 -45.65 324.896 -36.104 315.35 -40.7 320.299 -45.65"/><g id="a_edge8-headlabel"><a target="_top" xlink:href="dir_000000_000053.xhtml" xlink:title="20"><text x="319.765" y="-47.7" font-family="Helvetica,sans-Serif" font-size="10" text-anchor="middle">20</text></a></g></g></g></svg>