<svg xmlns="http://www.w3.org/2000/svg" xmlns:xlink="http://www.w3.org/1999/xlink" width="116pt" height="404" viewBox="0 0 116 303"><g id="graph0" class="graph" transform="scale(1 1) rotate(0) translate(4 299)"><title>arm_compute/runtime/NEON</title><polygon fill="#fff" stroke="none" points="-4 4 -4 -299 112 -299 112 4 -4 4"/><g id="clust1" class="cluster"><title>clusterdir_8bc26130589aa16388b5a02f17abf2c2</title><g id="a_clust1"><a target="_top" xlink:href="dir_8bc26130589aa16388b5a02f17abf2c2.xhtml" xlink:title="runtime"><polygon fill="#dde" stroke="#000" points="8 -128 8 -287 100 -287 100 -128 8 -128"/><text x="54" y="-275" font-family="Helvetica,sans-Serif" font-size="10" text-anchor="middle">runtime</text></a></g></g><g id="clust2" class="cluster"><title>clusterdir_65e289039e1347f87d412b0a1b1a312c</title><g id="a_clust2"><a target="_top" xlink:href="dir_65e289039e1347f87d412b0a1b1a312c.xhtml"><polygon fill="#eef" stroke="#000" points="16 -136 16 -260 92 -260 92 -136 16 -136"/></a></g></g><g id="node1" class="node"><title>dir_65e289039e1347f87d412b0a1b1a312c</title><text x="54" y="-231.5" font-family="Helvetica,sans-Serif" font-size="10" text-anchor="middle">NEON</text></g><g id="node2" class="node"><title>dir_345bd7154d1542d1e03fd2836959a19d</title><g id="a_node2"><a target="_top" xlink:href="dir_345bd7154d1542d1e03fd2836959a19d.xhtml" xlink:title="functions"><polygon fill="#fff" stroke="red" points="84 -180 24 -180 24 -144 84 -144 84 -180"/><text x="54" y="-159.5" font-family="Helvetica,sans-Serif" font-size="10" text-anchor="middle">functions</text></a></g></g><g id="edge3" class="edge"><title>dir_65e289039e1347f87d412b0a1b1a312c-&gt;dir_345bd7154d1542d1e03fd2836959a19d</title><path fill="none" stroke="#000" d="M54,-215.697C54,-207.983 54,-198.712 54,-190.112"/><polygon fill="#000" stroke="#000" points="57.5 -190.104 54 -180.104 50.5 -190.104 57.5 -190.104"/><g id="a_edge3-headlabel"><a target="_top" xlink:href="dir_000044_000045.xhtml" xlink:title="92"><text x="60.339" y="-191.199" font-family="Helvetica,sans-Serif" font-size="10" text-anchor="middle">92</text></a></g></g><g id="node3" class="node"><title>dir_b496024afd63bafbf4e8da80d7d3a81a</title><g id="a_node3"><a target="_top" xlink:href="dir_b496024afd63bafbf4e8da80d7d3a81a.xhtml" xlink:title="CPP"><polygon fill="#fff" stroke="red" points="54 -108 0 -108 0 -72 54 -72 54 -108"/><text x="27" y="-87.5" font-family="Helvetica,sans-Serif" font-size="10" text-anchor="middle">CPP</text></a></g></g><g id="edge1" class="edge"><title>dir_345bd7154d1542d1e03fd2836959a19d-&gt;dir_b496024afd63bafbf4e8da80d7d3a81a</title><path fill="none" stroke="#000" d="M47.3258,-143.697C44.2851,-135.813 40.6173,-126.304 37.2393,-117.546"/><polygon fill="#000" stroke="#000" points="40.462 -116.175 33.597 -108.104 33.931 -118.694 40.462 -116.175"/><g id="a_edge1-headlabel"><a target="_top" xlink:href="dir_000045_000040.xhtml" xlink:title="2"><text x="44.404" y="-116.007" font-family="Helvetica,sans-Serif" font-size="10" text-anchor="middle">2</text></a></g></g><g id="node4" class="node"><title>dir_1fb090f0c6070330bfaccc4236d3ca0d</title><g id="a_node4"><a target="_top" xlink:href="dir_1fb090f0c6070330bfaccc4236d3ca0d.xhtml" xlink:title="core"><polygon fill="#fff" stroke="red" points="81 -36 27 -36 27 0 81 0 81 -36"/><text x="54" y="-15.5" font-family="Helvetica,sans-Serif" font-size="10" text-anchor="middle">core</text></a></g></g><g id="edge2" class="edge"><title>dir_345bd7154d1542d1e03fd2836959a19d-&gt;dir_1fb090f0c6070330bfaccc4236d3ca0d</title><path fill="none" stroke="#000" d="M57.6538,-143.908C59.6758,-133.569 61.9808,-120.09 63,-108 64.3441,-92.0566 64.3441,-87.9434 63,-72 62.2834,-63.4991 60.9311,-54.3119 59.4884,-46.0122"/><polygon fill="#000" stroke="#000" points="62.914 -45.289 57.654 -36.093 56.031 -46.562 62.914 -45.289"/><g id="a_edge2-headlabel"><a target="_top" xlink:href="dir_000045_000001.xhtml" xlink:title="163"><text x="66.36" y="-45.807" font-family="Helvetica,sans-Serif" font-size="10" text-anchor="middle">163</text></a></g></g><g id="edge4" class="edge"><title>dir_b496024afd63bafbf4e8da80d7d3a81a-&gt;dir_1fb090f0c6070330bfaccc4236d3ca0d</title><path fill="none" stroke="#000" d="M33.6742,-71.6966C36.7149,-63.8132 40.3827,-54.3042 43.7607,-45.5464"/><polygon fill="#000" stroke="#000" points="47.069 -46.694 47.403 -36.104 40.538 -44.175 47.069 -46.694"/><g id="a_edge4-headlabel"><a target="_top" xlink:href="dir_000040_000001.xhtml" xlink:title="3"><text x="48.425" y="-48.569" font-family="Helvetica,sans-Serif" font-size="10" text-anchor="middle">3</text></a></g></g></g></svg>