<svg xmlns="http://www.w3.org/2000/svg" xmlns:xlink="http://www.w3.org/1999/xlink" width="152" height="151pt" viewBox="0 0 114 151"><g id="graph0" class="graph" transform="scale(1 1) rotate(0) translate(4 147)"><title>arm_compute/core/utils/strong_type</title><polygon fill="#fff" stroke="none" points="-4 4 -4 -147 110 -147 110 4 -4 4"/><g id="clust1" class="cluster"><title>clusterdir_7b0825b7536eda12b63e5d87347b1c7d</title><g id="a_clust1"><a target="_top" xlink:href="dir_7b0825b7536eda12b63e5d87347b1c7d.xhtml" xlink:title="utils"><polygon fill="#dde" stroke="#000" points="8 -64 8 -135 98 -135 98 -64 8 -64"/><text x="53" y="-123" font-family="Helvetica,sans-Serif" font-size="10" text-anchor="middle">utils</text></a></g></g><g id="node1" class="node"><title>dir_4f17730e234c0f44aa1a4a309fc35bea</title><g id="a_node1"><a target="_top" xlink:href="dir_4f17730e234c0f44aa1a4a309fc35bea.xhtml" xlink:title="strong_type"><polygon fill="#eef" stroke="#000" points="90 -108 16 -108 16 -72 90 -72 90 -108"/><text x="53" y="-87.5" font-family="Helvetica,sans-Serif" font-size="10" text-anchor="middle">strong_type</text></a></g></g><g id="node2" class="node"><title>dir_cab437ca4f6ec1fbc573ae83f91b2654</title><g id="a_node2"><a target="_top" xlink:href="dir_cab437ca4f6ec1fbc573ae83f91b2654.xhtml" xlink:title="misc"><polygon fill="none" stroke="#000" points="80 -36 26 -36 26 0 80 0 80 -36"/><text x="53" y="-15.5" font-family="Helvetica,sans-Serif" font-size="10" text-anchor="middle">misc</text></a></g></g><g id="edge1" class="edge"><title>dir_4f17730e234c0f44aa1a4a309fc35bea-&gt;dir_cab437ca4f6ec1fbc573ae83f91b2654</title><path fill="none" stroke="#000" d="M53,-71.6966C53,-63.9827 53,-54.7125 53,-46.1124"/><polygon fill="#000" stroke="#000" points="56.5 -46.104 53 -36.104 49.5 -46.104 56.5 -46.104"/><g id="a_edge1-headlabel"><a target="_top" xlink:href="dir_000029_000027.xhtml" xlink:title="1"><text x="59.339" y="-47.199" font-family="Helvetica,sans-Serif" font-size="10" text-anchor="middle">1</text></a></g></g></g></svg>