<svg xmlns="http://www.w3.org/2000/svg" xmlns:xlink="http://www.w3.org/1999/xlink" width="202pt" height="295pt" viewBox="0 0 201.77 295"><g id="graph0" class="graph" transform="scale(1 1) rotate(0) translate(4 291)"><title>tests/validation/NEON/UNIT</title><polygon fill="#fff" stroke="none" points="-4 4 -4 -291 197.77 -291 197.77 4 -4 4"/><g id="clust1" class="cluster"><title>clusterdir_0538a82dae0483a21d0f1e9d7e0a45c6</title><g id="a_clust1"><a target="_top" xlink:href="dir_0538a82dae0483a21d0f1e9d7e0a45c6.xhtml" xlink:title="NEON"><polygon fill="#dde" stroke="#000" points="78 -208 78 -279 148 -279 148 -208 78 -208"/><text x="113" y="-267" font-family="Helvetica,sans-Serif" font-size="10" text-anchor="middle">NEON</text></a></g></g><g id="node1" class="node"><title>dir_6fc87decd8cffc07e5f49c197ca3de10</title><g id="a_node1"><a target="_top" xlink:href="dir_6fc87decd8cffc07e5f49c197ca3de10.xhtml" xlink:title="UNIT"><polygon fill="#eef" stroke="#000" points="140 -252 86 -252 86 -216 140 -216 140 -252"/><text x="113" y="-231.5" font-family="Helvetica,sans-Serif" font-size="10" text-anchor="middle">UNIT</text></a></g></g><g id="node2" class="node"><title>dir_445738e6fed662d0b65e690e3f1e1de0</title><g id="a_node2"><a target="_top" xlink:href="dir_445738e6fed662d0b65e690e3f1e1de0.xhtml" xlink:title="NEON"><polygon fill="none" stroke="#000" points="54 -180 0 -180 0 -144 54 -144 54 -180"/><text x="27" y="-159.5" font-family="Helvetica,sans-Serif" font-size="10" text-anchor="middle">NEON</text></a></g></g><g id="edge1" class="edge"><title>dir_6fc87decd8cffc07e5f49c197ca3de10-&gt;dir_445738e6fed662d0b65e690e3f1e1de0</title><path fill="none" stroke="#000" d="M91.7416,-215.697C80.9106,-206.881 67.5822,-196.032 55.8398,-186.474"/><polygon fill="#000" stroke="#000" points="57.979 -183.703 48.014 -180.104 53.56 -189.132 57.979 -183.703"/><g id="a_edge1-headlabel"><a target="_top" xlink:href="dir_000070_000063.xhtml" xlink:title="1"><text x="62.559" y="-181.27" font-family="Helvetica,sans-Serif" font-size="10" text-anchor="middle">1</text></a></g></g><g id="node3" class="node"><title>dir_9e71e2da941d3cafc4d98a9f6ae3de4f</title><g id="a_node3"><a target="_top" xlink:href="dir_9e71e2da941d3cafc4d98a9f6ae3de4f.xhtml" xlink:title="framework"><polygon fill="#fff" stroke="red" points="177.5 -180 110.5 -180 110.5 -144 177.5 -144 177.5 -180"/><text x="144" y="-159.5" font-family="Helvetica,sans-Serif" font-size="10" text-anchor="middle">framework</text></a></g></g><g id="edge2" class="edge"><title>dir_6fc87decd8cffc07e5f49c197ca3de10-&gt;dir_9e71e2da941d3cafc4d98a9f6ae3de4f</title><path fill="none" stroke="#000" d="M120.663,-215.697C124.192,-207.728 128.456,-198.1 132.369,-189.264"/><polygon fill="#000" stroke="#000" points="135.576 -190.665 136.425 -180.104 129.176 -187.831 135.576 -190.665"/><g id="a_edge2-headlabel"><a target="_top" xlink:href="dir_000070_000021.xhtml" xlink:title="4"><text x="136.717" y="-192.602" font-family="Helvetica,sans-Serif" font-size="10" text-anchor="middle">4</text></a></g></g><g id="node4" class="node"><title>dir_214608ef36d61442cb2b0c1c4e9a7def</title><g id="a_node4"><a target="_top" xlink:href="dir_214608ef36d61442cb2b0c1c4e9a7def.xhtml" xlink:title="arm_compute"><polygon fill="#fff" stroke="red" points="132 -108 48 -108 48 -72 132 -72 132 -108"/><text x="90" y="-87.5" font-family="Helvetica,sans-Serif" font-size="10" text-anchor="middle">arm_compute</text></a></g></g><g id="edge3" class="edge"><title>dir_6fc87decd8cffc07e5f49c197ca3de10-&gt;dir_214608ef36d61442cb2b0c1c4e9a7def</title><path fill="none" stroke="#000" d="M108.673,-215.902C106.171,-205.56 103.109,-192.082 101,-180 97.4084,-159.424 94.5602,-135.972 92.6627,-118.309"/><polygon fill="#000" stroke="#000" points="96.121 -117.722 91.606 -108.137 89.158 -118.445 96.121 -117.722"/><g id="a_edge3-headlabel"><a target="_top" xlink:href="dir_000070_000000.xhtml" xlink:title="11"><text x="99.316" y="-118.504" font-family="Helvetica,sans-Serif" font-size="10" text-anchor="middle">11</text></a></g></g><g id="node5" class="node"><title>dir_5815af820a9cc9481f1d0990a0d60286</title><g id="a_node5"><a target="_top" xlink:href="dir_5815af820a9cc9481f1d0990a0d60286.xhtml" xlink:title="support"><polygon fill="none" stroke="#000" points="152 -36 98 -36 98 0 152 0 152 -36"/><text x="125" y="-15.5" font-family="Helvetica,sans-Serif" font-size="10" text-anchor="middle">support</text></a></g></g><g id="edge4" class="edge"><title>dir_6fc87decd8cffc07e5f49c197ca3de10-&gt;dir_5815af820a9cc9481f1d0990a0d60286</title><path fill="none" stroke="#000" d="M140.073,-221.296C156.622,-212.546 176.398,-198.837 186,-180 209.427,-134.042 173.546,-76.8803 147.674,-44.5063"/><polygon fill="#000" stroke="#000" points="150.09 -41.935 141.027 -36.447 144.69 -46.389 150.09 -41.935"/><g id="a_edge4-headlabel"><a target="_top" xlink:href="dir_000070_000053.xhtml" xlink:title="2"><text x="154.567" y="-40.401" font-family="Helvetica,sans-Serif" font-size="10" text-anchor="middle">2</text></a></g></g><g id="edge5" class="edge"><title>dir_445738e6fed662d0b65e690e3f1e1de0-&gt;dir_214608ef36d61442cb2b0c1c4e9a7def</title><path fill="none" stroke="#000" d="M42.573,-143.697C50.2022,-135.22 59.5228,-124.864 67.8757,-115.583"/><polygon fill="#000" stroke="#000" points="70.518 -117.879 74.606 -108.104 65.315 -113.196 70.518 -117.879"/><g id="a_edge5-headlabel"><a target="_top" xlink:href="dir_000063_000000.xhtml" xlink:title="6"><text x="70.224" y="-119.95" font-family="Helvetica,sans-Serif" font-size="10" text-anchor="middle">6</text></a></g></g><g id="edge6" class="edge"><title>dir_445738e6fed662d0b65e690e3f1e1de0-&gt;dir_5815af820a9cc9481f1d0990a0d60286</title><path fill="none" stroke="#000" d="M25.1776,-143.781C24.0385,-124.681 24.8975,-93.7017 39,-72 50.611,-54.1324 70.5725,-41.2866 88.3426,-32.7205"/><polygon fill="#000" stroke="#000" points="90.247 -35.701 97.922 -28.397 87.368 -29.32 90.247 -35.701"/><g id="a_edge6-headlabel"><a target="_top" xlink:href="dir_000063_000053.xhtml" xlink:title="1"><text x="88.139" y="-37.267" font-family="Helvetica,sans-Serif" font-size="10" text-anchor="middle">1</text></a></g></g><g id="edge7" class="edge"><title>dir_9e71e2da941d3cafc4d98a9f6ae3de4f-&gt;dir_214608ef36d61442cb2b0c1c4e9a7def</title><path fill="none" stroke="#000" d="M130.652,-143.697C124.243,-135.389 116.442,-125.277 109.394,-116.141"/><polygon fill="#000" stroke="#000" points="112.074 -113.884 103.195 -108.104 106.532 -118.16 112.074 -113.884"/><g id="a_edge7-headlabel"><a target="_top" xlink:href="dir_000021_000000.xhtml" xlink:title="13"><text x="116.518" y="-112.496" font-family="Helvetica,sans-Serif" font-size="10" text-anchor="middle">13</text></a></g></g><g id="edge8" class="edge"><title>dir_9e71e2da941d3cafc4d98a9f6ae3de4f-&gt;dir_5815af820a9cc9481f1d0990a0d60286</title><path fill="none" stroke="#000" d="M144.732,-143.809C145.194,-125.788 145.075,-96.7117 141,-72 139.577,-63.3701 137.144,-54.1785 134.598,-45.915"/><polygon fill="#000" stroke="#000" points="137.923 -44.821 131.499 -36.396 131.267 -46.988 137.923 -44.821"/><g id="a_edge8-headlabel"><a target="_top" xlink:href="dir_000021_000053.xhtml" xlink:title="7"><text x="141.736" y="-44.859" font-family="Helvetica,sans-Serif" font-size="10" text-anchor="middle">7</text></a></g></g><g id="edge9" class="edge"><title>dir_214608ef36d61442cb2b0c1c4e9a7def-&gt;dir_5815af820a9cc9481f1d0990a0d60286</title><path fill="none" stroke="#000" d="M98.6517,-71.6966C102.636,-63.7284 107.45,-54.0995 111.868,-45.2641"/><polygon fill="#000" stroke="#000" points="115.106 -46.614 116.448 -36.104 108.845 -43.483 115.106 -46.614"/><g id="a_edge9-headlabel"><a target="_top" xlink:href="dir_000000_000053.xhtml" xlink:title="20"><text x="116.038" y="-48.599" font-family="Helvetica,sans-Serif" font-size="10" text-anchor="middle">20</text></a></g></g></g></svg>