<svg xmlns="http://www.w3.org/2000/svg" xmlns:xlink="http://www.w3.org/1999/xlink" width="202pt" height="295pt" viewBox="0 0 201.77 295"><g id="graph0" class="graph" transform="scale(1 1) rotate(0) translate(4 291)"><title>tests/validation/CL/UNIT</title><polygon fill="#fff" stroke="none" points="-4 4 -4 -291 197.772 -291 197.772 4 -4 4"/><g id="clust1" class="cluster"><title>clusterdir_f7024513cd67abef53e86ee9382ac5ce</title><g id="a_clust1"><a target="_top" xlink:href="dir_f7024513cd67abef53e86ee9382ac5ce.xhtml" xlink:title="CL"><polygon fill="#dde" stroke="#000" points="87.5 -208 87.5 -279 157.5 -279 157.5 -208 87.5 -208"/><text x="122.5" y="-267" font-family="Helvetica,sans-Serif" font-size="10" text-anchor="middle">CL</text></a></g></g><g id="node1" class="node"><title>dir_4fe3055359cf5438733b5e64b064b197</title><g id="a_node1"><a target="_top" xlink:href="dir_4fe3055359cf5438733b5e64b064b197.xhtml" xlink:title="UNIT"><polygon fill="#eef" stroke="#000" points="149.5 -252 95.5 -252 95.5 -216 149.5 -216 149.5 -252"/><text x="122.5" y="-231.5" font-family="Helvetica,sans-Serif" font-size="10" text-anchor="middle">UNIT</text></a></g></g><g id="node2" class="node"><title>dir_9e71e2da941d3cafc4d98a9f6ae3de4f</title><g id="a_node2"><a target="_top" xlink:href="dir_9e71e2da941d3cafc4d98a9f6ae3de4f.xhtml" xlink:title="framework"><polygon fill="#fff" stroke="red" points="67 -180 0 -180 0 -144 67 -144 67 -180"/><text x="33.5" y="-159.5" font-family="Helvetica,sans-Serif" font-size="10" text-anchor="middle">framework</text></a></g></g><g id="edge1" class="edge"><title>dir_4fe3055359cf5438733b5e64b064b197-&gt;dir_9e71e2da941d3cafc4d98a9f6ae3de4f</title><path fill="none" stroke="#000" d="M100.5,-215.697C89.2912,-206.881 75.4979,-196.032 63.3458,-186.474"/><polygon fill="#000" stroke="#000" points="65.271 -183.535 55.247 -180.104 60.943 -189.038 65.271 -183.535"/><g id="a_edge1-headlabel"><a target="_top" xlink:href="dir_000068_000021.xhtml" xlink:title="8"><text x="69.852" y="-181.026" font-family="Helvetica,sans-Serif" font-size="10" text-anchor="middle">8</text></a></g></g><g id="node3" class="node"><title>dir_214608ef36d61442cb2b0c1c4e9a7def</title><g id="a_node3"><a target="_top" xlink:href="dir_214608ef36d61442cb2b0c1c4e9a7def.xhtml" xlink:title="arm_compute"><polygon fill="#fff" stroke="red" points="138.5 -108 54.5 -108 54.5 -72 138.5 -72 138.5 -108"/><text x="96.5" y="-87.5" font-family="Helvetica,sans-Serif" font-size="10" text-anchor="middle">arm_compute</text></a></g></g><g id="edge2" class="edge"><title>dir_4fe3055359cf5438733b5e64b064b197-&gt;dir_214608ef36d61442cb2b0c1c4e9a7def</title><path fill="none" stroke="#000" d="M119.364,-215.871C114.933,-191.67 106.792,-147.211 101.516,-118.393"/><polygon fill="#000" stroke="#000" points="104.891 -117.395 99.647 -108.189 98.006 -118.656 104.891 -117.395"/><g id="a_edge2-headlabel"><a target="_top" xlink:href="dir_000068_000000.xhtml" xlink:title="12"><text x="108.331" y="-117.92" font-family="Helvetica,sans-Serif" font-size="10" text-anchor="middle">12</text></a></g></g><g id="node4" class="node"><title>dir_896191444cf08ec8ade6f88256cb2bdd</title><g id="a_node4"><a target="_top" xlink:href="dir_896191444cf08ec8ade6f88256cb2bdd.xhtml" xlink:title="CL"><polygon fill="none" stroke="#000" points="177.5 -180 123.5 -180 123.5 -144 177.5 -144 177.5 -180"/><text x="150.5" y="-159.5" font-family="Helvetica,sans-Serif" font-size="10" text-anchor="middle">CL</text></a></g></g><g id="edge3" class="edge"><title>dir_4fe3055359cf5438733b5e64b064b197-&gt;dir_896191444cf08ec8ade6f88256cb2bdd</title><path fill="none" stroke="#000" d="M129.421,-215.697C132.575,-207.813 136.378,-198.304 139.881,-189.546"/><polygon fill="#000" stroke="#000" points="143.194 -190.689 143.658 -180.104 136.695 -188.089 143.194 -190.689"/><g id="a_edge3-headlabel"><a target="_top" xlink:href="dir_000068_000061.xhtml" xlink:title="2"><text x="144.495" y="-192.581" font-family="Helvetica,sans-Serif" font-size="10" text-anchor="middle">2</text></a></g></g><g id="node5" class="node"><title>dir_5815af820a9cc9481f1d0990a0d60286</title><g id="a_node5"><a target="_top" xlink:href="dir_5815af820a9cc9481f1d0990a0d60286.xhtml" xlink:title="support"><polygon fill="none" stroke="#000" points="158.5 -36 104.5 -36 104.5 0 158.5 0 158.5 -36"/><text x="131.5" y="-15.5" font-family="Helvetica,sans-Serif" font-size="10" text-anchor="middle">support</text></a></g></g><g id="edge4" class="edge"><title>dir_4fe3055359cf5438733b5e64b064b197-&gt;dir_5815af820a9cc9481f1d0990a0d60286</title><path fill="none" stroke="#000" d="M149.596,-218.388C163.387,-209.337 178.826,-196.319 186.5,-180 208.192,-133.871 175.643,-76.7688 152.125,-44.4518"/><polygon fill="#000" stroke="#000" points="154.887 -42.3 146.082 -36.407 149.29 -46.505 154.887 -42.3"/><g id="a_edge4-headlabel"><a target="_top" xlink:href="dir_000068_000053.xhtml" xlink:title="3"><text x="159.316" y="-40.969" font-family="Helvetica,sans-Serif" font-size="10" text-anchor="middle">3</text></a></g></g><g id="edge5" class="edge"><title>dir_9e71e2da941d3cafc4d98a9f6ae3de4f-&gt;dir_214608ef36d61442cb2b0c1c4e9a7def</title><path fill="none" stroke="#000" d="M49.073,-143.697C56.7022,-135.22 66.0228,-124.864 74.3757,-115.583"/><polygon fill="#000" stroke="#000" points="77.018 -117.879 81.106 -108.104 71.815 -113.196 77.018 -117.879"/><g id="a_edge5-headlabel"><a target="_top" xlink:href="dir_000021_000000.xhtml" xlink:title="13"><text x="76.724" y="-119.95" font-family="Helvetica,sans-Serif" font-size="10" text-anchor="middle">13</text></a></g></g><g id="edge6" class="edge"><title>dir_9e71e2da941d3cafc4d98a9f6ae3de4f-&gt;dir_5815af820a9cc9481f1d0990a0d60286</title><path fill="none" stroke="#000" d="M31.6776,-143.781C30.5385,-124.681 31.3975,-93.7017 45.5,-72 57.111,-54.1324 77.0725,-41.2866 94.8426,-32.7205"/><polygon fill="#000" stroke="#000" points="96.747 -35.701 104.422 -28.397 93.868 -29.32 96.747 -35.701"/><g id="a_edge6-headlabel"><a target="_top" xlink:href="dir_000021_000053.xhtml" xlink:title="7"><text x="94.639" y="-37.267" font-family="Helvetica,sans-Serif" font-size="10" text-anchor="middle">7</text></a></g></g><g id="edge7" class="edge"><title>dir_214608ef36d61442cb2b0c1c4e9a7def-&gt;dir_5815af820a9cc9481f1d0990a0d60286</title><path fill="none" stroke="#000" d="M105.152,-71.6966C109.136,-63.7284 113.95,-54.0995 118.368,-45.2641"/><polygon fill="#000" stroke="#000" points="121.606 -46.614 122.948 -36.104 115.345 -43.483 121.606 -46.614"/><g id="a_edge7-headlabel"><a target="_top" xlink:href="dir_000000_000053.xhtml" xlink:title="20"><text x="122.538" y="-48.599" font-family="Helvetica,sans-Serif" font-size="10" text-anchor="middle">20</text></a></g></g><g id="edge8" class="edge"><title>dir_896191444cf08ec8ade6f88256cb2bdd-&gt;dir_214608ef36d61442cb2b0c1c4e9a7def</title><path fill="none" stroke="#000" d="M137.152,-143.697C130.743,-135.389 122.942,-125.277 115.894,-116.141"/><polygon fill="#000" stroke="#000" points="118.574 -113.884 109.695 -108.104 113.032 -118.16 118.574 -113.884"/><g id="a_edge8-headlabel"><a target="_top" xlink:href="dir_000061_000000.xhtml" xlink:title="5"><text x="123.018" y="-112.496" font-family="Helvetica,sans-Serif" font-size="10" text-anchor="middle">5</text></a></g></g><g id="edge9" class="edge"><title>dir_896191444cf08ec8ade6f88256cb2bdd-&gt;dir_5815af820a9cc9481f1d0990a0d60286</title><path fill="none" stroke="#000" d="M151.232,-143.809C151.694,-125.788 151.575,-96.7117 147.5,-72 146.077,-63.3701 143.644,-54.1785 141.098,-45.915"/><polygon fill="#000" stroke="#000" points="144.423 -44.821 137.999 -36.396 137.767 -46.988 144.423 -44.821"/><g id="a_edge9-headlabel"><a target="_top" xlink:href="dir_000061_000053.xhtml" xlink:title="1"><text x="148.236" y="-44.859" font-family="Helvetica,sans-Serif" font-size="10" text-anchor="middle">1</text></a></g></g></g></svg>