<svg xmlns="http://www.w3.org/2000/svg" xmlns:xlink="http://www.w3.org/1999/xlink" width="422pt" height="244" viewBox="0 0 422 183"><g id="graph0" class="graph" transform="scale(1 1) rotate(0) translate(4 179)"><title>arm_compute/core/utils</title><polygon fill="#fff" stroke="none" points="-4 4 -4 -179 418 -179 418 4 -4 4"/><g id="clust1" class="cluster"><title>clusterdir_1fb090f0c6070330bfaccc4236d3ca0d</title><g id="a_clust1"><a target="_top" xlink:href="dir_1fb090f0c6070330bfaccc4236d3ca0d.xhtml" xlink:title="core"><polygon fill="#dde" stroke="#000" points="8 -8 8 -167 352 -167 352 -8 8 -8"/><text x="180" y="-155" font-family="Helvetica,sans-Serif" font-size="10" text-anchor="middle">core</text></a></g></g><g id="clust2" class="cluster"><title>clusterdir_7b0825b7536eda12b63e5d87347b1c7d</title><g id="a_clust2"><a target="_top" xlink:href="dir_7b0825b7536eda12b63e5d87347b1c7d.xhtml"><polygon fill="#eef" stroke="#000" points="16 -16 16 -140 344 -140 344 -16 16 -16"/></a></g></g><g id="node1" class="node"><title>dir_7b0825b7536eda12b63e5d87347b1c7d</title><text x="309" y="-111.5" font-family="Helvetica,sans-Serif" font-size="10" text-anchor="middle">utils</text></g><g id="node2" class="node"><title>dir_4165fcd8206cc52fde421ae1f1275b40</title><g id="a_node2"><a target="_top" xlink:href="dir_4165fcd8206cc52fde421ae1f1275b40.xhtml" xlink:title="io"><polygon fill="#fff" stroke="#000" points="264 -60 210 -60 210 -24 264 -24 264 -60"/><text x="237" y="-39.5" font-family="Helvetica,sans-Serif" font-size="10" text-anchor="middle">io</text></a></g></g><g id="node3" class="node"><title>dir_e575b855d3e83e3374bc2a6f9bf89d98</title><g id="a_node3"><a target="_top" xlink:href="dir_e575b855d3e83e3374bc2a6f9bf89d98.xhtml" xlink:title="logging"><polygon fill="#fff" stroke="#000" points="264 -132 210 -132 210 -96 264 -96 264 -132"/><text x="237" y="-111.5" font-family="Helvetica,sans-Serif" font-size="10" text-anchor="middle">logging</text></a></g></g><g id="edge2" class="edge"><title>dir_e575b855d3e83e3374bc2a6f9bf89d98-&gt;dir_4165fcd8206cc52fde421ae1f1275b40</title><path fill="none" stroke="#000" d="M237,-95.6966C237,-87.9827 237,-78.7125 237,-70.1124"/><polygon fill="#000" stroke="#000" points="240.5 -70.104 237 -60.104 233.5 -70.104 240.5 -70.104"/><g id="a_edge2-headlabel"><a target="_top" xlink:href="dir_000009_000024.xhtml" xlink:title="1"><text x="243.339" y="-71.199" font-family="Helvetica,sans-Serif" font-size="10" text-anchor="middle">1</text></a></g></g><g id="node7" class="node"><title>dir_5815af820a9cc9481f1d0990a0d60286</title><g id="a_node7"><a target="_top" xlink:href="dir_5815af820a9cc9481f1d0990a0d60286.xhtml" xlink:title="support"><polygon fill="none" stroke="#000" points="414 -60 360 -60 360 -24 414 -24 414 -60"/><text x="387" y="-39.5" font-family="Helvetica,sans-Serif" font-size="10" text-anchor="middle">support</text></a></g></g><g id="edge3" class="edge"><title>dir_e575b855d3e83e3374bc2a6f9bf89d98-&gt;dir_5815af820a9cc9481f1d0990a0d60286</title><path fill="none" stroke="#000" d="M264.119,-100.173C267.114,-98.7621 270.121,-97.349 273,-96 298.94,-83.8454 328.247,-70.2226 350.65,-59.832"/><polygon fill="#000" stroke="#000" points="352.199 -62.972 359.799 -55.59 349.254 -56.621 352.199 -62.972"/><g id="a_edge3-headlabel"><a target="_top" xlink:href="dir_000009_000053.xhtml" xlink:title="3"><text x="350.132" y="-64.56" font-family="Helvetica,sans-Serif" font-size="10" text-anchor="middle">3</text></a></g></g><g id="node4" class="node"><title>dir_cab437ca4f6ec1fbc573ae83f91b2654</title><g id="a_node4"><a target="_top" xlink:href="dir_cab437ca4f6ec1fbc573ae83f91b2654.xhtml" xlink:title="misc"><polygon fill="#fff" stroke="#000" points="88 -60 34 -60 34 -24 88 -24 88 -60"/><text x="61" y="-39.5" font-family="Helvetica,sans-Serif" font-size="10" text-anchor="middle">misc</text></a></g></g><g id="node5" class="node"><title>dir_4dbf711d3d3ef9d1292a532e836709c1</title><g id="a_node5"><a target="_top" xlink:href="dir_4dbf711d3d3ef9d1292a532e836709c1.xhtml" xlink:title="quantization"><polygon fill="#fff" stroke="#000" points="192 -132 116 -132 116 -96 192 -96 192 -132"/><text x="154" y="-111.5" font-family="Helvetica,sans-Serif" font-size="10" text-anchor="middle">quantization</text></a></g></g><g id="node6" class="node"><title>dir_4f17730e234c0f44aa1a4a309fc35bea</title><g id="a_node6"><a target="_top" xlink:href="dir_4f17730e234c0f44aa1a4a309fc35bea.xhtml" xlink:title="strong_type"><polygon fill="#fff" stroke="#000" points="98 -132 24 -132 24 -96 98 -96 98 -132"/><text x="61" y="-111.5" font-family="Helvetica,sans-Serif" font-size="10" text-anchor="middle">strong_type</text></a></g></g><g id="edge1" class="edge"><title>dir_4f17730e234c0f44aa1a4a309fc35bea-&gt;dir_cab437ca4f6ec1fbc573ae83f91b2654</title><path fill="none" stroke="#000" d="M61,-95.6966C61,-87.9827 61,-78.7125 61,-70.1124"/><polygon fill="#000" stroke="#000" points="64.5 -70.104 61 -60.104 57.5 -70.104 64.5 -70.104"/><g id="a_edge1-headlabel"><a target="_top" xlink:href="dir_000029_000027.xhtml" xlink:title="1"><text x="67.339" y="-71.199" font-family="Helvetica,sans-Serif" font-size="10" text-anchor="middle">1</text></a></g></g></g></svg>