<svg xmlns="http://www.w3.org/2000/svg" xmlns:xlink="http://www.w3.org/1999/xlink" width="662pt" height="404" viewBox="0 0 662.01 303"><g id="graph0" class="graph" transform="scale(1 1) rotate(0) translate(4 299)"><title>arm_compute/graph</title><polygon fill="#fff" stroke="none" points="-4 4 -4 -299 658.011 -299 658.011 4 -4 4"/><g id="clust1" class="cluster"><title>clusterdir_214608ef36d61442cb2b0c1c4e9a7def</title><g id="a_clust1"><a target="_top" xlink:href="dir_214608ef36d61442cb2b0c1c4e9a7def.xhtml" xlink:title="arm_compute"><polygon fill="#dde" stroke="#000" points="8 -128 8 -287 560 -287 560 -128 8 -128"/><text x="284" y="-275" font-family="Helvetica,sans-Serif" font-size="10" text-anchor="middle">arm_compute</text></a></g></g><g id="clust2" class="cluster"><title>clusterdir_99ae3712d1eecd2a93fc4d38b59a99ba</title><g id="a_clust2"><a target="_top" xlink:href="dir_99ae3712d1eecd2a93fc4d38b59a99ba.xhtml"><polygon fill="#eef" stroke="#000" points="16 -136 16 -260 552 -260 552 -136 16 -136"/></a></g></g><g id="node1" class="node"><title>dir_99ae3712d1eecd2a93fc4d38b59a99ba</title><text x="517" y="-231.5" font-family="Helvetica,sans-Serif" font-size="10" text-anchor="middle">graph</text></g><g id="node9" class="node"><title>dir_cbdb8362360e11eafe2fa3bc74cf0ffd</title><g id="a_node9"><a target="_top" xlink:href="dir_cbdb8362360e11eafe2fa3bc74cf0ffd.xhtml" xlink:title="utils"><polygon fill="#fff" stroke="red" points="649 -252 595 -252 595 -216 649 -216 649 -252"/><text x="622" y="-231.5" font-family="Helvetica,sans-Serif" font-size="10" text-anchor="middle">utils</text></a></g></g><g id="edge1" class="edge"><title>dir_99ae3712d1eecd2a93fc4d38b59a99ba-&gt;dir_cbdb8362360e11eafe2fa3bc74cf0ffd</title><path fill="none" stroke="#000" d="M544.07,-234C557.574,-234 571.077,-234 584.581,-234"/><polygon fill="#000" stroke="#000" points="584.907 -237.5 594.907 -234 584.907 -230.5 584.907 -237.5"/><g id="a_edge1-headlabel"><a target="_top" xlink:href="dir_000017_000023.xhtml" xlink:title="1"><text x="581.313" y="-237.839" font-family="Helvetica,sans-Serif" font-size="10" text-anchor="middle">1</text></a></g></g><g id="node2" class="node"><title>dir_d03e69479d487ec17de4c74c8d185b2d</title><g id="a_node2"><a target="_top" xlink:href="dir_d03e69479d487ec17de4c74c8d185b2d.xhtml" xlink:title="algorithms"><polygon fill="#fff" stroke="#000" points="472 -252 404 -252 404 -216 472 -216 472 -252"/><text x="438" y="-231.5" font-family="Helvetica,sans-Serif" font-size="10" text-anchor="middle">algorithms</text></a></g></g><g id="node3" class="node"><title>dir_59b2231210c554f4cc243709030bf1f8</title><g id="a_node3"><a target="_top" xlink:href="dir_59b2231210c554f4cc243709030bf1f8.xhtml" xlink:title="backends"><polygon fill="#fff" stroke="red" points="238 -252 176 -252 176 -216 238 -216 238 -252"/><text x="207" y="-231.5" font-family="Helvetica,sans-Serif" font-size="10" text-anchor="middle">backends</text></a></g></g><g id="node7" class="node"><title>dir_b30607d43e07fadf88f4c95a88a6c88e</title><g id="a_node7"><a target="_top" xlink:href="dir_b30607d43e07fadf88f4c95a88a6c88e.xhtml" xlink:title="nodes"><polygon fill="#fff" stroke="#000" points="289 -180 235 -180 235 -144 289 -144 289 -180"/><text x="262" y="-159.5" font-family="Helvetica,sans-Serif" font-size="10" text-anchor="middle">nodes</text></a></g></g><g id="edge10" class="edge"><title>dir_59b2231210c554f4cc243709030bf1f8-&gt;dir_b30607d43e07fadf88f4c95a88a6c88e</title><path fill="none" stroke="#000" d="M220.596,-215.697C227.123,-207.389 235.068,-197.277 242.247,-188.141"/><polygon fill="#000" stroke="#000" points="245.135 -190.13 248.561 -180.104 239.631 -185.805 245.135 -190.13"/><g id="a_edge10-headlabel"><a target="_top" xlink:href="dir_000020_000036.xhtml" xlink:title="2"><text x="245.147" y="-192.211" font-family="Helvetica,sans-Serif" font-size="10" text-anchor="middle">2</text></a></g></g><g id="node10" class="node"><title>dir_8bc26130589aa16388b5a02f17abf2c2</title><g id="a_node10"><a target="_top" xlink:href="dir_8bc26130589aa16388b5a02f17abf2c2.xhtml" xlink:title="runtime"><polygon fill="#fff" stroke="red" points="622 -180 568 -180 568 -144 622 -144 622 -180"/><text x="595" y="-159.5" font-family="Helvetica,sans-Serif" font-size="10" text-anchor="middle">runtime</text></a></g></g><g id="edge8" class="edge"><title>dir_59b2231210c554f4cc243709030bf1f8-&gt;dir_8bc26130589aa16388b5a02f17abf2c2</title><path fill="none" stroke="#000" d="M238.144,-218.766C241.1,-217.719 244.082,-216.773 247,-216 380.653,-180.599 422.511,-216.015 556,-180 556.722,-179.805 557.448,-179.599 558.176,-179.383"/><polygon fill="#000" stroke="#000" points="559.355 -182.679 567.667 -176.109 557.072 -176.062 559.355 -182.679"/><g id="a_edge8-headlabel"><a target="_top" xlink:href="dir_000020_000019.xhtml" xlink:title="13"><text x="556.883" y="-184.035" font-family="Helvetica,sans-Serif" font-size="10" text-anchor="middle">13</text></a></g></g><g id="node11" class="node"><title>dir_1fb090f0c6070330bfaccc4236d3ca0d</title><g id="a_node11"><a target="_top" xlink:href="dir_1fb090f0c6070330bfaccc4236d3ca0d.xhtml" xlink:title="core"><polygon fill="#fff" stroke="red" points="567 -108 513 -108 513 -72 567 -72 567 -108"/><text x="540" y="-87.5" font-family="Helvetica,sans-Serif" font-size="10" text-anchor="middle">core</text></a></g></g><g id="edge9" class="edge"><title>dir_59b2231210c554f4cc243709030bf1f8-&gt;dir_1fb090f0c6070330bfaccc4236d3ca0d</title><path fill="none" stroke="#000" d="M238.187,-216.043C279.606,-193.944 355.414,-154.946 423,-128 449.202,-117.553 479.599,-108.015 502.841,-101.24"/><polygon fill="#000" stroke="#000" points="504.009 -104.546 512.653 -98.42 502.075 -97.819 504.009 -104.546"/><g id="a_edge9-headlabel"><a target="_top" xlink:href="dir_000020_000001.xhtml" xlink:title="10"><text x="501.339" y="-105.768" font-family="Helvetica,sans-Serif" font-size="10" text-anchor="middle">10</text></a></g></g><g id="node12" class="node"><title>dir_5815af820a9cc9481f1d0990a0d60286</title><g id="a_node12"><a target="_top" xlink:href="dir_5815af820a9cc9481f1d0990a0d60286.xhtml" xlink:title="support"><polygon fill="none" stroke="#000" points="594 -36 540 -36 540 0 594 0 594 -36"/><text x="567" y="-15.5" font-family="Helvetica,sans-Serif" font-size="10" text-anchor="middle">support</text></a></g></g><g id="edge11" class="edge"><title>dir_59b2231210c554f4cc243709030bf1f8-&gt;dir_5815af820a9cc9481f1d0990a0d60286</title><path fill="none" stroke="#000" d="M205.107,-215.827C203.579,-192.946 204.496,-152.508 226,-128 305.151,-37.7938 458.895,-21.6543 529.68,-19.1696"/><polygon fill="#000" stroke="#000" points="530.005 -22.662 539.904 -18.887 529.811 -15.665 530.005 -22.662"/><g id="a_edge11-headlabel"><a target="_top" xlink:href="dir_000020_000053.xhtml" xlink:title="1"><text x="526.49" y="-23.099" font-family="Helvetica,sans-Serif" font-size="10" text-anchor="middle">1</text></a></g></g><g id="node4" class="node"><title>dir_7d9e792b56b44fd84901d9e18064c5a8</title><g id="a_node4"><a target="_top" xlink:href="dir_7d9e792b56b44fd84901d9e18064c5a8.xhtml" xlink:title="detail"><polygon fill="#fff" stroke="#000" points="310 -252 256 -252 256 -216 310 -216 310 -252"/><text x="283" y="-231.5" font-family="Helvetica,sans-Serif" font-size="10" text-anchor="middle">detail</text></a></g></g><g id="node5" class="node"><title>dir_7526be4d1cfecb7bc660fdbdb8633223</title><g id="a_node5"><a target="_top" xlink:href="dir_7526be4d1cfecb7bc660fdbdb8633223.xhtml" xlink:title="frontend"><polygon fill="#fff" stroke="#000" points="385.5 -252 328.5 -252 328.5 -216 385.5 -216 385.5 -252"/><text x="357" y="-231.5" font-family="Helvetica,sans-Serif" font-size="10" text-anchor="middle">frontend</text></a></g></g><g id="edge13" class="edge"><title>dir_7526be4d1cfecb7bc660fdbdb8633223-&gt;dir_1fb090f0c6070330bfaccc4236d3ca0d</title><path fill="none" stroke="#000" d="M379.074,-215.871C411.637,-190.604 472.658,-143.254 509.484,-114.679"/><polygon fill="#000" stroke="#000" points="512.093 -117.085 517.848 -108.189 507.801 -111.555 512.093 -117.085"/><g id="a_edge13-headlabel"><a target="_top" xlink:href="dir_000018_000001.xhtml" xlink:title="1"><text x="510.993" y="-119.032" font-family="Helvetica,sans-Serif" font-size="10" text-anchor="middle">1</text></a></g></g><g id="node6" class="node"><title>dir_bd82036549cb2b9c5b3542d0a5df616a</title><g id="a_node6"><a target="_top" xlink:href="dir_bd82036549cb2b9c5b3542d0a5df616a.xhtml" xlink:title="mutators"><polygon fill="#fff" stroke="#000" points="157.5 -252 96.5 -252 96.5 -216 157.5 -216 157.5 -252"/><text x="127" y="-231.5" font-family="Helvetica,sans-Serif" font-size="10" text-anchor="middle">mutators</text></a></g></g><g id="node8" class="node"><title>dir_6013eaf2dfd46ef85ec5f8d403ae0adb</title><g id="a_node8"><a target="_top" xlink:href="dir_6013eaf2dfd46ef85ec5f8d403ae0adb.xhtml" xlink:title="printers"><polygon fill="#fff" stroke="#000" points="78 -252 24 -252 24 -216 78 -216 78 -252"/><text x="51" y="-231.5" font-family="Helvetica,sans-Serif" font-size="10" text-anchor="middle">printers</text></a></g></g><g id="edge2" class="edge"><title>dir_cbdb8362360e11eafe2fa3bc74cf0ffd-&gt;dir_99ae3712d1eecd2a93fc4d38b59a99ba</title><path fill="none" stroke="#000" d="M594.907,-234C581.404,-234 567.9,-234 554.397,-234"/><polygon fill="#000" stroke="#000" points="554.07 -230.5 544.07 -234 554.07 -237.5 554.07 -230.5"/><g id="a_edge2-headlabel"><a target="_top" xlink:href="dir_000023_000017.xhtml" xlink:title="8"><text x="557.665" y="-225.161" font-family="Helvetica,sans-Serif" font-size="10" text-anchor="middle">8</text></a></g></g><g id="edge3" class="edge"><title>dir_cbdb8362360e11eafe2fa3bc74cf0ffd-&gt;dir_8bc26130589aa16388b5a02f17abf2c2</title><path fill="none" stroke="#000" d="M615.326,-215.697C612.285,-207.813 608.617,-198.304 605.239,-189.546"/><polygon fill="#000" stroke="#000" points="608.462 -188.175 601.597 -180.104 601.931 -190.694 608.462 -188.175"/><g id="a_edge3-headlabel"><a target="_top" xlink:href="dir_000023_000019.xhtml" xlink:title="3"><text x="612.404" y="-188.007" font-family="Helvetica,sans-Serif" font-size="10" text-anchor="middle">3</text></a></g></g><g id="edge4" class="edge"><title>dir_cbdb8362360e11eafe2fa3bc74cf0ffd-&gt;dir_1fb090f0c6070330bfaccc4236d3ca0d</title><path fill="none" stroke="#000" d="M629.649,-215.712C638.228,-193.428 648.773,-154.412 631,-128 619,-110.167 596.76,-100.925 577.271,-96.1377"/><polygon fill="#000" stroke="#000" points="577.911 -92.695 567.399 -94.018 576.441 -99.539 577.911 -92.695"/><g id="a_edge4-headlabel"><a target="_top" xlink:href="dir_000023_000001.xhtml" xlink:title="25"><text x="582.021" y="-88.174" font-family="Helvetica,sans-Serif" font-size="10" text-anchor="middle">25</text></a></g></g><g id="edge5" class="edge"><title>dir_cbdb8362360e11eafe2fa3bc74cf0ffd-&gt;dir_5815af820a9cc9481f1d0990a0d60286</title><path fill="none" stroke="#000" d="M633.467,-215.667C639.375,-205.689 645.963,-192.652 649,-180 654.394,-157.527 656.324,-149.92 649,-128 637.953,-94.9401 612.5,-63.8621 592.86,-43.4165"/><polygon fill="#000" stroke="#000" points="595.174 -40.779 585.659 -36.119 590.192 -45.696 595.174 -40.779"/><g id="a_edge5-headlabel"><a target="_top" xlink:href="dir_000023_000053.xhtml" xlink:title="3"><text x="599.72" y="-38.843" font-family="Helvetica,sans-Serif" font-size="10" text-anchor="middle">3</text></a></g></g><g id="edge6" class="edge"><title>dir_8bc26130589aa16388b5a02f17abf2c2-&gt;dir_1fb090f0c6070330bfaccc4236d3ca0d</title><path fill="none" stroke="#000" d="M581.404,-143.697C574.877,-135.389 566.932,-125.277 559.753,-116.141"/><polygon fill="#000" stroke="#000" points="562.369 -113.805 553.439 -108.104 556.865 -118.13 562.369 -113.805"/><g id="a_edge6-headlabel"><a target="_top" xlink:href="dir_000019_000001.xhtml" xlink:title="458"><text x="566.823" y="-112.377" font-family="Helvetica,sans-Serif" font-size="10" text-anchor="middle">458</text></a></g></g><g id="edge7" class="edge"><title>dir_8bc26130589aa16388b5a02f17abf2c2-&gt;dir_5815af820a9cc9481f1d0990a0d60286</title><path fill="none" stroke="#000" d="M591.623,-143.871C586.829,-119.564 578.007,-74.8187 572.327,-46.0132"/><polygon fill="#000" stroke="#000" points="575.758 -45.323 570.389 -36.189 568.89 -46.678 575.758 -45.323"/><g id="a_edge7-headlabel"><a target="_top" xlink:href="dir_000019_000053.xhtml" xlink:title="4"><text x="579.239" y="-45.801" font-family="Helvetica,sans-Serif" font-size="10" text-anchor="middle">4</text></a></g></g><g id="edge12" class="edge"><title>dir_1fb090f0c6070330bfaccc4236d3ca0d-&gt;dir_5815af820a9cc9481f1d0990a0d60286</title><path fill="none" stroke="#000" d="M546.674,-71.6966C549.715,-63.8132 553.383,-54.3042 556.761,-45.5464"/><polygon fill="#000" stroke="#000" points="560.069 -46.694 560.403 -36.104 553.538 -44.175 560.069 -46.694"/><g id="a_edge12-headlabel"><a target="_top" xlink:href="dir_000001_000053.xhtml" xlink:title="13"><text x="561.425" y="-48.569" font-family="Helvetica,sans-Serif" font-size="10" text-anchor="middle">13</text></a></g></g></g></svg>