<svg xmlns="http://www.w3.org/2000/svg" xmlns:xlink="http://www.w3.org/1999/xlink" width="440pt" height="404" viewBox="0 0 440 303"><g id="graph0" class="graph" transform="scale(1 1) rotate(0) translate(4 299)"><title>arm_compute/runtime</title><polygon fill="#fff" stroke="none" points="-4 4 -4 -299 436 -299 436 4 -4 4"/><g id="clust1" class="cluster"><title>clusterdir_214608ef36d61442cb2b0c1c4e9a7def</title><g id="a_clust1"><a target="_top" xlink:href="dir_214608ef36d61442cb2b0c1c4e9a7def.xhtml" xlink:title="arm_compute"><polygon fill="#dde" stroke="#000" points="8 -128 8 -287 424 -287 424 -128 8 -128"/><text x="216" y="-275" font-family="Helvetica,sans-Serif" font-size="10" text-anchor="middle">arm_compute</text></a></g></g><g id="clust2" class="cluster"><title>clusterdir_8bc26130589aa16388b5a02f17abf2c2</title><g id="a_clust2"><a target="_top" xlink:href="dir_8bc26130589aa16388b5a02f17abf2c2.xhtml"><polygon fill="#eef" stroke="#000" points="16 -136 16 -260 416 -260 416 -136 16 -136"/></a></g></g><g id="node1" class="node"><title>dir_8bc26130589aa16388b5a02f17abf2c2</title><text x="381" y="-231.5" font-family="Helvetica,sans-Serif" font-size="10" text-anchor="middle">runtime</text></g><g id="node8" class="node"><title>dir_5815af820a9cc9481f1d0990a0d60286</title><g id="a_node8"><a target="_top" xlink:href="dir_5815af820a9cc9481f1d0990a0d60286.xhtml" xlink:title="support"><polygon fill="none" stroke="#000" points="307 -36 253 -36 253 0 307 0 307 -36"/><text x="280" y="-15.5" font-family="Helvetica,sans-Serif" font-size="10" text-anchor="middle">support</text></a></g></g><g id="edge3" class="edge"><title>dir_8bc26130589aa16388b5a02f17abf2c2-&gt;dir_5815af820a9cc9481f1d0990a0d60286</title><path fill="none" stroke="#000" d="M372.905,-215.849C355.324,-178.597 313.541,-90.067 292.525,-45.5391"/><polygon fill="#000" stroke="#000" points="295.566 -43.782 288.133 -36.233 289.236 -46.77 295.566 -43.782"/><g id="a_edge3-headlabel"><a target="_top" xlink:href="dir_000019_000053.xhtml" xlink:title="4"><text x="299.668" y="-43.321" font-family="Helvetica,sans-Serif" font-size="10" text-anchor="middle">4</text></a></g></g><g id="node2" class="node"><title>dir_b986aa98f9b6490bb4fc7918500346fb</title><g id="a_node2"><a target="_top" xlink:href="dir_b986aa98f9b6490bb4fc7918500346fb.xhtml" xlink:title="CL"><polygon fill="#fff" stroke="red" points="222 -252 168 -252 168 -216 222 -216 222 -252"/><text x="195" y="-231.5" font-family="Helvetica,sans-Serif" font-size="10" text-anchor="middle">CL</text></a></g></g><g id="node7" class="node"><title>dir_1fb090f0c6070330bfaccc4236d3ca0d</title><g id="a_node7"><a target="_top" xlink:href="dir_1fb090f0c6070330bfaccc4236d3ca0d.xhtml" xlink:title="core"><polygon fill="#fff" stroke="red" points="243 -108 189 -108 189 -72 243 -72 243 -108"/><text x="216" y="-87.5" font-family="Helvetica,sans-Serif" font-size="10" text-anchor="middle">core</text></a></g></g><g id="edge7" class="edge"><title>dir_b986aa98f9b6490bb4fc7918500346fb-&gt;dir_1fb090f0c6070330bfaccc4236d3ca0d</title><path fill="none" stroke="#000" d="M197.533,-215.871C201.112,-191.67 207.687,-147.211 211.949,-118.393"/><polygon fill="#000" stroke="#000" points="215.457 -118.594 213.458 -108.189 208.533 -117.57 215.457 -118.594"/><g id="a_edge7-headlabel"><a target="_top" xlink:href="dir_000037_000001.xhtml" xlink:title="205"><text x="217.74" y="-120.065" font-family="Helvetica,sans-Serif" font-size="10" text-anchor="middle">205</text></a></g></g><g id="node3" class="node"><title>dir_b496024afd63bafbf4e8da80d7d3a81a</title><g id="a_node3"><a target="_top" xlink:href="dir_b496024afd63bafbf4e8da80d7d3a81a.xhtml" xlink:title="CPP"><polygon fill="#fff" stroke="red" points="150 -180 96 -180 96 -144 150 -144 150 -180"/><text x="123" y="-159.5" font-family="Helvetica,sans-Serif" font-size="10" text-anchor="middle">CPP</text></a></g></g><g id="edge4" class="edge"><title>dir_b496024afd63bafbf4e8da80d7d3a81a-&gt;dir_1fb090f0c6070330bfaccc4236d3ca0d</title><path fill="none" stroke="#000" d="M143.669,-143.97C150.118,-138.764 157.298,-133.074 164,-128 170.073,-123.402 176.634,-118.605 182.984,-114.047"/><polygon fill="#000" stroke="#000" points="185.33 -116.674 191.445 -108.023 181.269 -110.972 185.33 -116.674"/><g id="a_edge4-headlabel"><a target="_top" xlink:href="dir_000040_000001.xhtml" xlink:title="3"><text x="184.048" y="-118.572" font-family="Helvetica,sans-Serif" font-size="10" text-anchor="middle">3</text></a></g></g><g id="node4" class="node"><title>dir_e83fa7cb9796f3ad7be03e3d9fcd3249</title><g id="a_node4"><a target="_top" xlink:href="dir_e83fa7cb9796f3ad7be03e3d9fcd3249.xhtml" xlink:title="GLES_COMPUTE"><polygon fill="#fff" stroke="red" points="335.5 -252 240.5 -252 240.5 -216 335.5 -216 335.5 -252"/><text x="288" y="-231.5" font-family="Helvetica,sans-Serif" font-size="10" text-anchor="middle">GLES_COMPUTE</text></a></g></g><g id="edge6" class="edge"><title>dir_e83fa7cb9796f3ad7be03e3d9fcd3249-&gt;dir_1fb090f0c6070330bfaccc4236d3ca0d</title><path fill="none" stroke="#000" d="M279.315,-215.871C266.882,-191.35 243.904,-146.032 229.314,-117.259"/><polygon fill="#000" stroke="#000" points="232.36 -115.525 224.716 -108.189 226.116 -118.691 232.36 -115.525"/><g id="a_edge6-headlabel"><a target="_top" xlink:href="dir_000042_000001.xhtml" xlink:title="59"><text x="236.518" y="-114.947" font-family="Helvetica,sans-Serif" font-size="10" text-anchor="middle">59</text></a></g></g><g id="node5" class="node"><title>dir_65e289039e1347f87d412b0a1b1a312c</title><g id="a_node5"><a target="_top" xlink:href="dir_65e289039e1347f87d412b0a1b1a312c.xhtml" xlink:title="NEON"><polygon fill="#fff" stroke="red" points="150 -252 96 -252 96 -216 150 -216 150 -252"/><text x="123" y="-231.5" font-family="Helvetica,sans-Serif" font-size="10" text-anchor="middle">NEON</text></a></g></g><g id="edge1" class="edge"><title>dir_65e289039e1347f87d412b0a1b1a312c-&gt;dir_b496024afd63bafbf4e8da80d7d3a81a</title><path fill="none" stroke="#000" d="M123,-215.697C123,-207.983 123,-198.712 123,-190.112"/><polygon fill="#000" stroke="#000" points="126.5 -190.104 123 -180.104 119.5 -190.104 126.5 -190.104"/><g id="a_edge1-headlabel"><a target="_top" xlink:href="dir_000044_000040.xhtml" xlink:title="2"><text x="129.339" y="-191.199" font-family="Helvetica,sans-Serif" font-size="10" text-anchor="middle">2</text></a></g></g><g id="edge2" class="edge"><title>dir_65e289039e1347f87d412b0a1b1a312c-&gt;dir_1fb090f0c6070330bfaccc4236d3ca0d</title><path fill="none" stroke="#000" d="M134.791,-215.893C141.878,-205.549 151.037,-192.071 159,-180 172.938,-158.871 188.407,-134.669 199.709,-116.842"/><polygon fill="#000" stroke="#000" points="202.819 -118.472 205.209 -108.15 196.904 -114.729 202.819 -118.472"/><g id="a_edge2-headlabel"><a target="_top" xlink:href="dir_000044_000001.xhtml" xlink:title="165"><text x="203.296" y="-120.528" font-family="Helvetica,sans-Serif" font-size="10" text-anchor="middle">165</text></a></g></g><g id="node6" class="node"><title>dir_b88a6d23833cc7e200916be8af5e3057</title><g id="a_node6"><a target="_top" xlink:href="dir_b88a6d23833cc7e200916be8af5e3057.xhtml" xlink:title="OMP"><polygon fill="#fff" stroke="#000" points="78 -252 24 -252 24 -216 78 -216 78 -252"/><text x="51" y="-231.5" font-family="Helvetica,sans-Serif" font-size="10" text-anchor="middle">OMP</text></a></g></g><g id="edge5" class="edge"><title>dir_1fb090f0c6070330bfaccc4236d3ca0d-&gt;dir_5815af820a9cc9481f1d0990a0d60286</title><path fill="none" stroke="#000" d="M231.82,-71.6966C239.57,-63.2198 249.039,-52.8636 257.524,-43.5826"/><polygon fill="#000" stroke="#000" points="260.197 -45.846 264.362 -36.104 255.031 -41.123 260.197 -45.846"/><g id="a_edge5-headlabel"><a target="_top" xlink:href="dir_000001_000053.xhtml" xlink:title="13"><text x="259.867" y="-47.915" font-family="Helvetica,sans-Serif" font-size="10" text-anchor="middle">13</text></a></g></g></g></svg>