<svg xmlns="http://www.w3.org/2000/svg" xmlns:xlink="http://www.w3.org/1999/xlink" width="178pt" height="464" viewBox="0 0 178 348"><g id="graph0" class="graph" transform="scale(1 1) rotate(0) translate(4 344)"><title>arm_compute</title><polygon fill="#fff" stroke="none" points="-4 4 -4 -344 174 -344 174 4 -4 4"/><g id="clust1" class="cluster"><title>clusterdir_214608ef36d61442cb2b0c1c4e9a7def</title><g id="a_clust1"><a target="_top" xlink:href="dir_214608ef36d61442cb2b0c1c4e9a7def.xhtml"><polygon fill="#eef" stroke="#000" points="8 -64 8 -332 108 -332 108 -64 8 -64"/></a></g></g><g id="node1" class="node"><title>dir_214608ef36d61442cb2b0c1c4e9a7def</title><text x="58" y="-303.5" font-family="Helvetica,sans-Serif" font-size="10" text-anchor="middle">arm_compute</text></g><g id="node3" class="node"><title>dir_99ae3712d1eecd2a93fc4d38b59a99ba</title><g id="a_node3"><a target="_top" xlink:href="dir_99ae3712d1eecd2a93fc4d38b59a99ba.xhtml" xlink:title="graph"><polygon fill="#fff" stroke="red" points="85 -252 31 -252 31 -216 85 -216 85 -252"/><text x="58" y="-231.5" font-family="Helvetica,sans-Serif" font-size="10" text-anchor="middle">graph</text></a></g></g><g id="edge12" class="edge"><title>dir_214608ef36d61442cb2b0c1c4e9a7def-&gt;dir_99ae3712d1eecd2a93fc4d38b59a99ba</title><path fill="none" stroke="#000" d="M58,-287.697C58,-279.983 58,-270.712 58,-262.112"/><polygon fill="#000" stroke="#000" points="61.5 -262.104 58 -252.104 54.5 -262.104 61.5 -262.104"/><g id="a_edge12-headlabel"><a target="_top" xlink:href="dir_000000_000017.xhtml" xlink:title="25"><text x="64.339" y="-263.199" font-family="Helvetica,sans-Serif" font-size="10" text-anchor="middle">25</text></a></g></g><g id="node2" class="node"><title>dir_1fb090f0c6070330bfaccc4236d3ca0d</title><g id="a_node2"><a target="_top" xlink:href="dir_1fb090f0c6070330bfaccc4236d3ca0d.xhtml" xlink:title="core"><polygon fill="#fff" stroke="red" points="100 -108 46 -108 46 -72 100 -72 100 -108"/><text x="73" y="-87.5" font-family="Helvetica,sans-Serif" font-size="10" text-anchor="middle">core</text></a></g></g><g id="node6" class="node"><title>dir_5815af820a9cc9481f1d0990a0d60286</title><g id="a_node6"><a target="_top" xlink:href="dir_5815af820a9cc9481f1d0990a0d60286.xhtml" xlink:title="support"><polygon fill="none" stroke="#000" points="72 -36 18 -36 18 0 72 0 72 -36"/><text x="45" y="-15.5" font-family="Helvetica,sans-Serif" font-size="10" text-anchor="middle">support</text></a></g></g><g id="edge11" class="edge"><title>dir_1fb090f0c6070330bfaccc4236d3ca0d-&gt;dir_5815af820a9cc9481f1d0990a0d60286</title><path fill="none" stroke="#000" d="M66.0786,-71.6966C62.9253,-63.8132 59.1217,-54.3042 55.6186,-45.5464"/><polygon fill="#000" stroke="#000" points="58.805 -44.089 51.842 -36.104 52.306 -46.689 58.805 -44.089"/><g id="a_edge11-headlabel"><a target="_top" xlink:href="dir_000001_000053.xhtml" xlink:title="13"><text x="62.776" y="-43.872" font-family="Helvetica,sans-Serif" font-size="10" text-anchor="middle">13</text></a></g></g><g id="edge3" class="edge"><title>dir_99ae3712d1eecd2a93fc4d38b59a99ba-&gt;dir_1fb090f0c6070330bfaccc4236d3ca0d</title><path fill="none" stroke="#000" d="M46.6478,-215.795C36.2204,-197.762 23.5692,-168.677 32,-144 35.4413,-133.927 41.6604,-124.284 48.2319,-116.05"/><polygon fill="#000" stroke="#000" points="50.999 -118.2 54.831 -108.323 45.676 -113.654 50.999 -118.2"/><g id="a_edge3-headlabel"><a target="_top" xlink:href="dir_000017_000001.xhtml" xlink:title="22"><text x="50.824" y="-120.277" font-family="Helvetica,sans-Serif" font-size="10" text-anchor="middle">22</text></a></g></g><g id="node4" class="node"><title>dir_8bc26130589aa16388b5a02f17abf2c2</title><g id="a_node4"><a target="_top" xlink:href="dir_8bc26130589aa16388b5a02f17abf2c2.xhtml" xlink:title="runtime"><polygon fill="#fff" stroke="red" points="95 -180 41 -180 41 -144 95 -144 95 -180"/><text x="68" y="-159.5" font-family="Helvetica,sans-Serif" font-size="10" text-anchor="middle">runtime</text></a></g></g><g id="edge2" class="edge"><title>dir_99ae3712d1eecd2a93fc4d38b59a99ba-&gt;dir_8bc26130589aa16388b5a02f17abf2c2</title><path fill="none" stroke="#000" d="M60.4719,-215.697C61.5739,-207.983 62.8982,-198.712 64.1268,-190.112"/><polygon fill="#000" stroke="#000" points="67.607 -190.499 65.556 -180.104 60.677 -189.509 67.607 -190.499"/><g id="a_edge2-headlabel"><a target="_top" xlink:href="dir_000017_000019.xhtml" xlink:title="18"><text x="69.909" y="-191.959" font-family="Helvetica,sans-Serif" font-size="10" text-anchor="middle">18</text></a></g></g><g id="node5" class="node"><title>dir_cbdb8362360e11eafe2fa3bc74cf0ffd</title><g id="a_node5"><a target="_top" xlink:href="dir_cbdb8362360e11eafe2fa3bc74cf0ffd.xhtml" xlink:title="utils"><polygon fill="#fff" stroke="red" points="170 -252 116 -252 116 -216 170 -216 170 -252"/><text x="143" y="-231.5" font-family="Helvetica,sans-Serif" font-size="10" text-anchor="middle">utils</text></a></g></g><g id="edge1" class="edge"><title>dir_99ae3712d1eecd2a93fc4d38b59a99ba-&gt;dir_cbdb8362360e11eafe2fa3bc74cf0ffd</title><path fill="none" stroke="#000" d="M85.2266,-234C92.1003,-234 98.9741,-234 105.848,-234"/><polygon fill="#000" stroke="#000" points="105.919 -237.5 115.919 -234 105.919 -230.5 105.919 -237.5"/><g id="a_edge1-headlabel"><a target="_top" xlink:href="dir_000017_000023.xhtml" xlink:title="1"><text x="102.324" y="-237.839" font-family="Helvetica,sans-Serif" font-size="10" text-anchor="middle">1</text></a></g></g><g id="edge4" class="edge"><title>dir_99ae3712d1eecd2a93fc4d38b59a99ba-&gt;dir_5815af820a9cc9481f1d0990a0d60286</title><path fill="none" stroke="#000" d="M44.4357,-215.972C37.4419,-206.09 29.6332,-193.047 26,-180 21.1584,-162.614 25.3597,-88.679 30,-64 31.1308,-57.9857 32.8691,-51.6712 34.7669,-45.7376"/><polygon fill="#000" stroke="#000" points="38.094 -46.826 38.032 -36.231 31.473 -44.552 38.094 -46.826"/><g id="a_edge4-headlabel"><a target="_top" xlink:href="dir_000017_000053.xhtml" xlink:title="3"><text x="39.611" y="-48.648" font-family="Helvetica,sans-Serif" font-size="10" text-anchor="middle">3</text></a></g></g><g id="edge9" class="edge"><title>dir_8bc26130589aa16388b5a02f17abf2c2-&gt;dir_1fb090f0c6070330bfaccc4236d3ca0d</title><path fill="none" stroke="#000" d="M69.236,-143.697C69.7869,-135.983 70.4491,-126.712 71.0634,-118.112"/><polygon fill="#000" stroke="#000" points="74.557 -118.328 71.778 -108.104 67.575 -117.83 74.557 -118.328"/><g id="a_edge9-headlabel"><a target="_top" xlink:href="dir_000019_000001.xhtml" xlink:title="458"><text x="77.133" y="-119.616" font-family="Helvetica,sans-Serif" font-size="10" text-anchor="middle">458</text></a></g></g><g id="edge10" class="edge"><title>dir_8bc26130589aa16388b5a02f17abf2c2-&gt;dir_5815af820a9cc9481f1d0990a0d60286</title><path fill="none" stroke="#000" d="M54.8544,-143.908C48.0775,-134.006 40.5129,-120.964 37,-108 31.4713,-87.5972 34.0943,-63.7 37.7578,-45.8083"/><polygon fill="#000" stroke="#000" points="41.175 -46.567 39.981 -36.04 34.349 -45.014 41.175 -46.567"/><g id="a_edge10-headlabel"><a target="_top" xlink:href="dir_000019_000053.xhtml" xlink:title="4"><text x="43.145" y="-48.202" font-family="Helvetica,sans-Serif" font-size="10" text-anchor="middle">4</text></a></g></g><g id="edge7" class="edge"><title>dir_cbdb8362360e11eafe2fa3bc74cf0ffd-&gt;dir_1fb090f0c6070330bfaccc4236d3ca0d</title><path fill="none" stroke="#000" d="M136.24,-215.998C128.879,-197.884 116.481,-168.502 104,-144 99.452,-135.071 94.0643,-125.554 89.0667,-117.084"/><polygon fill="#000" stroke="#000" points="91.996 -115.162 83.855 -108.381 85.99 -118.759 91.996 -115.162"/><g id="a_edge7-headlabel"><a target="_top" xlink:href="dir_000023_000001.xhtml" xlink:title="25"><text x="96.278" y="-114.288" font-family="Helvetica,sans-Serif" font-size="10" text-anchor="middle">25</text></a></g></g><g id="edge5" class="edge"><title>dir_cbdb8362360e11eafe2fa3bc74cf0ffd-&gt;dir_99ae3712d1eecd2a93fc4d38b59a99ba</title><path fill="none" stroke="#000" d="M115.919,-234C109.045,-234 102.171,-234 95.2974,-234"/><polygon fill="#000" stroke="#000" points="95.227 -230.5 85.227 -234 95.227 -237.5 95.227 -230.5"/><g id="a_edge5-headlabel"><a target="_top" xlink:href="dir_000023_000017.xhtml" xlink:title="8"><text x="98.821" y="-225.161" font-family="Helvetica,sans-Serif" font-size="10" text-anchor="middle">8</text></a></g></g><g id="edge6" class="edge"><title>dir_cbdb8362360e11eafe2fa3bc74cf0ffd-&gt;dir_8bc26130589aa16388b5a02f17abf2c2</title><path fill="none" stroke="#000" d="M124.461,-215.697C115.197,-207.05 103.838,-196.449 93.7433,-187.027"/><polygon fill="#000" stroke="#000" points="96.025 -184.369 86.326 -180.104 91.249 -189.486 96.025 -184.369"/><g id="a_edge6-headlabel"><a target="_top" xlink:href="dir_000023_000019.xhtml" xlink:title="3"><text x="100.59" y="-182.246" font-family="Helvetica,sans-Serif" font-size="10" text-anchor="middle">3</text></a></g></g><g id="edge8" class="edge"><title>dir_cbdb8362360e11eafe2fa3bc74cf0ffd-&gt;dir_5815af820a9cc9481f1d0990a0d60286</title><path fill="none" stroke="#000" d="M144.045,-215.574C145.14,-183.01 143.406,-111.895 112,-64 104.347,-52.3282 92.5053,-42.9264 80.894,-35.7953"/><polygon fill="#000" stroke="#000" points="82.551 -32.711 72.133 -30.785 79.076 -38.788 82.551 -32.711"/><g id="a_edge8-headlabel"><a target="_top" xlink:href="dir_000023_000053.xhtml" xlink:title="3"><text x="87.081" y="-29.531" font-family="Helvetica,sans-Serif" font-size="10" text-anchor="middle">3</text></a></g></g></g></svg>