<svg xmlns="http://www.w3.org/2000/svg" xmlns:xlink="http://www.w3.org/1999/xlink" width="331pt" height="1517pt" viewBox="0 0 331 1516.5"><g id="graph0" class="graph" transform="scale(1 1) rotate(0) translate(4 1512.5)"><title>Graphical Class Hierarchy</title><polygon fill="#fff" stroke="none" points="-4 4 -4 -1512.5 327 -1512.5 327 4 -4 4"/><g id="node1" class="node"><title>Node1</title><g id="a_node1"><a target="_top" xlink:href="classarm__compute_1_1test_1_1framework_1_1_test_case.xhtml" xlink:title="Abstract test case class."><polygon fill="#fff" stroke="#000" points="0 -772 0 -791 59 -791 59 -772 0 -772"/><text x="29.5" y="-779" font-family="Helvetica,sans-Serif" font-size="10" text-anchor="middle">TestCase</text></a></g></g><g id="node2" class="node"><title>Node2</title><g id="a_node2"><a target="_top" xlink:href="classarm__compute_1_1test_1_1framework_1_1_data_test_case.xhtml" xlink:title="Data test case class."><polygon fill="#fff" stroke="#000" points="154 -1489 154 -1508 264 -1508 264 -1489 154 -1489"/><text x="209" y="-1496" font-family="Helvetica,sans-Serif" font-size="10" text-anchor="middle">DataTestCase&lt; T &gt;</text></a></g></g><g id="edge1" class="edge"><title>Node1-&gt;Node2</title><path fill="none" stroke="#191970" d="M30.9145,-801.237C33.3714,-909.518 47.571,-1428.4 95,-1479.5 109.819,-1495.47 132.635,-1501.25 153.896,-1502.64"/><polygon fill="#191970" stroke="#191970" points="34.41 -801 30.692 -791.079 27.412 -801.153 34.41 -801"/></g><g id="node3" class="node"><title>Node3</title><g id="a_node3"><a target="_top" xlink:href="classarm__compute_1_1test_1_1framework_1_1_data_test_case.xhtml" xlink:title="DataTestCase\&lt; decltype\l(framework::dataset::combine\l(framework::dataset::combine\l(datasets::AlexNetActivationLayerDataset\l(), data_types), framework::dataset\l::make(&quot;Batches&quot;, 1)))::type \&gt;"><polygon fill="#fff" stroke="#000" points="100 -1395.5 100 -1469.5 318 -1469.5 318 -1395.5 100 -1395.5"/><text x="108" y="-1457.5" font-family="Helvetica,sans-Serif" font-size="10" text-anchor="start">DataTestCase&lt; decltype</text><text x="108" y="-1446.5" font-family="Helvetica,sans-Serif" font-size="10" text-anchor="start">(framework::dataset::combine</text><text x="108" y="-1435.5" font-family="Helvetica,sans-Serif" font-size="10" text-anchor="start">(framework::dataset::combine</text><text x="108" y="-1424.5" font-family="Helvetica,sans-Serif" font-size="10" text-anchor="start">(datasets::AlexNetActivationLayerDataset</text><text x="108" y="-1413.5" font-family="Helvetica,sans-Serif" font-size="10" text-anchor="start">(), data_types), framework::dataset</text><text x="209" y="-1402.5" font-family="Helvetica,sans-Serif" font-size="10" text-anchor="middle">::make(&quot;Batches&quot;, 1)))::type &gt;</text></a></g></g><g id="edge2" class="edge"><title>Node1-&gt;Node3</title><path fill="none" stroke="#191970" d="M31.4071,-801.173C36.1159,-899.91 58.9494,-1338.6 95,-1386.5 97.4202,-1389.72 100.104,-1392.71 102.998,-1395.49"/><polygon fill="#191970" stroke="#191970" points="34.899 -800.914 30.933 -791.089 27.907 -801.242 34.899 -800.914"/></g><g id="node4" class="node"><title>Node4</title><g id="a_node4"><a target="_top" xlink:href="classarm__compute_1_1test_1_1framework_1_1_data_test_case.xhtml" xlink:title="DataTestCase\&lt; decltype\l(framework::dataset::combine\l(framework::dataset::combine\l(datasets::AlexNetActivationLayerDataset\l(), data_types), framework::dataset\l::make(&quot;Batches&quot;,\{4, 8\})))::type \&gt;"><polygon fill="#fff" stroke="#000" points="100 -1302.5 100 -1376.5 318 -1376.5 318 -1302.5 100 -1302.5"/><text x="108" y="-1364.5" font-family="Helvetica,sans-Serif" font-size="10" text-anchor="start">DataTestCase&lt; decltype</text><text x="108" y="-1353.5" font-family="Helvetica,sans-Serif" font-size="10" text-anchor="start">(framework::dataset::combine</text><text x="108" y="-1342.5" font-family="Helvetica,sans-Serif" font-size="10" text-anchor="start">(framework::dataset::combine</text><text x="108" y="-1331.5" font-family="Helvetica,sans-Serif" font-size="10" text-anchor="start">(datasets::AlexNetActivationLayerDataset</text><text x="108" y="-1320.5" font-family="Helvetica,sans-Serif" font-size="10" text-anchor="start">(), data_types), framework::dataset</text><text x="209" y="-1309.5" font-family="Helvetica,sans-Serif" font-size="10" text-anchor="middle">::make(&quot;Batches&quot;,{4, 8})))::type &gt;</text></a></g></g><g id="edge3" class="edge"><title>Node1-&gt;Node4</title><path fill="none" stroke="#191970" d="M30.4063,-801.409C30.3899,-885.943 34.2948,-1214.43 95,-1293.5 97.4508,-1296.69 100.16,-1299.66 103.076,-1302.43"/><polygon fill="#191970" stroke="#191970" points="33.907 -801.159 30.429 -791.151 26.907 -801.143 33.907 -801.159"/></g><g id="node5" class="node"><title>Node5</title><g id="a_node5"><a target="_top" xlink:href="classarm__compute_1_1test_1_1framework_1_1_data_test_case.xhtml" xlink:title="DataTestCase\&lt; decltype\l(framework::dataset::combine\l(framework::dataset::combine\l(datasets::GoogLeNetInceptionV1Activation\lLayerDataset(), data_types), framework\l::dataset::make(&quot;Batches&quot;, 1)))::type \&gt;"><polygon fill="#fff" stroke="#000" points="96 -1209.5 96 -1283.5 322 -1283.5 322 -1209.5 96 -1209.5"/><text x="104" y="-1271.5" font-family="Helvetica,sans-Serif" font-size="10" text-anchor="start">DataTestCase&lt; decltype</text><text x="104" y="-1260.5" font-family="Helvetica,sans-Serif" font-size="10" text-anchor="start">(framework::dataset::combine</text><text x="104" y="-1249.5" font-family="Helvetica,sans-Serif" font-size="10" text-anchor="start">(framework::dataset::combine</text><text x="104" y="-1238.5" font-family="Helvetica,sans-Serif" font-size="10" text-anchor="start">(datasets::GoogLeNetInceptionV1Activation</text><text x="104" y="-1227.5" font-family="Helvetica,sans-Serif" font-size="10" text-anchor="start">LayerDataset(), data_types), framework</text><text x="209" y="-1216.5" font-family="Helvetica,sans-Serif" font-size="10" text-anchor="middle">::dataset::make(&quot;Batches&quot;, 1)))::type &gt;</text></a></g></g><g id="edge4" class="edge"><title>Node1-&gt;Node5</title><path fill="none" stroke="#191970" d="M31.0289,-801.474C33.3805,-876.072 45.097,-1137.31 95,-1200.5 97.4943,-1203.66 100.241,-1206.6 103.188,-1209.34"/><polygon fill="#191970" stroke="#191970" points="34.518 -801.056 30.727 -791.162 27.521 -801.26 34.518 -801.056"/></g><g id="node6" class="node"><title>Node6</title><g id="a_node6"><a target="_top" xlink:href="classarm__compute_1_1test_1_1framework_1_1_data_test_case.xhtml" xlink:title="DataTestCase\&lt; decltype\l(framework::dataset::combine\l(framework::dataset::combine\l(datasets::GoogLeNetInceptionV1Activation\lLayerDataset(), data_types), framework\l::dataset::make(&quot;Batches&quot;,\{4, 8\})))::type \&gt;"><polygon fill="#fff" stroke="#000" points="96 -1116.5 96 -1190.5 322 -1190.5 322 -1116.5 96 -1116.5"/><text x="104" y="-1178.5" font-family="Helvetica,sans-Serif" font-size="10" text-anchor="start">DataTestCase&lt; decltype</text><text x="104" y="-1167.5" font-family="Helvetica,sans-Serif" font-size="10" text-anchor="start">(framework::dataset::combine</text><text x="104" y="-1156.5" font-family="Helvetica,sans-Serif" font-size="10" text-anchor="start">(framework::dataset::combine</text><text x="104" y="-1145.5" font-family="Helvetica,sans-Serif" font-size="10" text-anchor="start">(datasets::GoogLeNetInceptionV1Activation</text><text x="104" y="-1134.5" font-family="Helvetica,sans-Serif" font-size="10" text-anchor="start">LayerDataset(), data_types), framework</text><text x="209" y="-1123.5" font-family="Helvetica,sans-Serif" font-size="10" text-anchor="middle">::dataset::make(&quot;Batches&quot;,{4, 8})))::type &gt;</text></a></g></g><g id="edge5" class="edge"><title>Node1-&gt;Node6</title><path fill="none" stroke="#191970" d="M31.988,-801.366C37.0904,-864.619 55.771,-1059.95 95,-1107.5 97.561,-1110.6 100.364,-1113.5 103.36,-1116.2"/><polygon fill="#191970" stroke="#191970" points="35.459 -800.855 31.191 -791.158 28.48 -801.4 35.459 -800.855"/></g><g id="node7" class="node"><title>Node7</title><g id="a_node7"><a target="_top" xlink:href="classarm__compute_1_1test_1_1framework_1_1_data_test_case.xhtml" xlink:title="DataTestCase\&lt; decltype\l(framework::dataset::combine\l(framework::dataset::combine\l(datasets::GoogLeNetInceptionV4Activation\lLayerDataset(), data_types), framework\l::dataset::make(&quot;Batches&quot;, 1)))::type \&gt;"><polygon fill="#fff" stroke="#000" points="96 -1023.5 96 -1097.5 322 -1097.5 322 -1023.5 96 -1023.5"/><text x="104" y="-1085.5" font-family="Helvetica,sans-Serif" font-size="10" text-anchor="start">DataTestCase&lt; decltype</text><text x="104" y="-1074.5" font-family="Helvetica,sans-Serif" font-size="10" text-anchor="start">(framework::dataset::combine</text><text x="104" y="-1063.5" font-family="Helvetica,sans-Serif" font-size="10" text-anchor="start">(framework::dataset::combine</text><text x="104" y="-1052.5" font-family="Helvetica,sans-Serif" font-size="10" text-anchor="start">(datasets::GoogLeNetInceptionV4Activation</text><text x="104" y="-1041.5" font-family="Helvetica,sans-Serif" font-size="10" text-anchor="start">LayerDataset(), data_types), framework</text><text x="209" y="-1030.5" font-family="Helvetica,sans-Serif" font-size="10" text-anchor="middle">::dataset::make(&quot;Batches&quot;, 1)))::type &gt;</text></a></g></g><g id="edge6" class="edge"><title>Node1-&gt;Node7</title><path fill="none" stroke="#191970" d="M30.4087,-801.596C31.2841,-845.706 39.4224,-952.037 95,-1014.5 97.816,-1017.66 100.882,-1020.62 104.141,-1023.37"/><polygon fill="#191970" stroke="#191970" points="33.906 -801.307 30.319 -791.338 26.907 -801.368 33.906 -801.307"/></g><g id="node8" class="node"><title>Node8</title><g id="a_node8"><a target="_top" xlink:href="classarm__compute_1_1test_1_1framework_1_1_data_test_case.xhtml" xlink:title="DataTestCase\&lt; decltype\l(framework::dataset::combine\l(framework::dataset::combine\l(datasets::GoogLeNetInceptionV4Activation\lLayerDataset(), data_types), framework\l::dataset::make(&quot;Batches&quot;,\{4, 8\})))::type \&gt;"><polygon fill="#fff" stroke="#000" points="96 -930.5 96 -1004.5 322 -1004.5 322 -930.5 96 -930.5"/><text x="104" y="-992.5" font-family="Helvetica,sans-Serif" font-size="10" text-anchor="start">DataTestCase&lt; decltype</text><text x="104" y="-981.5" font-family="Helvetica,sans-Serif" font-size="10" text-anchor="start">(framework::dataset::combine</text><text x="104" y="-970.5" font-family="Helvetica,sans-Serif" font-size="10" text-anchor="start">(framework::dataset::combine</text><text x="104" y="-959.5" font-family="Helvetica,sans-Serif" font-size="10" text-anchor="start">(datasets::GoogLeNetInceptionV4Activation</text><text x="104" y="-948.5" font-family="Helvetica,sans-Serif" font-size="10" text-anchor="start">LayerDataset(), data_types), framework</text><text x="209" y="-937.5" font-family="Helvetica,sans-Serif" font-size="10" text-anchor="middle">::dataset::make(&quot;Batches&quot;,{4, 8})))::type &gt;</text></a></g></g><g id="edge7" class="edge"><title>Node1-&gt;Node8</title><path fill="none" stroke="#191970" d="M34.6472,-801.069C41.9157,-830.87 59.6635,-887.723 95,-921.5 98.292,-924.647 101.828,-927.589 105.544,-930.34"/><polygon fill="#191970" stroke="#191970" points="38.003 -800.043 32.36 -791.076 31.18 -801.605 38.003 -800.043"/></g><g id="node9" class="node"><title>Node9</title><g id="a_node9"><a target="_top" xlink:href="classarm__compute_1_1test_1_1framework_1_1_data_test_case.xhtml" xlink:title="DataTestCase\&lt; decltype\l(framework::dataset::combine\l(framework::dataset::combine\l(datasets::LeNet5ActivationLayerDataset\l(), data_types), framework::dataset\l::make(&quot;Batches&quot;, 1)))::type \&gt;"><polygon fill="#fff" stroke="#000" points="101.5 -837.5 101.5 -911.5 316.5 -911.5 316.5 -837.5 101.5 -837.5"/><text x="109.5" y="-899.5" font-family="Helvetica,sans-Serif" font-size="10" text-anchor="start">DataTestCase&lt; decltype</text><text x="109.5" y="-888.5" font-family="Helvetica,sans-Serif" font-size="10" text-anchor="start">(framework::dataset::combine</text><text x="109.5" y="-877.5" font-family="Helvetica,sans-Serif" font-size="10" text-anchor="start">(framework::dataset::combine</text><text x="109.5" y="-866.5" font-family="Helvetica,sans-Serif" font-size="10" text-anchor="start">(datasets::LeNet5ActivationLayerDataset</text><text x="109.5" y="-855.5" font-family="Helvetica,sans-Serif" font-size="10" text-anchor="start">(), data_types), framework::dataset</text><text x="209" y="-844.5" font-family="Helvetica,sans-Serif" font-size="10" text-anchor="middle">::make(&quot;Batches&quot;, 1)))::type &gt;</text></a></g></g><g id="edge8" class="edge"><title>Node1-&gt;Node9</title><path fill="none" stroke="#191970" d="M49.6418,-797.359C62.0571,-807.152 78.8704,-819.517 95,-828.5 100.551,-831.592 106.354,-834.591 112.271,-837.476"/><polygon fill="#191970" stroke="#191970" points="51.798 -794.602 41.812 -791.064 47.412 -800.057 51.798 -794.602"/></g><g id="node10" class="node"><title>Node10</title><g id="a_node10"><a target="_top" xlink:href="classarm__compute_1_1test_1_1framework_1_1_data_test_case.xhtml" xlink:title="DataTestCase\&lt; decltype\l(framework::dataset::combine\l(framework::dataset::combine\l(datasets::LeNet5ActivationLayerDataset\l(), data_types), framework::dataset\l::make(&quot;Batches&quot;,\{4, 8\})))::type \&gt;"><polygon fill="#fff" stroke="#000" points="101.5 -744.5 101.5 -818.5 316.5 -818.5 316.5 -744.5 101.5 -744.5"/><text x="109.5" y="-806.5" font-family="Helvetica,sans-Serif" font-size="10" text-anchor="start">DataTestCase&lt; decltype</text><text x="109.5" y="-795.5" font-family="Helvetica,sans-Serif" font-size="10" text-anchor="start">(framework::dataset::combine</text><text x="109.5" y="-784.5" font-family="Helvetica,sans-Serif" font-size="10" text-anchor="start">(framework::dataset::combine</text><text x="109.5" y="-773.5" font-family="Helvetica,sans-Serif" font-size="10" text-anchor="start">(datasets::LeNet5ActivationLayerDataset</text><text x="109.5" y="-762.5" font-family="Helvetica,sans-Serif" font-size="10" text-anchor="start">(), data_types), framework::dataset</text><text x="209" y="-751.5" font-family="Helvetica,sans-Serif" font-size="10" text-anchor="middle">::make(&quot;Batches&quot;,{4, 8})))::type &gt;</text></a></g></g><g id="edge9" class="edge"><title>Node1-&gt;Node10</title><path fill="none" stroke="#191970" d="M69.0928,-781.5C78.8467,-781.5 89.804,-781.5 101.175,-781.5"/><polygon fill="#191970" stroke="#191970" points="69.019 -778 59.018 -781.5 69.018 -785 69.019 -778"/></g><g id="node11" class="node"><title>Node11</title><g id="a_node11"><a target="_top" xlink:href="classarm__compute_1_1test_1_1framework_1_1_data_test_case.xhtml" xlink:title="DataTestCase\&lt; decltype\l(framework::dataset::combine\l(framework::dataset::combine\l(datasets::MobileNetActivationLayerDataset\l(), data_types_mobilenet), framework\l::dataset::make(&quot;Batches&quot;, 1)))::type \&gt;"><polygon fill="#fff" stroke="#000" points="95 -651.5 95 -725.5 323 -725.5 323 -651.5 95 -651.5"/><text x="103" y="-713.5" font-family="Helvetica,sans-Serif" font-size="10" text-anchor="start">DataTestCase&lt; decltype</text><text x="103" y="-702.5" font-family="Helvetica,sans-Serif" font-size="10" text-anchor="start">(framework::dataset::combine</text><text x="103" y="-691.5" font-family="Helvetica,sans-Serif" font-size="10" text-anchor="start">(framework::dataset::combine</text><text x="103" y="-680.5" font-family="Helvetica,sans-Serif" font-size="10" text-anchor="start">(datasets::MobileNetActivationLayerDataset</text><text x="103" y="-669.5" font-family="Helvetica,sans-Serif" font-size="10" text-anchor="start">(), data_types_mobilenet), framework</text><text x="209" y="-658.5" font-family="Helvetica,sans-Serif" font-size="10" text-anchor="middle">::dataset::make(&quot;Batches&quot;, 1)))::type &gt;</text></a></g></g><g id="edge10" class="edge"><title>Node1-&gt;Node11</title><path fill="none" stroke="#191970" d="M50.5312,-765.425C62.8885,-755.971 79.3245,-744.203 95,-735.5 101.13,-732.096 107.558,-728.789 114.104,-725.61"/><polygon fill="#191970" stroke="#191970" points="48.058 -762.915 42.323 -771.823 52.362 -768.436 48.058 -762.915"/></g><g id="node12" class="node"><title>Node12</title><g id="a_node12"><a target="_top" xlink:href="classarm__compute_1_1test_1_1framework_1_1_data_test_case.xhtml" xlink:title="DataTestCase\&lt; decltype\l(framework::dataset::combine\l(framework::dataset::combine\l(datasets::MobileNetActivationLayerDataset\l(), data_types_mobilenet), framework\l::dataset::make(&quot;Batches&quot;,\{4, 8\})))::type \&gt;"><polygon fill="#fff" stroke="#000" points="95 -558.5 95 -632.5 323 -632.5 323 -558.5 95 -558.5"/><text x="103" y="-620.5" font-family="Helvetica,sans-Serif" font-size="10" text-anchor="start">DataTestCase&lt; decltype</text><text x="103" y="-609.5" font-family="Helvetica,sans-Serif" font-size="10" text-anchor="start">(framework::dataset::combine</text><text x="103" y="-598.5" font-family="Helvetica,sans-Serif" font-size="10" text-anchor="start">(framework::dataset::combine</text><text x="103" y="-587.5" font-family="Helvetica,sans-Serif" font-size="10" text-anchor="start">(datasets::MobileNetActivationLayerDataset</text><text x="103" y="-576.5" font-family="Helvetica,sans-Serif" font-size="10" text-anchor="start">(), data_types_mobilenet), framework</text><text x="209" y="-565.5" font-family="Helvetica,sans-Serif" font-size="10" text-anchor="middle">::dataset::make(&quot;Batches&quot;,{4, 8})))::type &gt;</text></a></g></g><g id="edge11" class="edge"><title>Node1-&gt;Node12</title><path fill="none" stroke="#191970" d="M34.8264,-761.67C42.2554,-732.008 60.123,-675.999 95,-642.5 98.6777,-638.968 102.659,-635.684 106.855,-632.635"/><polygon fill="#191970" stroke="#191970" points="31.363 -761.11 32.477 -771.646 38.176 -762.715 31.363 -761.11"/></g><g id="node13" class="node"><title>Node13</title><g id="a_node13"><a target="_top" xlink:href="classarm__compute_1_1test_1_1framework_1_1_data_test_case.xhtml" xlink:title="DataTestCase\&lt; decltype\l(framework::dataset::combine\l(framework::dataset::combine\l(datasets::SqueezeNetActivationLayer\lDataset(), data_types), framework\l::dataset::make(&quot;Batches&quot;, 1)))::type \&gt;"><polygon fill="#fff" stroke="#000" points="107 -465.5 107 -539.5 311 -539.5 311 -465.5 107 -465.5"/><text x="115" y="-527.5" font-family="Helvetica,sans-Serif" font-size="10" text-anchor="start">DataTestCase&lt; decltype</text><text x="115" y="-516.5" font-family="Helvetica,sans-Serif" font-size="10" text-anchor="start">(framework::dataset::combine</text><text x="115" y="-505.5" font-family="Helvetica,sans-Serif" font-size="10" text-anchor="start">(framework::dataset::combine</text><text x="115" y="-494.5" font-family="Helvetica,sans-Serif" font-size="10" text-anchor="start">(datasets::SqueezeNetActivationLayer</text><text x="115" y="-483.5" font-family="Helvetica,sans-Serif" font-size="10" text-anchor="start">Dataset(), data_types), framework</text><text x="209" y="-472.5" font-family="Helvetica,sans-Serif" font-size="10" text-anchor="middle">::dataset::make(&quot;Batches&quot;, 1)))::type &gt;</text></a></g></g><g id="edge12" class="edge"><title>Node1-&gt;Node13</title><path fill="none" stroke="#191970" d="M30.4711,-761.519C31.4717,-717.657 39.8452,-611.893 95,-549.5 98.5885,-545.441 102.583,-541.724 106.868,-538.321"/><polygon fill="#191970" stroke="#191970" points="26.969 -761.679 30.351 -771.72 33.969 -761.762 26.969 -761.679"/></g><g id="node14" class="node"><title>Node14</title><g id="a_node14"><a target="_top" xlink:href="classarm__compute_1_1test_1_1framework_1_1_data_test_case.xhtml" xlink:title="DataTestCase\&lt; decltype\l(framework::dataset::combine\l(framework::dataset::combine\l(datasets::SqueezeNetActivationLayer\lDataset(), data_types), framework\l::dataset::make(&quot;Batches&quot;,\{4, 8\})))::type \&gt;"><polygon fill="#fff" stroke="#000" points="96.5 -372.5 96.5 -446.5 321.5 -446.5 321.5 -372.5 96.5 -372.5"/><text x="104.5" y="-434.5" font-family="Helvetica,sans-Serif" font-size="10" text-anchor="start">DataTestCase&lt; decltype</text><text x="104.5" y="-423.5" font-family="Helvetica,sans-Serif" font-size="10" text-anchor="start">(framework::dataset::combine</text><text x="104.5" y="-412.5" font-family="Helvetica,sans-Serif" font-size="10" text-anchor="start">(framework::dataset::combine</text><text x="104.5" y="-401.5" font-family="Helvetica,sans-Serif" font-size="10" text-anchor="start">(datasets::SqueezeNetActivationLayer</text><text x="104.5" y="-390.5" font-family="Helvetica,sans-Serif" font-size="10" text-anchor="start">Dataset(), data_types), framework</text><text x="209" y="-379.5" font-family="Helvetica,sans-Serif" font-size="10" text-anchor="middle">::dataset::make(&quot;Batches&quot;,{4, 8})))::type &gt;</text></a></g></g><g id="edge13" class="edge"><title>Node1-&gt;Node14</title><path fill="none" stroke="#191970" d="M32.011,-761.706C37.1834,-698.683 56.0526,-504.049 95,-456.5 97.8274,-453.048 100.951,-449.846 104.304,-446.877"/><polygon fill="#191970" stroke="#191970" points="28.506 -761.632 31.203 -771.878 35.484 -762.186 28.506 -761.632"/></g><g id="node15" class="node"><title>Node15</title><g id="a_node15"><a target="_top" xlink:href="classarm__compute_1_1test_1_1framework_1_1_data_test_case.xhtml" xlink:title="DataTestCase\&lt; decltype\l(framework::dataset::combine\l(framework::dataset::combine\l(datasets::VGG16ActivationLayerDataset\l(), data_types), framework::dataset\l::make(&quot;Batches&quot;, 1)))::type \&gt;"><polygon fill="#fff" stroke="#000" points="102 -279.5 102 -353.5 316 -353.5 316 -279.5 102 -279.5"/><text x="110" y="-341.5" font-family="Helvetica,sans-Serif" font-size="10" text-anchor="start">DataTestCase&lt; decltype</text><text x="110" y="-330.5" font-family="Helvetica,sans-Serif" font-size="10" text-anchor="start">(framework::dataset::combine</text><text x="110" y="-319.5" font-family="Helvetica,sans-Serif" font-size="10" text-anchor="start">(framework::dataset::combine</text><text x="110" y="-308.5" font-family="Helvetica,sans-Serif" font-size="10" text-anchor="start">(datasets::VGG16ActivationLayerDataset</text><text x="110" y="-297.5" font-family="Helvetica,sans-Serif" font-size="10" text-anchor="start">(), data_types), framework::dataset</text><text x="209" y="-286.5" font-family="Helvetica,sans-Serif" font-size="10" text-anchor="middle">::make(&quot;Batches&quot;, 1)))::type &gt;</text></a></g></g><g id="edge14" class="edge"><title>Node1-&gt;Node15</title><path fill="none" stroke="#191970" d="M31.0507,-761.586C33.4805,-687.206 45.4409,-426.719 95,-363.5 97.7528,-359.988 100.814,-356.737 104.116,-353.726"/><polygon fill="#191970" stroke="#191970" points="27.544 -761.765 30.738 -771.866 34.541 -761.977 27.544 -761.765"/></g><g id="node16" class="node"><title>Node16</title><g id="a_node16"><a target="_top" xlink:href="classarm__compute_1_1test_1_1framework_1_1_data_test_case.xhtml" xlink:title="DataTestCase\&lt; decltype\l(framework::dataset::combine\l(framework::dataset::combine\l(datasets::VGG16ActivationLayerDataset\l(), data_types), framework::dataset\l::make(&quot;Batches&quot;,\{4, 8\})))::type \&gt;"><polygon fill="#fff" stroke="#000" points="102 -186.5 102 -260.5 316 -260.5 316 -186.5 102 -186.5"/><text x="110" y="-248.5" font-family="Helvetica,sans-Serif" font-size="10" text-anchor="start">DataTestCase&lt; decltype</text><text x="110" y="-237.5" font-family="Helvetica,sans-Serif" font-size="10" text-anchor="start">(framework::dataset::combine</text><text x="110" y="-226.5" font-family="Helvetica,sans-Serif" font-size="10" text-anchor="start">(framework::dataset::combine</text><text x="110" y="-215.5" font-family="Helvetica,sans-Serif" font-size="10" text-anchor="start">(datasets::VGG16ActivationLayerDataset</text><text x="110" y="-204.5" font-family="Helvetica,sans-Serif" font-size="10" text-anchor="start">(), data_types), framework::dataset</text><text x="209" y="-193.5" font-family="Helvetica,sans-Serif" font-size="10" text-anchor="middle">::make(&quot;Batches&quot;,{4, 8})))::type &gt;</text></a></g></g><g id="edge15" class="edge"><title>Node1-&gt;Node16</title><path fill="none" stroke="#191970" d="M30.4272,-761.642C30.4961,-677.319 34.701,-349.639 95,-270.5 97.7042,-266.951 100.725,-263.668 103.993,-260.631"/><polygon fill="#191970" stroke="#191970" points="26.927 -761.878 30.439 -771.873 33.927 -761.869 26.927 -761.878"/></g><g id="node17" class="node"><title>Node17</title><g id="a_node17"><a target="_top" xlink:href="classarm__compute_1_1test_1_1framework_1_1_data_test_case.xhtml" xlink:title="DataTestCase\&lt; decltype\l(framework::dataset::combine\l(framework::dataset::combine\l(datasets::YOLOV2ActivationLayerDataset\l(), data_types), framework::dataset\l::make(&quot;Batches&quot;, 1)))::type \&gt;"><polygon fill="#fff" stroke="#000" points="100 -93.5 100 -167.5 318 -167.5 318 -93.5 100 -93.5"/><text x="108" y="-155.5" font-family="Helvetica,sans-Serif" font-size="10" text-anchor="start">DataTestCase&lt; decltype</text><text x="108" y="-144.5" font-family="Helvetica,sans-Serif" font-size="10" text-anchor="start">(framework::dataset::combine</text><text x="108" y="-133.5" font-family="Helvetica,sans-Serif" font-size="10" text-anchor="start">(framework::dataset::combine</text><text x="108" y="-122.5" font-family="Helvetica,sans-Serif" font-size="10" text-anchor="start">(datasets::YOLOV2ActivationLayerDataset</text><text x="108" y="-111.5" font-family="Helvetica,sans-Serif" font-size="10" text-anchor="start">(), data_types), framework::dataset</text><text x="209" y="-100.5" font-family="Helvetica,sans-Serif" font-size="10" text-anchor="middle">::make(&quot;Batches&quot;, 1)))::type &gt;</text></a></g></g><g id="edge16" class="edge"><title>Node1-&gt;Node17</title><path fill="none" stroke="#191970" d="M31.4161,-761.865C36.1694,-663.316 59.1854,-225.452 95,-177.5 97.67,-173.925 100.662,-170.62 103.906,-167.566"/><polygon fill="#191970" stroke="#191970" points="27.917 -761.774 30.938 -771.929 34.909 -762.107 27.917 -761.774"/></g><g id="node18" class="node"><title>Node18</title><g id="a_node18"><a target="_top" xlink:href="classarm__compute_1_1test_1_1framework_1_1_data_test_case.xhtml" xlink:title="DataTestCase\&lt; decltype\l(framework::dataset::combine\l(framework::dataset::combine\l(datasets::YOLOV2ActivationLayerDataset\l(), data_types), framework::dataset\l::make(&quot;Batches&quot;,\{4, 8\})))::type \&gt;"><polygon fill="#fff" stroke="#000" points="100 -.5 100 -74.5 318 -74.5 318 -.5 100 -.5"/><text x="108" y="-62.5" font-family="Helvetica,sans-Serif" font-size="10" text-anchor="start">DataTestCase&lt; decltype</text><text x="108" y="-51.5" font-family="Helvetica,sans-Serif" font-size="10" text-anchor="start">(framework::dataset::combine</text><text x="108" y="-40.5" font-family="Helvetica,sans-Serif" font-size="10" text-anchor="start">(framework::dataset::combine</text><text x="108" y="-29.5" font-family="Helvetica,sans-Serif" font-size="10" text-anchor="start">(datasets::YOLOV2ActivationLayerDataset</text><text x="108" y="-18.5" font-family="Helvetica,sans-Serif" font-size="10" text-anchor="start">(), data_types), framework::dataset</text><text x="209" y="-7.5" font-family="Helvetica,sans-Serif" font-size="10" text-anchor="middle">::make(&quot;Batches&quot;,{4, 8})))::type &gt;</text></a></g></g><g id="edge17" class="edge"><title>Node1-&gt;Node18</title><path fill="none" stroke="#191970" d="M31.1292,-761.617C34.7044,-653.642 53.7781,-140.511 95,-84.5 97.6448,-80.9064 100.616,-77.5861 103.842,-74.5184"/><polygon fill="#191970" stroke="#191970" points="27.626 -761.657 30.8 -771.765 34.623 -761.884 27.626 -761.657"/></g></g></svg>