<svg xmlns="http://www.w3.org/2000/svg" xmlns:xlink="http://www.w3.org/1999/xlink" width="589pt" height="85pt" viewBox="0 0 589 85"><g id="graph0" class="graph" transform="scale(1 1) rotate(0) translate(4 81)"><title>Graphical Class Hierarchy</title><polygon fill="#fff" stroke="none" points="-4 4 -4 -81 585 -81 585 4 -4 4"/><g id="node1" class="node"><title>Node1</title><g id="a_node1"><a target="_top" xlink:href="classarm__compute_1_1_i_memory_region.xhtml" xlink:title="Memory region interface."><polygon fill="#fff" stroke="#000" points="0 -19.5 0 -38.5 89 -38.5 89 -19.5 0 -19.5"/><text x="44.5" y="-26.5" font-family="Helvetica,sans-Serif" font-size="10" text-anchor="middle">IMemoryRegion</text></a></g></g><g id="node2" class="node"><title>Node2</title><g id="a_node2"><a target="_top" xlink:href="classarm__compute_1_1_i_c_l_memory_region.xhtml" xlink:title="OpenCL memory region interface."><polygon fill="#fff" stroke="#000" points="125 -38.5 125 -57.5 226 -57.5 226 -38.5 125 -38.5"/><text x="175.5" y="-45.5" font-family="Helvetica,sans-Serif" font-size="10" text-anchor="middle">ICLMemoryRegion</text></a></g></g><g id="edge1" class="edge"><title>Node1-&gt;Node2</title><path fill="none" stroke="#191970" d="M99.2657,-36.919C107.674,-38.1574 116.333,-39.4327 124.648,-40.6575"/><polygon fill="#191970" stroke="#191970" points="99.577 -33.427 89.174 -35.432 98.557 -40.352 99.577 -33.427"/></g><g id="node7" class="node"><title>Node7</title><g id="a_node7"><a target="_top" xlink:href="classarm__compute_1_1_memory_region.xhtml" xlink:title="Memory region CPU implementation."><polygon fill="#fff" stroke="#000" points="132 -.5 132 -19.5 219 -19.5 219 -.5 132 -.5"/><text x="175.5" y="-7.5" font-family="Helvetica,sans-Serif" font-size="10" text-anchor="middle">MemoryRegion</text></a></g></g><g id="edge6" class="edge"><title>Node1-&gt;Node7</title><path fill="none" stroke="#191970" d="M99.3652,-21.0664C110.169,-19.4751 121.382,-17.8236 131.746,-16.297"/><polygon fill="#191970" stroke="#191970" points="98.557 -17.648 89.174 -22.567 99.577 -24.573 98.557 -17.648"/></g><g id="node3" class="node"><title>Node3</title><g id="a_node3"><a target="_top" xlink:href="classarm__compute_1_1_c_l_buffer_memory_region.xhtml" xlink:title="OpenCL buffer memory region implementation."><polygon fill="#fff" stroke="#000" points="262 -57.5 262 -76.5 390 -76.5 390 -57.5 262 -57.5"/><text x="326" y="-64.5" font-family="Helvetica,sans-Serif" font-size="10" text-anchor="middle">CLBufferMemoryRegion</text></a></g></g><g id="edge2" class="edge"><title>Node2-&gt;Node3</title><path fill="none" stroke="#191970" d="M236.411,-55.6654C244.777,-56.7358 253.396,-57.8385 261.82,-58.9164"/><polygon fill="#191970" stroke="#191970" points="236.725 -52.177 226.361 -54.38 235.836 -59.12 236.725 -52.177"/></g><g id="node4" class="node"><title>Node4</title><g id="a_node4"><a target="_top" xlink:href="classarm__compute_1_1_i_c_l_s_v_m_memory_region.xhtml" xlink:title="OpenCL SVM memory region interface."><polygon fill="#fff" stroke="#000" points="264.5 -19.5 264.5 -38.5 387.5 -38.5 387.5 -19.5 264.5 -19.5"/><text x="326" y="-26.5" font-family="Helvetica,sans-Serif" font-size="10" text-anchor="middle">ICLSVMMemoryRegion</text></a></g></g><g id="edge3" class="edge"><title>Node2-&gt;Node4</title><path fill="none" stroke="#191970" d="M236.575,-40.3137C245.761,-39.1383 255.249,-37.9244 264.446,-36.7476"/><polygon fill="#191970" stroke="#191970" points="235.836 -36.88 226.361 -41.62 236.725 -43.823 235.836 -36.88"/></g><g id="node5" class="node"><title>Node5</title><g id="a_node5"><a target="_top" xlink:href="classarm__compute_1_1_c_l_coarse_s_v_m_memory_region.xhtml" xlink:title="OpenCL coarse-grain SVM memory region implementation."><polygon fill="#fff" stroke="#000" points="426 -38.5 426 -57.5 581 -57.5 581 -38.5 426 -38.5"/><text x="503.5" y="-45.5" font-family="Helvetica,sans-Serif" font-size="10" text-anchor="middle">CLCoarseSVMMemoryRegion</text></a></g></g><g id="edge4" class="edge"><title>Node4-&gt;Node5</title><path fill="none" stroke="#191970" d="M398.111,-36.6986C407.279,-37.6912 416.699,-38.711 425.95,-39.7125"/><polygon fill="#191970" stroke="#191970" points="398.208 -33.189 387.889 -35.592 397.454 -40.148 398.208 -33.189"/></g><g id="node6" class="node"><title>Node6</title><g id="a_node6"><a target="_top" xlink:href="classarm__compute_1_1_c_l_fine_s_v_m_memory_region.xhtml" xlink:title="OpenCL fine-grain SVM memory region implementation."><polygon fill="#fff" stroke="#000" points="433.5 -.5 433.5 -19.5 573.5 -19.5 573.5 -.5 433.5 -.5"/><text x="503.5" y="-7.5" font-family="Helvetica,sans-Serif" font-size="10" text-anchor="middle">CLFineSVMMemoryRegion</text></a></g></g><g id="edge5" class="edge"><title>Node4-&gt;Node6</title><path fill="none" stroke="#191970" d="M397.996,-21.3138C409.642,-20.053 421.697,-18.7479 433.299,-17.4918"/><polygon fill="#191970" stroke="#191970" points="397.454 -17.852 387.889 -22.408 398.208 -24.811 397.454 -17.852"/></g></g></svg>