<svg xmlns="http://www.w3.org/2000/svg" xmlns:xlink="http://www.w3.org/1999/xlink" width="592" height="503pt" viewBox="0 0 444 502.5"><g id="graph0" class="graph" transform="scale(1 1) rotate(0) translate(4 498.5)"><title>Graphical Class Hierarchy</title><polygon fill="#fff" stroke="none" points="-4 4 -4 -498.5 440 -498.5 440 4 -4 4"/><g id="node1" class="node"><title>Node1</title><g id="a_node1"><a target="_top" xlink:href="classarm__compute_1_1utils_1_1_option.xhtml" xlink:title="Abstract base class for a command line option."><polygon fill="#fff" stroke="#000" points="0 -232 0 -251 48 -251 48 -232 0 -232"/><text x="24" y="-239" font-family="Helvetica,sans-Serif" font-size="10" text-anchor="middle">Option</text></a></g></g><g id="node2" class="node"><title>Node2</title><g id="a_node2"><a target="_top" xlink:href="classarm__compute_1_1utils_1_1_enum_list_option.xhtml" xlink:title="Implementation of an option that accepts any number of values from a fixed set."><polygon fill="#fff" stroke="#000" points="104.5 -475 104.5 -494 224.5 -494 224.5 -475 104.5 -475"/><text x="164.5" y="-482" font-family="Helvetica,sans-Serif" font-size="10" text-anchor="middle">EnumListOption&lt; T &gt;</text></a></g></g><g id="edge1" class="edge"><title>Node1-&gt;Node2</title><path fill="none" stroke="#191970" d="M27.5789,-261.177C34.4146,-310.344 54.5159,-436.685 84,-465.5 89.6834,-471.054 96.6845,-475.088 104.155,-478"/><polygon fill="#191970" stroke="#191970" points="31.035 -260.614 26.225 -251.174 24.098 -261.554 31.035 -260.614"/></g><g id="node3" class="node"><title>Node3</title><g id="a_node3"><a target="_top" xlink:href="classarm__compute_1_1utils_1_1_list_option.xhtml" xlink:title="Implementation of an option that accepts any number of values."><polygon fill="#fff" stroke="#000" points="118.5 -437 118.5 -456 210.5 -456 210.5 -437 118.5 -437"/><text x="164.5" y="-444" font-family="Helvetica,sans-Serif" font-size="10" text-anchor="middle">ListOption&lt; T &gt;</text></a></g></g><g id="edge2" class="edge"><title>Node1-&gt;Node3</title><path fill="none" stroke="#191970" d="M25.2609,-261.641C26.8971,-299.841 36.1125,-382.968 84,-427.5 93.3526,-436.197 105.955,-441.128 118.366,-443.865"/><polygon fill="#191970" stroke="#191970" points="28.75 -261.216 24.962 -251.321 21.753 -261.418 28.75 -261.216"/></g><g id="node4" class="node"><title>Node4</title><g id="a_node4"><a target="_top" xlink:href="classarm__compute_1_1utils_1_1_simple_option.xhtml" xlink:title="Implementation of an option that accepts a single value."><polygon fill="#fff" stroke="#000" points="110 -399 110 -418 219 -418 219 -399 110 -399"/><text x="164.5" y="-406" font-family="Helvetica,sans-Serif" font-size="10" text-anchor="middle">SimpleOption&lt; T &gt;</text></a></g></g><g id="edge3" class="edge"><title>Node1-&gt;Node4</title><path fill="none" stroke="#191970" d="M27.1472,-261.484C31.6818,-293.474 45.2414,-355.981 84,-389.5 91.2989,-395.812 100.33,-400.112 109.657,-403.022"/><polygon fill="#191970" stroke="#191970" points="30.573 -260.675 25.855 -251.189 23.628 -261.547 30.573 -260.675"/></g><g id="node6" class="node"><title>Node6</title><g id="a_node6"><a target="_top" xlink:href="classarm__compute_1_1utils_1_1_enum_list_option.xhtml" xlink:title="EnumListOption\&lt; Instruments\lDescription \&gt;"><polygon fill="#fff" stroke="#000" points="84 -349.5 84 -379.5 245 -379.5 245 -349.5 84 -349.5"/><text x="92" y="-367.5" font-family="Helvetica,sans-Serif" font-size="10" text-anchor="start">EnumListOption&lt; Instruments</text><text x="164.5" y="-356.5" font-family="Helvetica,sans-Serif" font-size="10" text-anchor="middle">Description &gt;</text></a></g></g><g id="edge5" class="edge"><title>Node1-&gt;Node6</title><path fill="none" stroke="#191970" d="M31.548,-260.736C40.136,-283.117 57.3231,-319.656 84,-340.5 88.4306,-343.962 93.3564,-346.926 98.5236,-349.464"/><polygon fill="#191970" stroke="#191970" points="34.819 -259.488 28.111 -251.287 28.24 -261.881 34.819 -259.488"/></g><g id="node7" class="node"><title>Node7</title><g id="a_node7"><a target="_top" xlink:href="classarm__compute_1_1utils_1_1_simple_option.xhtml" xlink:title="SimpleOption\&lt; arm_compute\l::DataLayout \&gt;"><polygon fill="#fff" stroke="#000" points="84.5 -300.5 84.5 -330.5 244.5 -330.5 244.5 -300.5 84.5 -300.5"/><text x="92.5" y="-318.5" font-family="Helvetica,sans-Serif" font-size="10" text-anchor="start">SimpleOption&lt; arm_compute</text><text x="164.5" y="-307.5" font-family="Helvetica,sans-Serif" font-size="10" text-anchor="middle">::DataLayout &gt;</text></a></g></g><g id="edge6" class="edge"><title>Node1-&gt;Node7</title><path fill="none" stroke="#191970" d="M41.3641,-258.603C52.4969,-269.372 68.0545,-282.828 84,-291.5 90.2061,-294.875 96.949,-297.837 103.796,-300.421"/><polygon fill="#191970" stroke="#191970" points="43.645 -255.934 34.097 -251.342 38.698 -260.886 43.645 -255.934"/></g><g id="node9" class="node"><title>Node9</title><g id="a_node9"><a target="_top" xlink:href="classarm__compute_1_1utils_1_1_simple_option.xhtml" xlink:title="SimpleOption\&lt; arm_compute\l::DataType \&gt;"><polygon fill="#fff" stroke="#000" points="84.5 -251.5 84.5 -281.5 244.5 -281.5 244.5 -251.5 84.5 -251.5"/><text x="92.5" y="-269.5" font-family="Helvetica,sans-Serif" font-size="10" text-anchor="start">SimpleOption&lt; arm_compute</text><text x="164.5" y="-258.5" font-family="Helvetica,sans-Serif" font-size="10" text-anchor="middle">::DataType &gt;</text></a></g></g><g id="edge8" class="edge"><title>Node1-&gt;Node9</title><path fill="none" stroke="#191970" d="M58.1731,-247.488C66.2098,-248.939 75.146,-250.552 84.3196,-252.208"/><polygon fill="#191970" stroke="#191970" points="58.645 -244.017 48.182 -245.684 57.401 -250.905 58.645 -244.017"/></g><g id="node11" class="node"><title>Node11</title><g id="a_node11"><a target="_top" xlink:href="classarm__compute_1_1utils_1_1_simple_option.xhtml" xlink:title="SimpleOption\&lt; arm_compute\l::graph::Target \&gt;"><polygon fill="#fff" stroke="#000" points="84.5 -202.5 84.5 -232.5 244.5 -232.5 244.5 -202.5 84.5 -202.5"/><text x="92.5" y="-220.5" font-family="Helvetica,sans-Serif" font-size="10" text-anchor="start">SimpleOption&lt; arm_compute</text><text x="164.5" y="-209.5" font-family="Helvetica,sans-Serif" font-size="10" text-anchor="middle">::graph::Target &gt;</text></a></g></g><g id="edge10" class="edge"><title>Node1-&gt;Node11</title><path fill="none" stroke="#191970" d="M58.1731,-235.752C66.2098,-234.359 75.146,-232.81 84.3196,-231.221"/><polygon fill="#191970" stroke="#191970" points="57.437 -232.327 48.182 -237.483 58.633 -239.224 57.437 -232.327"/></g><g id="node13" class="node"><title>Node13</title><g id="a_node13"><a target="_top" xlink:href="classarm__compute_1_1utils_1_1_simple_option.xhtml" xlink:title="SimpleOption\&lt; bool \&gt;"><polygon fill="#fff" stroke="#000" points="102.5 -164 102.5 -183 226.5 -183 226.5 -164 102.5 -164"/><text x="164.5" y="-171" font-family="Helvetica,sans-Serif" font-size="10" text-anchor="middle">SimpleOption&lt; bool &gt;</text></a></g></g><g id="edge12" class="edge"><title>Node1-&gt;Node13</title><path fill="none" stroke="#191970" d="M41.3557,-224.865C52.485,-214.436 68.0419,-201.5 84,-193.5 92.5243,-189.227 102.032,-185.82 111.425,-183.119"/><polygon fill="#191970" stroke="#191970" points="38.834 -222.434 34.092 -231.908 43.708 -227.459 38.834 -222.434"/></g><g id="node15" class="node"><title>Node15</title><g id="a_node15"><a target="_top" xlink:href="classarm__compute_1_1utils_1_1_simple_option.xhtml" xlink:title="SimpleOption\&lt; int \&gt;"><polygon fill="#fff" stroke="#000" points="106.5 -126 106.5 -145 222.5 -145 222.5 -126 106.5 -126"/><text x="164.5" y="-133" font-family="Helvetica,sans-Serif" font-size="10" text-anchor="middle">SimpleOption&lt; int &gt;</text></a></g></g><g id="edge14" class="edge"><title>Node1-&gt;Node15</title><path fill="none" stroke="#191970" d="M32.7838,-222.589C42.0154,-202.568 59.3255,-171.553 84,-154.5 90.6542,-149.901 98.2865,-146.408 106.131,-143.757"/><polygon fill="#191970" stroke="#191970" points="29.501 -221.361 28.696 -231.925 35.913 -224.168 29.501 -221.361"/></g><g id="node16" class="node"><title>Node16</title><g id="a_node16"><a target="_top" xlink:href="classarm__compute_1_1utils_1_1_simple_option.xhtml" xlink:title="SimpleOption\&lt; LogFormat \&gt;"><polygon fill="#fff" stroke="#000" points="87 -88 87 -107 242 -107 242 -88 87 -88"/><text x="164.5" y="-95" font-family="Helvetica,sans-Serif" font-size="10" text-anchor="middle">SimpleOption&lt; LogFormat &gt;</text></a></g></g><g id="edge15" class="edge"><title>Node1-&gt;Node16</title><path fill="none" stroke="#191970" d="M28.7215,-221.866C35.046,-194.073 50.6033,-143.628 84,-116.5 88.7363,-112.653 94.1245,-109.562 99.812,-107.082"/><polygon fill="#191970" stroke="#191970" points="25.235 -221.438 26.611 -231.943 32.087 -222.873 25.235 -221.438"/></g><g id="node18" class="node"><title>Node18</title><g id="a_node18"><a target="_top" xlink:href="classarm__compute_1_1utils_1_1_simple_option.xhtml" xlink:title="SimpleOption\&lt; LogLevel \&gt;"><polygon fill="#fff" stroke="#000" points="91.5 -50 91.5 -69 237.5 -69 237.5 -50 91.5 -50"/><text x="164.5" y="-57" font-family="Helvetica,sans-Serif" font-size="10" text-anchor="middle">SimpleOption&lt; LogLevel &gt;</text></a></g></g><g id="edge17" class="edge"><title>Node1-&gt;Node18</title><path fill="none" stroke="#191970" d="M26.3088,-221.456C29.6779,-186.933 41.6519,-116.326 84,-78.5 88.2334,-74.7187 93.0849,-71.6551 98.2578,-69.1774"/><polygon fill="#191970" stroke="#191970" points="22.799 -221.427 25.465 -231.681 29.776 -222.003 22.799 -221.427"/></g><g id="node20" class="node"><title>Node20</title><g id="a_node20"><a target="_top" xlink:href="classarm__compute_1_1utils_1_1_simple_option.xhtml" xlink:title="SimpleOption\&lt; std::\lstring \&gt;"><polygon fill="#fff" stroke="#000" points="108 -.5 108 -30.5 221 -30.5 221 -.5 108 -.5"/><text x="116" y="-18.5" font-family="Helvetica,sans-Serif" font-size="10" text-anchor="start">SimpleOption&lt; std::</text><text x="164.5" y="-7.5" font-family="Helvetica,sans-Serif" font-size="10" text-anchor="middle">string &gt;</text></a></g></g><g id="edge19" class="edge"><title>Node1-&gt;Node20</title><path fill="none" stroke="#191970" d="M24.9825,-221.744C26.0422,-181.881 34.1622,-91.3021 84,-40.5 90.586,-33.7866 98.9527,-28.8707 107.771,-25.2722"/><polygon fill="#191970" stroke="#191970" points="21.48 -221.932 24.842 -231.98 28.479 -222.029 21.48 -221.932"/></g><g id="node5" class="node"><title>Node5</title><g id="a_node5"><a target="_top" xlink:href="classarm__compute_1_1utils_1_1_enum_option.xhtml" xlink:title="Implementation of a simple option that accepts a value from a fixed set."><polygon fill="#fff" stroke="#000" points="306.5 -399 306.5 -418 410.5 -418 410.5 -399 306.5 -399"/><text x="358.5" y="-406" font-family="Helvetica,sans-Serif" font-size="10" text-anchor="middle">EnumOption&lt; T &gt;</text></a></g></g><g id="edge4" class="edge"><title>Node4-&gt;Node5</title><path fill="none" stroke="#191970" d="M229.382,-408.5C254.428,-408.5 282.771,-408.5 306.419,-408.5"/><polygon fill="#191970" stroke="#191970" points="229.238 -405 219.238 -408.5 229.238 -412 229.238 -405"/></g><g id="node8" class="node"><title>Node8</title><g id="a_node8"><a target="_top" xlink:href="classarm__compute_1_1utils_1_1_enum_option.xhtml" xlink:title="EnumOption\&lt; arm_compute\l::DataLayout \&gt;"><polygon fill="#fff" stroke="#000" points="281 -300.5 281 -330.5 436 -330.5 436 -300.5 281 -300.5"/><text x="289" y="-318.5" font-family="Helvetica,sans-Serif" font-size="10" text-anchor="start">EnumOption&lt; arm_compute</text><text x="358.5" y="-307.5" font-family="Helvetica,sans-Serif" font-size="10" text-anchor="middle">::DataLayout &gt;</text></a></g></g><g id="edge7" class="edge"><title>Node7-&gt;Node8</title><path fill="none" stroke="#191970" d="M254.881,-315.5C263.595,-315.5 272.382,-315.5 280.953,-315.5"/><polygon fill="#191970" stroke="#191970" points="254.702 -312 244.702 -315.5 254.702 -319 254.702 -312"/></g><g id="node10" class="node"><title>Node10</title><g id="a_node10"><a target="_top" xlink:href="classarm__compute_1_1utils_1_1_enum_option.xhtml" xlink:title="EnumOption\&lt; arm_compute\l::DataType \&gt;"><polygon fill="#fff" stroke="#000" points="281 -251.5 281 -281.5 436 -281.5 436 -251.5 281 -251.5"/><text x="289" y="-269.5" font-family="Helvetica,sans-Serif" font-size="10" text-anchor="start">EnumOption&lt; arm_compute</text><text x="358.5" y="-258.5" font-family="Helvetica,sans-Serif" font-size="10" text-anchor="middle">::DataType &gt;</text></a></g></g><g id="edge9" class="edge"><title>Node9-&gt;Node10</title><path fill="none" stroke="#191970" d="M254.881,-266.5C263.595,-266.5 272.382,-266.5 280.953,-266.5"/><polygon fill="#191970" stroke="#191970" points="254.702 -263 244.702 -266.5 254.702 -270 254.702 -263"/></g><g id="node12" class="node"><title>Node12</title><g id="a_node12"><a target="_top" xlink:href="classarm__compute_1_1utils_1_1_enum_option.xhtml" xlink:title="EnumOption\&lt; arm_compute\l::graph::Target \&gt;"><polygon fill="#fff" stroke="#000" points="281 -202.5 281 -232.5 436 -232.5 436 -202.5 281 -202.5"/><text x="289" y="-220.5" font-family="Helvetica,sans-Serif" font-size="10" text-anchor="start">EnumOption&lt; arm_compute</text><text x="358.5" y="-209.5" font-family="Helvetica,sans-Serif" font-size="10" text-anchor="middle">::graph::Target &gt;</text></a></g></g><g id="edge11" class="edge"><title>Node11-&gt;Node12</title><path fill="none" stroke="#191970" d="M254.881,-217.5C263.595,-217.5 272.382,-217.5 280.953,-217.5"/><polygon fill="#191970" stroke="#191970" points="254.702 -214 244.702 -217.5 254.702 -221 254.702 -214"/></g><g id="node14" class="node"><title>Node14</title><g id="a_node14"><a target="_top" xlink:href="classarm__compute_1_1utils_1_1_toggle_option.xhtml" xlink:title="Implementation of an option that can be either true or false."><polygon fill="#fff" stroke="#000" points="319.5 -164 319.5 -183 397.5 -183 397.5 -164 319.5 -164"/><text x="358.5" y="-171" font-family="Helvetica,sans-Serif" font-size="10" text-anchor="middle">ToggleOption</text></a></g></g><g id="edge13" class="edge"><title>Node13-&gt;Node14</title><path fill="none" stroke="#191970" d="M236.67,-173.5C264.659,-173.5 295.672,-173.5 319.271,-173.5"/><polygon fill="#191970" stroke="#191970" points="236.514 -170 226.514 -173.5 236.514 -177 236.514 -170"/></g><g id="node17" class="node"><title>Node17</title><g id="a_node17"><a target="_top" xlink:href="classarm__compute_1_1utils_1_1_enum_option.xhtml" xlink:title="EnumOption\&lt; LogFormat \&gt;"><polygon fill="#fff" stroke="#000" points="283.5 -88 283.5 -107 433.5 -107 433.5 -88 283.5 -88"/><text x="358.5" y="-95" font-family="Helvetica,sans-Serif" font-size="10" text-anchor="middle">EnumOption&lt; LogFormat &gt;</text></a></g></g><g id="edge16" class="edge"><title>Node16-&gt;Node17</title><path fill="none" stroke="#191970" d="M252.478,-97.5C262.81,-97.5 273.282,-97.5 283.41,-97.5"/><polygon fill="#191970" stroke="#191970" points="252.211 -94 242.211 -97.5 252.211 -101 252.211 -94"/></g><g id="node19" class="node"><title>Node19</title><g id="a_node19"><a target="_top" xlink:href="classarm__compute_1_1utils_1_1_enum_option.xhtml" xlink:title="EnumOption\&lt; LogLevel \&gt;"><polygon fill="#fff" stroke="#000" points="288.5 -50 288.5 -69 428.5 -69 428.5 -50 288.5 -50"/><text x="358.5" y="-57" font-family="Helvetica,sans-Serif" font-size="10" text-anchor="middle">EnumOption&lt; LogLevel &gt;</text></a></g></g><g id="edge18" class="edge"><title>Node18-&gt;Node19</title><path fill="none" stroke="#191970" d="M247.764,-59.5C261.251,-59.5 275.107,-59.5 288.239,-59.5"/><polygon fill="#191970" stroke="#191970" points="247.54 -56 237.54 -59.5 247.54 -63 247.54 -56"/></g></g></svg>