<svg xmlns="http://www.w3.org/2000/svg" xmlns:xlink="http://www.w3.org/1999/xlink" width="220pt" height="137pt" viewBox="0 0 220 137"><g id="graph0" class="graph" transform="scale(1 1) rotate(0) translate(4 133)"><title>Graphical Class Hierarchy</title><polygon fill="#fff" stroke="none" points="-4 4 -4 -133 216 -133 216 4 -4 4"/><g id="node1" class="node"><title>Node1</title><polygon fill="#fff" stroke="#bfbfbf" points="0 -55 0 -74 62 -74 62 -55 0 -55"/><text x="31" y="-62" font-family="Helvetica,sans-Serif" font-size="10" text-anchor="middle">true_type</text></g><g id="node2" class="node"><title>Node2</title><g id="a_node2"><a target="_top" xlink:href="structarm__compute_1_1test_1_1framework_1_1dataset_1_1is__container_3_01std_1_1vector_3_01_v_00_01_a_01_4_01_4.xhtml" xlink:title="Vector is considered a container."><polygon fill="#fff" stroke="#000" points="101.5 -98.5 101.5 -128.5 208.5 -128.5 208.5 -98.5 101.5 -98.5"/><text x="109.5" y="-116.5" font-family="Helvetica,sans-Serif" font-size="10" text-anchor="start">is_container&lt; std::</text><text x="155" y="-105.5" font-family="Helvetica,sans-Serif" font-size="10" text-anchor="middle">vector&lt; V, A &gt; &gt;</text></a></g></g><g id="edge1" class="edge"><title>Node1-&gt;Node2</title><path fill="none" stroke="#191970" d="M65.1931,-77.8317C81.0001,-84.1804 99.9765,-91.802 116.322,-98.3672"/><polygon fill="#191970" stroke="#191970" points="66.396 -74.543 55.812 -74.064 63.788 -81.039 66.396 -74.543"/></g><g id="node3" class="node"><title>Node3</title><g id="a_node3"><a target="_top" xlink:href="structarm__compute_1_1test_1_1validation_1_1is__floating__point_3_01half_01_4.xhtml" xlink:title="is_floating_point\&lt;\l half \&gt;"><polygon fill="#fff" stroke="#000" points="104 -49.5 104 -79.5 206 -79.5 206 -49.5 104 -49.5"/><text x="112" y="-67.5" font-family="Helvetica,sans-Serif" font-size="10" text-anchor="start">is_floating_point&lt;</text><text x="155" y="-56.5" font-family="Helvetica,sans-Serif" font-size="10" text-anchor="middle">half &gt;</text></a></g></g><g id="edge2" class="edge"><title>Node1-&gt;Node3</title><path fill="none" stroke="#191970" d="M72.2895,-64.5C82.3613,-64.5 93.2878,-64.5 103.775,-64.5"/><polygon fill="#191970" stroke="#191970" points="72.157 -61 62.157 -64.5 72.157 -68 72.157 -61"/></g><g id="node4" class="node"><title>Node4</title><g id="a_node4"><a target="_top" xlink:href="structarm__compute_1_1traits_1_1is__contained_3_01_t_00_01std_1_1tuple_3_01_t_00_01_ts_8_8_8_01_4_01_4.xhtml" xlink:title="is_contained\&lt; T, std\l::tuple\&lt; T, Ts... \&gt; \&gt;"><polygon fill="#fff" stroke="#000" points="98 -.5 98 -30.5 212 -30.5 212 -.5 98 -.5"/><text x="106" y="-18.5" font-family="Helvetica,sans-Serif" font-size="10" text-anchor="start">is_contained&lt; T, std</text><text x="155" y="-7.5" font-family="Helvetica,sans-Serif" font-size="10" text-anchor="middle">::tuple&lt; T, Ts... &gt; &gt;</text></a></g></g><g id="edge3" class="edge"><title>Node1-&gt;Node4</title><path fill="none" stroke="#191970" d="M65.1931,-51.1683C81.0001,-44.8196 99.9765,-37.198 116.322,-30.6328"/><polygon fill="#191970" stroke="#191970" points="63.788 -47.961 55.812 -54.936 66.396 -54.457 63.788 -47.961"/></g></g></svg>