<svg xmlns="http://www.w3.org/2000/svg" xmlns:xlink="http://www.w3.org/1999/xlink" width="316" height="218pt" viewBox="0 0 237 218"><g id="graph0" class="graph" transform="scale(1 1) rotate(0) translate(4 214)"><title>Graphical Class Hierarchy</title><polygon fill="#fff" stroke="none" points="-4 4 -4 -214 233 -214 233 4 -4 4"/><g id="node1" class="node"><title>Node1</title><g id="a_node1"><a target="_top" xlink:href="classarm__compute_1_1test_1_1framework_1_1_instrument.xhtml" xlink:title="Interface for classes that can be used to measure performance."><polygon fill="#fff" stroke="#000" points="0 -95.5 0 -114.5 69 -114.5 69 -95.5 0 -95.5"/><text x="34.5" y="-102.5" font-family="Helvetica,sans-Serif" font-size="10" text-anchor="middle">Instrument</text></a></g></g><g id="node2" class="node"><title>Node2</title><g id="a_node2"><a target="_top" xlink:href="classarm__compute_1_1test_1_1framework_1_1_mali_counter.xhtml" xlink:title="Instrument implementation for mali hw counters."><polygon fill="#fff" stroke="#000" points="130 -190.5 130 -209.5 204 -209.5 204 -190.5 130 -190.5"/><text x="167" y="-197.5" font-family="Helvetica,sans-Serif" font-size="10" text-anchor="middle">MaliCounter</text></a></g></g><g id="edge1" class="edge"><title>Node1-&gt;Node2</title><path fill="none" stroke="#191970" d="M47.826,-123.297C60.328,-140.522 81.1886,-165.872 105,-181 112.49,-185.759 121.256,-189.399 129.768,-192.154"/><polygon fill="#191970" stroke="#191970" points="50.386 -120.852 41.775 -114.68 44.657 -124.875 50.386 -120.852"/></g><g id="node3" class="node"><title>Node3</title><g id="a_node3"><a target="_top" xlink:href="classarm__compute_1_1test_1_1framework_1_1_open_c_l_memory_usage.xhtml" xlink:title="Instrument collecting memory usage information for OpenCL."><polygon fill="#fff" stroke="#000" points="105 -152.5 105 -171.5 229 -171.5 229 -152.5 105 -152.5"/><text x="167" y="-159.5" font-family="Helvetica,sans-Serif" font-size="10" text-anchor="middle">OpenCLMemoryUsage</text></a></g></g><g id="edge2" class="edge"><title>Node1-&gt;Node3</title><path fill="none" stroke="#191970" d="M59.6386,-119.743C72.7441,-127.348 89.4133,-136.389 105,-143 113.271,-146.508 122.415,-149.699 131.052,-152.421"/><polygon fill="#191970" stroke="#191970" points="61.182 -116.589 50.792 -114.514 57.62 -122.616 61.182 -116.589"/></g><g id="node4" class="node"><title>Node4</title><g id="a_node4"><a target="_top" xlink:href="classarm__compute_1_1test_1_1framework_1_1_open_c_l_timer.xhtml" xlink:title="Instrument creating measurements based on the information returned by clGetEventProfilingInfo for eac..."><polygon fill="#fff" stroke="#000" points="127 -114.5 127 -133.5 207 -133.5 207 -114.5 127 -114.5"/><text x="167" y="-121.5" font-family="Helvetica,sans-Serif" font-size="10" text-anchor="middle">OpenCLTimer</text></a></g></g><g id="edge3" class="edge"><title>Node1-&gt;Node4</title><path fill="none" stroke="#191970" d="M79.4293,-111.396C94.8203,-113.637 111.989,-116.136 126.953,-118.315"/><polygon fill="#191970" stroke="#191970" points="79.507 -107.87 69.107 -109.893 78.498 -114.797 79.507 -107.87"/></g><g id="node5" class="node"><title>Node5</title><g id="a_node5"><a target="_top" xlink:href="classarm__compute_1_1test_1_1framework_1_1_p_m_u_counter.xhtml" xlink:title="Implementation of an instrument to count CPU cycles."><polygon fill="#fff" stroke="#000" points="128.5 -76.5 128.5 -95.5 205.5 -95.5 205.5 -76.5 128.5 -76.5"/><text x="167" y="-83.5" font-family="Helvetica,sans-Serif" font-size="10" text-anchor="middle">PMUCounter</text></a></g></g><g id="edge4" class="edge"><title>Node1-&gt;Node5</title><path fill="none" stroke="#191970" d="M79.2472,-98.6307C95.1701,-96.3124 113.016,-93.7141 128.363,-91.4797"/><polygon fill="#191970" stroke="#191970" points="78.498 -95.203 69.107 -100.107 79.507 -102.13 78.498 -95.203"/></g><g id="node6" class="node"><title>Node6</title><g id="a_node6"><a target="_top" xlink:href="classarm__compute_1_1test_1_1framework_1_1_scheduler_timer.xhtml" xlink:title="Instrument creating measurements based on the information returned by clGetEventProfilingInfo for eac..."><polygon fill="#fff" stroke="#000" points="121 -38.5 121 -57.5 213 -57.5 213 -38.5 121 -38.5"/><text x="167" y="-45.5" font-family="Helvetica,sans-Serif" font-size="10" text-anchor="middle">SchedulerTimer</text></a></g></g><g id="edge5" class="edge"><title>Node1-&gt;Node6</title><path fill="none" stroke="#191970" d="M59.6386,-90.2572C72.7441,-82.6524 89.4133,-73.6111 105,-67 113.271,-63.4917 122.415,-60.3013 131.052,-57.579"/><polygon fill="#191970" stroke="#191970" points="57.62 -87.385 50.792 -95.486 61.182 -93.411 57.62 -87.385"/></g><g id="node7" class="node"><title>Node7</title><g id="a_node7"><a target="_top" xlink:href="classarm__compute_1_1test_1_1framework_1_1_wall_clock_timer.xhtml" xlink:title="Implementation of an instrument to measure elapsed wall-clock time in milliseconds."><polygon fill="#fff" stroke="#000" points="123.5 -.5 123.5 -19.5 210.5 -19.5 210.5 -.5 123.5 -.5"/><text x="167" y="-7.5" font-family="Helvetica,sans-Serif" font-size="10" text-anchor="middle">WallClockTimer</text></a></g></g><g id="edge6" class="edge"><title>Node1-&gt;Node7</title><path fill="none" stroke="#191970" d="M47.826,-86.7033C60.328,-69.4782 81.1886,-44.1282 105,-29 110.992,-25.1931 117.8,-22.1022 124.643,-19.6072"/><polygon fill="#191970" stroke="#191970" points="44.657 -85.125 41.775 -95.32 50.386 -89.148 44.657 -85.125"/></g></g></svg>