<svg xmlns="http://www.w3.org/2000/svg" xmlns:xlink="http://www.w3.org/1999/xlink" width="344pt" height="240" viewBox="0 0 344 180"><g id="graph0" class="graph" transform="scale(1 1) rotate(0) translate(4 176)"><title>Graphical Class Hierarchy</title><polygon fill="#fff" stroke="none" points="-4 4 -4 -176 340 -176 340 4 -4 4"/><g id="node1" class="node"><title>Node1</title><g id="a_node1"><a target="_top" xlink:href="classarm__compute_1_1test_1_1_i_accessor.xhtml" xlink:title="Common interface to provide information and access to tensor like structures."><polygon fill="#fff" stroke="#000" points="0 -76.5 0 -95.5 62 -95.5 62 -76.5 0 -76.5"/><text x="31" y="-83.5" font-family="Helvetica,sans-Serif" font-size="10" text-anchor="middle">IAccessor</text></a></g></g><g id="node2" class="node"><title>Node2</title><g id="a_node2"><a target="_top" xlink:href="classarm__compute_1_1test_1_1_accessor.xhtml" xlink:title="Accessor implementation for Tensor objects."><polygon fill="#fff" stroke="#000" points="136 -152.5 136 -171.5 196 -171.5 196 -152.5 136 -152.5"/><text x="166" y="-159.5" font-family="Helvetica,sans-Serif" font-size="10" text-anchor="middle">Accessor</text></a></g></g><g id="edge1" class="edge"><title>Node1-&gt;Node2</title><path fill="none" stroke="#191970" d="M47.3715,-102.784C59.8754,-115.506 78.5752,-132.53 98,-143 109.707,-149.31 123.724,-153.705 135.904,-156.666"/><polygon fill="#191970" stroke="#191970" points="49.872 -100.334 40.436 -95.516 44.807 -105.167 49.872 -100.334"/></g><g id="node3" class="node"><title>Node3</title><g id="a_node3"><a target="_top" xlink:href="classarm__compute_1_1test_1_1_c_l_accessor.xhtml" xlink:title="Accessor implementation for CLTensor objects."><polygon fill="#fff" stroke="#000" points="130 -114.5 130 -133.5 202 -133.5 202 -114.5 130 -114.5"/><text x="166" y="-121.5" font-family="Helvetica,sans-Serif" font-size="10" text-anchor="middle">CLAccessor</text></a></g></g><g id="edge2" class="edge"><title>Node1-&gt;Node3</title><path fill="none" stroke="#191970" d="M72.0207,-97.5487C80.591,-100.014 89.5948,-102.598 98,-105 108.812,-108.089 120.61,-111.441 131.252,-114.458"/><polygon fill="#191970" stroke="#191970" points="72.799 -94.131 62.221 -94.727 70.862 -100.857 72.799 -94.131"/></g><g id="node4" class="node"><title>Node4</title><g id="a_node4"><a target="_top" xlink:href="classarm__compute_1_1test_1_1_g_c_accessor.xhtml" xlink:title="Accessor implementation for GCTensor objects."><polygon fill="#fff" stroke="#000" points="129 -76.5 129 -95.5 203 -95.5 203 -76.5 129 -76.5"/><text x="166" y="-83.5" font-family="Helvetica,sans-Serif" font-size="10" text-anchor="middle">GCAccessor</text></a></g></g><g id="edge3" class="edge"><title>Node1-&gt;Node4</title><path fill="none" stroke="#191970" d="M72.3614,-86C90.333,-86 111.333,-86 128.792,-86"/><polygon fill="#191970" stroke="#191970" points="72.18 -82.5 62.18 -86 72.18 -89.5 72.18 -82.5"/></g><g id="node5" class="node"><title>Node5</title><g id="a_node5"><a target="_top" xlink:href="classarm__compute_1_1test_1_1_simple_tensor.xhtml" xlink:title="Simple tensor object that stores elements in a consecutive chunk of memory."><polygon fill="#fff" stroke="#000" points="112 -38.5 112 -57.5 220 -57.5 220 -38.5 112 -38.5"/><text x="166" y="-45.5" font-family="Helvetica,sans-Serif" font-size="10" text-anchor="middle">SimpleTensor&lt; T &gt;</text></a></g></g><g id="edge4" class="edge"><title>Node1-&gt;Node5</title><path fill="none" stroke="#191970" d="M72.0207,-74.4513C80.591,-71.9859 89.5948,-69.4016 98,-67 108.812,-63.9108 120.61,-60.5586 131.252,-57.5422"/><polygon fill="#191970" stroke="#191970" points="70.862 -71.143 62.221 -77.273 72.799 -77.869 70.862 -71.143"/></g><g id="node6" class="node"><title>Node6</title><g id="a_node6"><a target="_top" xlink:href="classarm__compute_1_1test_1_1_simple_tensor.xhtml" xlink:title="SimpleTensor\&lt; uint8_t \&gt;"><polygon fill="#fff" stroke="#000" points="98 -.5 98 -19.5 234 -19.5 234 -.5 98 -.5"/><text x="166" y="-7.5" font-family="Helvetica,sans-Serif" font-size="10" text-anchor="middle">SimpleTensor&lt; uint8_t &gt;</text></a></g></g><g id="edge5" class="edge"><title>Node1-&gt;Node6</title><path fill="none" stroke="#191970" d="M47.3715,-69.2156C59.8754,-56.4939 78.5752,-39.4696 98,-29 105.024,-25.214 112.88,-22.1172 120.672,-19.606"/><polygon fill="#191970" stroke="#191970" points="44.807 -66.833 40.436 -76.484 49.872 -71.665 44.807 -66.833"/></g><g id="node7" class="node"><title>Node7</title><g id="a_node7"><a target="_top" xlink:href="classarm__compute_1_1test_1_1_raw_tensor.xhtml" xlink:title="Subclass of SimpleTensor using uint8_t as value type."><polygon fill="#fff" stroke="#000" points="270 -.5 270 -19.5 336 -19.5 336 -.5 270 -.5"/><text x="303" y="-7.5" font-family="Helvetica,sans-Serif" font-size="10" text-anchor="middle">RawTensor</text></a></g></g><g id="edge6" class="edge"><title>Node6-&gt;Node7</title><path fill="none" stroke="#191970" d="M244.279,-10C253.234,-10 261.953,-10 269.79,-10"/><polygon fill="#191970" stroke="#191970" points="244.105 -6.5 234.104 -10 244.104 -13.5 244.105 -6.5"/></g></g></svg>