<svg xmlns="http://www.w3.org/2000/svg" xmlns:xlink="http://www.w3.org/1999/xlink" width="424" height="88" viewBox="0 0 318 66"><g id="graph0" class="graph" transform="scale(1 1) rotate(0) translate(4 62)"><title>Graphical Class Hierarchy</title><polygon fill="#fff" stroke="none" points="-4 4 -4 -62 314 -62 314 4 -4 4"/><g id="node1" class="node"><title>Node1</title><g id="a_node1"><a target="_top" xlink:href="classarm__compute_1_1_i_array.xhtml" xlink:title="Array of type T."><polygon fill="#fff" stroke="#000" points="0 -19.5 0 -38.5 72 -38.5 72 -19.5 0 -19.5"/><text x="36" y="-26.5" font-family="Helvetica,sans-Serif" font-size="10" text-anchor="middle">IArray&lt; T &gt;</text></a></g></g><g id="node2" class="node"><title>Node2</title><g id="a_node2"><a target="_top" xlink:href="classarm__compute_1_1_array.xhtml" xlink:title="Basic implementation of the IArray interface which allocates a static number of T values..."><polygon fill="#fff" stroke="#000" points="115 -38.5 115 -57.5 185 -57.5 185 -38.5 115 -38.5"/><text x="150" y="-45.5" font-family="Helvetica,sans-Serif" font-size="10" text-anchor="middle">Array&lt; T &gt;</text></a></g></g><g id="edge1" class="edge"><title>Node1-&gt;Node2</title><path fill="none" stroke="#191970" d="M82.2932,-36.6837C93.1289,-38.5219 104.52,-40.4543 114.762,-42.1917"/><polygon fill="#191970" stroke="#191970" points="82.575 -33.181 72.13 -34.96 81.404 -40.083 82.575 -33.181"/></g><g id="node3" class="node"><title>Node3</title><g id="a_node3"><a target="_top" xlink:href="classarm__compute_1_1_i_c_l_array.xhtml" xlink:title="Interface for OpenCL Array."><polygon fill="#fff" stroke="#000" points="108 -.5 108 -19.5 192 -19.5 192 -.5 108 -.5"/><text x="150" y="-7.5" font-family="Helvetica,sans-Serif" font-size="10" text-anchor="middle">ICLArray&lt; T &gt;</text></a></g></g><g id="edge2" class="edge"><title>Node1-&gt;Node3</title><path fill="none" stroke="#191970" d="M82.1984,-21.3324C90.6351,-19.9012 99.4118,-18.4123 107.723,-17.0024"/><polygon fill="#191970" stroke="#191970" points="81.404 -17.917 72.13 -23.04 82.575 -24.819 81.404 -17.917"/></g><g id="node4" class="node"><title>Node4</title><g id="a_node4"><a target="_top" xlink:href="classarm__compute_1_1_c_l_array.xhtml" xlink:title="CLArray implementation."><polygon fill="#fff" stroke="#000" points="228 -.5 228 -19.5 310 -19.5 310 -.5 228 -.5"/><text x="269" y="-7.5" font-family="Helvetica,sans-Serif" font-size="10" text-anchor="middle">CLArray&lt; T &gt;</text></a></g></g><g id="edge3" class="edge"><title>Node3-&gt;Node4</title><path fill="none" stroke="#191970" d="M202.49,-10C211.007,-10 219.726,-10 227.909,-10"/><polygon fill="#191970" stroke="#191970" points="202.25 -6.5 192.25 -10 202.25 -13.5 202.25 -6.5"/></g></g></svg>