<svg xmlns="http://www.w3.org/2000/svg" xmlns:xlink="http://www.w3.org/1999/xlink" width="396" height="218pt" viewBox="0 0 297 218"><g id="graph0" class="graph" transform="scale(1 1) rotate(0) translate(4 214)"><title>Graphical Class Hierarchy</title><polygon fill="#fff" stroke="none" points="-4 4 -4 -214 293 -214 293 4 -4 4"/><g id="node1" class="node"><title>Node1</title><g id="a_node1"><a target="_top" xlink:href="classarm__compute_1_1graph_1_1_i_graph_mutator.xhtml" xlink:title="Graph mutator interface."><polygon fill="#fff" stroke="#000" points="0 -95.5 0 -114.5 86 -114.5 86 -95.5 0 -95.5"/><text x="43" y="-102.5" font-family="Helvetica,sans-Serif" font-size="10" text-anchor="middle">IGraphMutator</text></a></g></g><g id="node2" class="node"><title>Node2</title><g id="a_node2"><a target="_top" xlink:href="classarm__compute_1_1graph_1_1_depth_concat_sub_tensor_mutator.xhtml" xlink:title="Mutation pass to optimize depth concatenation operations by using sub-tensors."><polygon fill="#fff" stroke="#000" points="122 -190.5 122 -209.5 289 -209.5 289 -190.5 122 -190.5"/><text x="205.5" y="-197.5" font-family="Helvetica,sans-Serif" font-size="10" text-anchor="middle">DepthConcatSubTensorMutator</text></a></g></g><g id="edge1" class="edge"><title>Node1-&gt;Node2</title><path fill="none" stroke="#191970" d="M57.4512,-122.905C71.5858,-140.417 95.4278,-166.505 122,-181 129.097,-184.871 136.952,-187.956 144.912,-190.414"/><polygon fill="#191970" stroke="#191970" points="59.9 -120.354 50.982 -114.635 54.387 -124.668 59.9 -120.354"/></g><g id="node3" class="node"><title>Node3</title><g id="a_node3"><a target="_top" xlink:href="classarm__compute_1_1graph_1_1_grouped_convolution_mutator.xhtml" xlink:title="Mutation pass to implement/optimize grouped convolutions."><polygon fill="#fff" stroke="#000" points="129.5 -152.5 129.5 -171.5 281.5 -171.5 281.5 -152.5 129.5 -152.5"/><text x="205.5" y="-159.5" font-family="Helvetica,sans-Serif" font-size="10" text-anchor="middle">GroupedConvolutionMutator</text></a></g></g><g id="edge2" class="edge"><title>Node1-&gt;Node3</title><path fill="none" stroke="#191970" d="M69.9547,-119.49C84.831,-127.32 104.059,-136.657 122,-143 132.393,-146.675 143.777,-149.827 154.68,-152.447"/><polygon fill="#191970" stroke="#191970" points="71.331 -116.256 60.865 -114.608 68.019 -122.423 71.331 -116.256"/></g><g id="node4" class="node"><title>Node4</title><g id="a_node4"><a target="_top" xlink:href="classarm__compute_1_1graph_1_1_in_place_operation_mutator.xhtml" xlink:title="Mutation pass to optimize operations that can be performed in-place."><polygon fill="#fff" stroke="#000" points="138 -114.5 138 -133.5 273 -133.5 273 -114.5 138 -114.5"/><text x="205.5" y="-121.5" font-family="Helvetica,sans-Serif" font-size="10" text-anchor="middle">InPlaceOperationMutator</text></a></g></g><g id="edge3" class="edge"><title>Node1-&gt;Node4</title><path fill="none" stroke="#191970" d="M96.4706,-111.211C109.661,-112.773 123.993,-114.47 137.777,-116.101"/><polygon fill="#191970" stroke="#191970" points="96.512 -107.692 86.169 -109.992 95.689 -114.643 96.512 -107.692"/></g><g id="node5" class="node"><title>Node5</title><g id="a_node5"><a target="_top" xlink:href="classarm__compute_1_1graph_1_1_node_execution_method_mutator.xhtml" xlink:title="Mutation pass to fall-back to default execution method."><polygon fill="#fff" stroke="#000" points="124.5 -76.5 124.5 -95.5 286.5 -95.5 286.5 -76.5 124.5 -76.5"/><text x="205.5" y="-83.5" font-family="Helvetica,sans-Serif" font-size="10" text-anchor="middle">NodeExecutionMethodMutator</text></a></g></g><g id="edge4" class="edge"><title>Node1-&gt;Node5</title><path fill="none" stroke="#191970" d="M96.1366,-98.8281C105.197,-97.7555 114.804,-96.6182 124.408,-95.4813"/><polygon fill="#191970" stroke="#191970" points="95.689 -95.357 86.169 -100.008 96.512 -102.308 95.689 -95.357"/></g><g id="node6" class="node"><title>Node6</title><g id="a_node6"><a target="_top" xlink:href="classarm__compute_1_1graph_1_1_node_fusion_mutator.xhtml" xlink:title="Mutation pass to fuss nodes."><polygon fill="#fff" stroke="#000" points="150.5 -38.5 150.5 -57.5 260.5 -57.5 260.5 -38.5 150.5 -38.5"/><text x="205.5" y="-45.5" font-family="Helvetica,sans-Serif" font-size="10" text-anchor="middle">NodeFusionMutator</text></a></g></g><g id="edge5" class="edge"><title>Node1-&gt;Node6</title><path fill="none" stroke="#191970" d="M69.9547,-90.5103C84.831,-82.6795 104.059,-73.3432 122,-67 132.393,-63.3254 143.777,-60.1731 154.68,-57.5525"/><polygon fill="#191970" stroke="#191970" points="68.019 -87.577 60.865 -95.392 71.331 -93.744 68.019 -87.577"/></g><g id="node7" class="node"><title>Node7</title><g id="a_node7"><a target="_top" xlink:href="classarm__compute_1_1graph_1_1_split_layer_sub_tensor_mutator.xhtml" xlink:title="Mutation pass to optimize split operations by using sub-tensors."><polygon fill="#fff" stroke="#000" points="130 -.5 130 -19.5 281 -19.5 281 -.5 130 -.5"/><text x="205.5" y="-7.5" font-family="Helvetica,sans-Serif" font-size="10" text-anchor="middle">SplitLayerSubTensorMutator</text></a></g></g><g id="edge6" class="edge"><title>Node1-&gt;Node7</title><path fill="none" stroke="#191970" d="M57.4512,-87.0955C71.5858,-69.5831 95.4278,-43.4952 122,-29 129.097,-25.1288 136.952,-22.044 144.912,-19.5864"/><polygon fill="#191970" stroke="#191970" points="54.387 -85.332 50.982 -95.365 59.9 -89.645 54.387 -85.332"/></g></g></svg>