<svg xmlns="http://www.w3.org/2000/svg" xmlns:xlink="http://www.w3.org/1999/xlink" width="238pt" height="712pt" viewBox="0 0 238 712"><g id="graph0" class="graph" transform="scale(1 1) rotate(0) translate(4 708)"><title>Graphical Class Hierarchy</title><polygon fill="#fff" stroke="none" points="-4 4 -4 -708 234 -708 234 4 -4 4"/><g id="node1" class="node"><title>Node1</title><g id="a_node1"><a target="_top" xlink:href="classarm__compute_1_1graph_1_1frontend_1_1_i_layer.xhtml" xlink:title="ILayer interface."><polygon fill="#fff" stroke="#000" points="0 -342.5 0 -361.5 45 -361.5 45 -342.5 0 -342.5"/><text x="22.5" y="-349.5" font-family="Helvetica,sans-Serif" font-size="10" text-anchor="middle">ILayer</text></a></g></g><g id="node2" class="node"><title>Node2</title><g id="a_node2"><a target="_top" xlink:href="classarm__compute_1_1graph_1_1frontend_1_1_activation_layer.xhtml" xlink:title="Activation Layer."><polygon fill="#fff" stroke="#000" points="110.5 -684.5 110.5 -703.5 200.5 -703.5 200.5 -684.5 110.5 -684.5"/><text x="155.5" y="-691.5" font-family="Helvetica,sans-Serif" font-size="10" text-anchor="middle">ActivationLayer</text></a></g></g><g id="edge1" class="edge"><title>Node1-&gt;Node2</title><path fill="none" stroke="#191970" d="M24.304,-371.885C27.2671,-435.167 39.6496,-630.346 81,-675 88.7013,-683.317 99.523,-688.19 110.5,-690.994"/><polygon fill="#191970" stroke="#191970" points="27.791 -371.506 23.855 -361.67 20.798 -371.814 27.791 -371.506"/></g><g id="node3" class="node"><title>Node3</title><g id="a_node3"><a target="_top" xlink:href="classarm__compute_1_1graph_1_1frontend_1_1_batch_normalization_layer.xhtml" xlink:title="Batchnormalization Layer."><polygon fill="#fff" stroke="#000" points="87 -646.5 87 -665.5 224 -665.5 224 -646.5 87 -646.5"/><text x="155.5" y="-653.5" font-family="Helvetica,sans-Serif" font-size="10" text-anchor="middle">BatchNormalizationLayer</text></a></g></g><g id="edge2" class="edge"><title>Node1-&gt;Node3</title><path fill="none" stroke="#191970" d="M24.814,-371.791C29.0705,-429.899 44.3838,-598.356 81,-637 84.6261,-640.827 88.9134,-643.922 93.5669,-646.42"/><polygon fill="#191970" stroke="#191970" points="28.298 -371.443 24.107 -361.712 21.315 -371.932 28.298 -371.443"/></g><g id="node4" class="node"><title>Node4</title><g id="a_node4"><a target="_top" xlink:href="classarm__compute_1_1graph_1_1frontend_1_1_branch_layer.xhtml" xlink:title="Branch Layer."><polygon fill="#fff" stroke="#000" points="117 -608.5 117 -627.5 194 -627.5 194 -608.5 117 -608.5"/><text x="155.5" y="-615.5" font-family="Helvetica,sans-Serif" font-size="10" text-anchor="middle">BranchLayer</text></a></g></g><g id="edge3" class="edge"><title>Node1-&gt;Node4</title><path fill="none" stroke="#191970" d="M25.453,-371.523C31.0895,-423.988 49.0542,-566.27 81,-599 90.39,-608.621 103.966,-613.591 116.901,-616.09"/><polygon fill="#191970" stroke="#191970" points="28.927 -371.088 24.411 -361.504 21.964 -371.812 28.927 -371.088"/></g><g id="node5" class="node"><title>Node5</title><g id="a_node5"><a target="_top" xlink:href="classarm__compute_1_1graph_1_1frontend_1_1_channel_shuffle_layer.xhtml" xlink:title="Channel Shuffle Layer."><polygon fill="#fff" stroke="#000" points="98 -570.5 98 -589.5 213 -589.5 213 -570.5 98 -570.5"/><text x="155.5" y="-577.5" font-family="Helvetica,sans-Serif" font-size="10" text-anchor="middle">ChannelShuffleLayer</text></a></g></g><g id="edge4" class="edge"><title>Node1-&gt;Node5</title><path fill="none" stroke="#191970" d="M22.8384,-371.624C22.575,-412.834 28.0551,-508.87 81,-561 85.7897,-565.716 91.5881,-569.307 97.8032,-572.034"/><polygon fill="#191970" stroke="#191970" points="26.339 -371.601 23.03 -361.536 19.341 -371.468 26.339 -371.601"/></g><g id="node6" class="node"><title>Node6</title><g id="a_node6"><a target="_top" xlink:href="classarm__compute_1_1graph_1_1frontend_1_1_convolution_layer.xhtml" xlink:title="Convolution Layer."><polygon fill="#fff" stroke="#000" points="106 -532.5 106 -551.5 205 -551.5 205 -532.5 106 -532.5"/><text x="155.5" y="-539.5" font-family="Helvetica,sans-Serif" font-size="10" text-anchor="middle">ConvolutionLayer</text></a></g></g><g id="edge5" class="edge"><title>Node1-&gt;Node6</title><path fill="none" stroke="#191970" d="M24.2941,-371.929C26.8247,-407.587 37.3544,-482.365 81,-523 87.9454,-529.466 96.7979,-533.798 105.935,-536.685"/><polygon fill="#191970" stroke="#191970" points="27.782 -371.605 23.722 -361.819 20.793 -372.001 27.782 -371.605"/></g><g id="node7" class="node"><title>Node7</title><g id="a_node7"><a target="_top" xlink:href="classarm__compute_1_1graph_1_1frontend_1_1_deconvolution_layer.xhtml" xlink:title="Deconvolution Layer."><polygon fill="#fff" stroke="#000" points="100 -494.5 100 -513.5 211 -513.5 211 -494.5 100 -494.5"/><text x="155.5" y="-501.5" font-family="Helvetica,sans-Serif" font-size="10" text-anchor="middle">DeconvolutionLayer</text></a></g></g><g id="edge6" class="edge"><title>Node1-&gt;Node7</title><path fill="none" stroke="#191970" d="M26.5086,-371.946C31.9903,-401.182 46.411,-455.399 81,-485 86.5075,-489.713 93.041,-493.278 99.9056,-495.971"/><polygon fill="#191970" stroke="#191970" points="29.9 -371.011 24.772 -361.74 22.999 -372.186 29.9 -371.011"/></g><g id="node8" class="node"><title>Node8</title><g id="a_node8"><a target="_top" xlink:href="classarm__compute_1_1graph_1_1frontend_1_1_depthwise_convolution_layer.xhtml" xlink:title="Depthwise Convolution Layer."><polygon fill="#fff" stroke="#000" points="81 -456.5 81 -475.5 230 -475.5 230 -456.5 81 -456.5"/><text x="155.5" y="-463.5" font-family="Helvetica,sans-Serif" font-size="10" text-anchor="middle">DepthwiseConvolutionLayer</text></a></g></g><g id="edge7" class="edge"><title>Node1-&gt;Node8</title><path fill="none" stroke="#191970" d="M30.0643,-371.269C38.4567,-392.969 55.0816,-427.713 81,-447 86.181,-450.855 92.0715,-453.931 98.21,-456.384"/><polygon fill="#191970" stroke="#191970" points="33.32 -369.98 26.601 -361.788 26.745 -372.382 33.32 -369.98"/></g><g id="node9" class="node"><title>Node9</title><g id="a_node9"><a target="_top" xlink:href="classarm__compute_1_1graph_1_1frontend_1_1_dummy_layer.xhtml" xlink:title="Dummy Layer."><polygon fill="#fff" stroke="#000" points="115 -418.5 115 -437.5 196 -437.5 196 -418.5 115 -418.5"/><text x="155.5" y="-425.5" font-family="Helvetica,sans-Serif" font-size="10" text-anchor="middle">DummyLayer</text></a></g></g><g id="edge8" class="edge"><title>Node1-&gt;Node9</title><path fill="none" stroke="#191970" d="M37.0058,-369.706C47.6326,-382.444 63.5264,-399.065 81,-409 91.3116,-414.863 103.457,-418.952 114.873,-421.789"/><polygon fill="#191970" stroke="#191970" points="39.522 -367.249 30.536 -361.638 34.061 -371.629 39.522 -367.249"/></g><g id="node10" class="node"><title>Node10</title><g id="a_node10"><a target="_top" xlink:href="classarm__compute_1_1graph_1_1frontend_1_1_flatten_layer.xhtml" xlink:title="Flatten Layer."><polygon fill="#fff" stroke="#000" points="117.5 -380.5 117.5 -399.5 193.5 -399.5 193.5 -380.5 117.5 -380.5"/><text x="155.5" y="-387.5" font-family="Helvetica,sans-Serif" font-size="10" text-anchor="middle">FlattenLayer</text></a></g></g><g id="edge9" class="edge"><title>Node1-&gt;Node10</title><path fill="none" stroke="#191970" d="M54.7727,-362.75C63.2481,-365.55 72.4456,-368.484 81,-371 92.7592,-374.459 105.675,-377.912 117.354,-380.907"/><polygon fill="#191970" stroke="#191970" points="55.831 -359.414 45.237 -359.559 53.609 -366.052 55.831 -359.414"/></g><g id="node11" class="node"><title>Node11</title><g id="a_node11"><a target="_top" xlink:href="classarm__compute_1_1graph_1_1frontend_1_1_fully_connected_layer.xhtml" xlink:title="Fully Connected Layer."><polygon fill="#fff" stroke="#000" points="98 -342.5 98 -361.5 213 -361.5 213 -342.5 98 -342.5"/><text x="155.5" y="-349.5" font-family="Helvetica,sans-Serif" font-size="10" text-anchor="middle">FullyConnectedLayer</text></a></g></g><g id="edge10" class="edge"><title>Node1-&gt;Node11</title><path fill="none" stroke="#191970" d="M55.2603,-352C68.0566,-352 83.2164,-352 97.7856,-352"/><polygon fill="#191970" stroke="#191970" points="55.132 -348.5 45.132 -352 55.132 -355.5 55.132 -348.5"/></g><g id="node12" class="node"><title>Node12</title><g id="a_node12"><a target="_top" xlink:href="classarm__compute_1_1graph_1_1frontend_1_1_input_layer.xhtml" xlink:title="Input Layer."><polygon fill="#fff" stroke="#000" points="122 -304.5 122 -323.5 189 -323.5 189 -304.5 122 -304.5"/><text x="155.5" y="-311.5" font-family="Helvetica,sans-Serif" font-size="10" text-anchor="middle">InputLayer</text></a></g></g><g id="edge11" class="edge"><title>Node1-&gt;Node12</title><path fill="none" stroke="#191970" d="M54.7727,-341.25C63.2481,-338.45 72.4456,-335.516 81,-333 94.2765,-329.095 109.027,-325.197 121.809,-321.957"/><polygon fill="#191970" stroke="#191970" points="53.609 -337.948 45.237 -344.441 55.831 -344.586 53.609 -337.948"/></g><g id="node13" class="node"><title>Node13</title><g id="a_node13"><a target="_top" xlink:href="classarm__compute_1_1graph_1_1frontend_1_1_normalization_layer.xhtml" xlink:title="Normalization Layer."><polygon fill="#fff" stroke="#000" points="100.5 -266.5 100.5 -285.5 210.5 -285.5 210.5 -266.5 100.5 -266.5"/><text x="155.5" y="-273.5" font-family="Helvetica,sans-Serif" font-size="10" text-anchor="middle">NormalizationLayer</text></a></g></g><g id="edge12" class="edge"><title>Node1-&gt;Node13</title><path fill="none" stroke="#191970" d="M37.0058,-334.294C47.6326,-321.556 63.5264,-304.935 81,-295 87.7598,-291.156 95.3078,-288.075 102.922,-285.609"/><polygon fill="#191970" stroke="#191970" points="34.061 -332.371 30.536 -342.362 39.522 -336.751 34.061 -332.371"/></g><g id="node14" class="node"><title>Node14</title><g id="a_node14"><a target="_top" xlink:href="classarm__compute_1_1graph_1_1frontend_1_1_output_layer.xhtml" xlink:title="Output Layer."><polygon fill="#fff" stroke="#000" points="117.5 -228.5 117.5 -247.5 193.5 -247.5 193.5 -228.5 117.5 -228.5"/><text x="155.5" y="-235.5" font-family="Helvetica,sans-Serif" font-size="10" text-anchor="middle">OutputLayer</text></a></g></g><g id="edge13" class="edge"><title>Node1-&gt;Node14</title><path fill="none" stroke="#191970" d="M30.0643,-332.731C38.4567,-311.031 55.0816,-276.287 81,-257 91.4678,-249.21 104.831,-244.604 117.286,-241.884"/><polygon fill="#191970" stroke="#191970" points="26.745 -331.618 26.601 -342.212 33.32 -334.02 26.745 -331.618"/></g><g id="node15" class="node"><title>Node15</title><g id="a_node15"><a target="_top" xlink:href="classarm__compute_1_1graph_1_1frontend_1_1_permute_layer.xhtml" xlink:title="Permute Layer."><polygon fill="#fff" stroke="#000" points="113.5 -190.5 113.5 -209.5 197.5 -209.5 197.5 -190.5 113.5 -190.5"/><text x="155.5" y="-197.5" font-family="Helvetica,sans-Serif" font-size="10" text-anchor="middle">PermuteLayer</text></a></g></g><g id="edge14" class="edge"><title>Node1-&gt;Node15</title><path fill="none" stroke="#191970" d="M26.5086,-332.054C31.9903,-302.818 46.411,-248.601 81,-219 90.0122,-211.287 101.772,-206.649 113.234,-203.877"/><polygon fill="#191970" stroke="#191970" points="22.999 -331.814 24.772 -342.26 29.9 -332.989 22.999 -331.814"/></g><g id="node16" class="node"><title>Node16</title><g id="a_node16"><a target="_top" xlink:href="classarm__compute_1_1graph_1_1frontend_1_1_pooling_layer.xhtml" xlink:title="Pooling Layer."><polygon fill="#fff" stroke="#000" points="117 -152.5 117 -171.5 194 -171.5 194 -152.5 117 -152.5"/><text x="155.5" y="-159.5" font-family="Helvetica,sans-Serif" font-size="10" text-anchor="middle">PoolingLayer</text></a></g></g><g id="edge15" class="edge"><title>Node1-&gt;Node16</title><path fill="none" stroke="#191970" d="M24.2941,-332.071C26.8247,-296.413 37.3544,-221.635 81,-181 90.6463,-172.019 103.972,-167.155 116.63,-164.563"/><polygon fill="#191970" stroke="#191970" points="20.793 -331.999 23.722 -342.181 27.782 -332.395 20.793 -331.999"/></g><g id="node17" class="node"><title>Node17</title><g id="a_node17"><a target="_top" xlink:href="classarm__compute_1_1graph_1_1frontend_1_1_reshape_layer.xhtml" xlink:title="Reshape Layer."><polygon fill="#fff" stroke="#000" points="114 -114.5 114 -133.5 197 -133.5 197 -114.5 114 -114.5"/><text x="155.5" y="-121.5" font-family="Helvetica,sans-Serif" font-size="10" text-anchor="middle">ReshapeLayer</text></a></g></g><g id="edge16" class="edge"><title>Node1-&gt;Node17</title><path fill="none" stroke="#191970" d="M22.8384,-332.376C22.575,-291.166 28.0551,-195.13 81,-143 89.7342,-134.4 101.822,-129.541 113.675,-126.84"/><polygon fill="#191970" stroke="#191970" points="19.341 -332.532 23.03 -342.464 26.339 -332.399 19.341 -332.532"/></g><g id="node18" class="node"><title>Node18</title><g id="a_node18"><a target="_top" xlink:href="classarm__compute_1_1graph_1_1frontend_1_1_resize_layer.xhtml" xlink:title="Resize Layer."><polygon fill="#fff" stroke="#000" points="119 -76.5 119 -95.5 192 -95.5 192 -76.5 119 -76.5"/><text x="155.5" y="-83.5" font-family="Helvetica,sans-Serif" font-size="10" text-anchor="middle">ResizeLayer</text></a></g></g><g id="edge17" class="edge"><title>Node1-&gt;Node18</title><path fill="none" stroke="#191970" d="M25.453,-332.477C31.0895,-280.012 49.0542,-137.73 81,-105 90.8503,-94.9079 105.307,-89.9329 118.798,-87.5605"/><polygon fill="#191970" stroke="#191970" points="21.964 -332.188 24.411 -342.496 28.927 -332.912 21.964 -332.188"/></g><g id="node19" class="node"><title>Node19</title><g id="a_node19"><a target="_top" xlink:href="classarm__compute_1_1graph_1_1frontend_1_1_scale_layer.xhtml" xlink:title="Scale Layer."><polygon fill="#fff" stroke="#000" points="121 -38.5 121 -57.5 190 -57.5 190 -38.5 121 -38.5"/><text x="155.5" y="-45.5" font-family="Helvetica,sans-Serif" font-size="10" text-anchor="middle">ScaleLayer</text></a></g></g><g id="edge18" class="edge"><title>Node1-&gt;Node19</title><path fill="none" stroke="#191970" d="M24.814,-332.209C29.0705,-274.101 44.3838,-105.644 81,-67 91.2436,-56.189 106.765,-51.2201 120.908,-49.0423"/><polygon fill="#191970" stroke="#191970" points="21.315 -332.068 24.107 -342.288 28.298 -332.557 21.315 -332.068"/></g><g id="node20" class="node"><title>Node20</title><g id="a_node20"><a target="_top" xlink:href="classarm__compute_1_1graph_1_1frontend_1_1_softmax_layer.xhtml" xlink:title="Softmax Layer."><polygon fill="#fff" stroke="#000" points="114 -.5 114 -19.5 197 -19.5 197 -.5 114 -.5"/><text x="155.5" y="-7.5" font-family="Helvetica,sans-Serif" font-size="10" text-anchor="middle">SoftmaxLayer</text></a></g></g><g id="edge19" class="edge"><title>Node1-&gt;Node20</title><path fill="none" stroke="#191970" d="M24.304,-332.115C27.2671,-268.833 39.6496,-73.6543 81,-29 89.5072,-19.8131 101.822,-14.8281 113.947,-12.1915"/><polygon fill="#191970" stroke="#191970" points="20.798 -332.186 23.855 -342.33 27.791 -332.494 20.798 -332.186"/></g></g></svg>