<svg xmlns="http://www.w3.org/2000/svg" xmlns:xlink="http://www.w3.org/1999/xlink" width="377pt" height="52" viewBox="0 0 377 39"><g id="graph0" class="graph" transform="scale(1 1) rotate(0) translate(4 35)"><title>Graphical Class Hierarchy</title><polygon fill="#fff" stroke="none" points="-4 4 -4 -35 373 -35 373 4 -4 4"/><g id="node1" class="node"><title>Node1</title><g id="a_node1"><a target="_top" xlink:href="structarm__compute_1_1test_1_1validation_1_1compare__base.xhtml" xlink:title="compare_base\&lt; RelativeTolerance\l\&lt; U \&gt; \&gt;"><polygon fill="#fff" stroke="#000" points="0 -.5 0 -30.5 181 -30.5 181 -.5 0 -.5"/><text x="8" y="-18.5" font-family="Helvetica,sans-Serif" font-size="10" text-anchor="start">compare_base&lt; RelativeTolerance</text><text x="90.5" y="-7.5" font-family="Helvetica,sans-Serif" font-size="10" text-anchor="middle">&lt; U &gt; &gt;</text></a></g></g><g id="node2" class="node"><title>Node2</title><g id="a_node2"><a target="_top" xlink:href="structarm__compute_1_1test_1_1validation_1_1compare_3_01_relative_tolerance_3_01_u_01_4_01_4.xhtml" xlink:title="Compare values with a relative tolerance."><polygon fill="#fff" stroke="#000" points="217 -.5 217 -30.5 369 -30.5 369 -.5 217 -.5"/><text x="225" y="-18.5" font-family="Helvetica,sans-Serif" font-size="10" text-anchor="start">compare&lt; RelativeTolerance</text><text x="293" y="-7.5" font-family="Helvetica,sans-Serif" font-size="10" text-anchor="middle">&lt; U &gt; &gt;</text></a></g></g><g id="edge1" class="edge"><title>Node1-&gt;Node2</title><path fill="none" stroke="#191970" d="M191.256,-15.5C199.841,-15.5 208.432,-15.5 216.775,-15.5"/><polygon fill="#191970" stroke="#191970" points="191.194 -12 181.194 -15.5 191.194 -19 191.194 -12"/></g></g></svg>