<svg xmlns="http://www.w3.org/2000/svg" xmlns:xlink="http://www.w3.org/1999/xlink" width="724" height="61pt" viewBox="0 0 543 61"><g id="graph0" class="graph" transform="scale(1 1) rotate(0) translate(4 57)"><title>Graphical Class Hierarchy</title><polygon fill="#fff" stroke="none" points="-4 4 -4 -57 539 -57 539 4 -4 4"/><g id="node1" class="node"><title>Node1</title><g id="a_node1"><a target="_top" xlink:href="structarm__compute_1_1misc_1_1_c_r_t_p.xhtml" xlink:title="CRTP\&lt; StrongType\&lt; unsigned\l int, struct graph_id_t,\l strong_type::Comparable...\l \&gt;, Comparable \&gt;"><polygon fill="#fff" stroke="#000" points="0 -.5 0 -52.5 159 -52.5 159 -.5 0 -.5"/><text x="8" y="-40.5" font-family="Helvetica,sans-Serif" font-size="10" text-anchor="start">CRTP&lt; StrongType&lt; unsigned</text><text x="8" y="-29.5" font-family="Helvetica,sans-Serif" font-size="10" text-anchor="start">int, struct graph_id_t,</text><text x="8" y="-18.5" font-family="Helvetica,sans-Serif" font-size="10" text-anchor="start">strong_type::Comparable...</text><text x="79.5" y="-7.5" font-family="Helvetica,sans-Serif" font-size="10" text-anchor="middle">&gt;, Comparable &gt;</text></a></g></g><g id="node2" class="node"><title>Node2</title><g id="a_node2"><a target="_top" xlink:href="structarm__compute_1_1strong__type_1_1_comparable.xhtml" xlink:title="Comparable\&lt; StrongType\l\&lt; unsigned int, struct\l graph_id_t, strong_type\l::Comparable... \&gt; \&gt;"><polygon fill="#fff" stroke="#000" points="195 -.5 195 -52.5 335 -52.5 335 -.5 195 -.5"/><text x="203" y="-40.5" font-family="Helvetica,sans-Serif" font-size="10" text-anchor="start">Comparable&lt; StrongType</text><text x="203" y="-29.5" font-family="Helvetica,sans-Serif" font-size="10" text-anchor="start">&lt; unsigned int, struct</text><text x="203" y="-18.5" font-family="Helvetica,sans-Serif" font-size="10" text-anchor="start">graph_id_t, strong_type</text><text x="265" y="-7.5" font-family="Helvetica,sans-Serif" font-size="10" text-anchor="middle">::Comparable... &gt; &gt;</text></a></g></g><g id="edge1" class="edge"><title>Node1-&gt;Node2</title><path fill="none" stroke="#191970" d="M169.185,-26.5C177.79,-26.5 186.43,-26.5 194.803,-26.5"/><polygon fill="#191970" stroke="#191970" points="169.119 -23 159.119 -26.5 169.119 -30 169.119 -23"/></g><g id="node3" class="node"><title>Node3</title><g id="a_node3"><a target="_top" xlink:href="classarm__compute_1_1strong__type_1_1_strong_type.xhtml" xlink:title="StrongType\&lt; unsigned\l int, struct graph_id\l_t, strong_type::Comparable \&gt;"><polygon fill="#fff" stroke="#000" points="371 -6 371 -47 535 -47 535 -6 371 -6"/><text x="379" y="-35" font-family="Helvetica,sans-Serif" font-size="10" text-anchor="start">StrongType&lt; unsigned</text><text x="379" y="-24" font-family="Helvetica,sans-Serif" font-size="10" text-anchor="start">int, struct graph_id</text><text x="453" y="-13" font-family="Helvetica,sans-Serif" font-size="10" text-anchor="middle">_t, strong_type::Comparable &gt;</text></a></g></g><g id="edge2" class="edge"><title>Node2-&gt;Node3</title><path fill="none" stroke="#191970" d="M345.404,-26.5C353.797,-26.5 362.342,-26.5 370.756,-26.5"/><polygon fill="#191970" stroke="#191970" points="345.26 -23 335.26 -26.5 345.26 -30 345.26 -23"/></g></g></svg>