<svg xmlns="http://www.w3.org/2000/svg" xmlns:xlink="http://www.w3.org/1999/xlink" width="277pt" height="332pt" viewBox="0 0 277 332"><g id="graph0" class="graph" transform="scale(1 1) rotate(0) translate(4 328)"><title>Graphical Class Hierarchy</title><polygon fill="#fff" stroke="none" points="-4 4 -4 -328 273 -328 273 4 -4 4"/><g id="node1" class="node"><title>Node1</title><g id="a_node1"><a target="_top" xlink:href="classarm__compute_1_1graph_1_1_i_tensor_accessor.xhtml" xlink:title="Tensor accessor interface."><polygon fill="#fff" stroke="#000" points="0 -152.5 0 -171.5 93 -171.5 93 -152.5 0 -152.5"/><text x="46.5" y="-159.5" font-family="Helvetica,sans-Serif" font-size="10" text-anchor="middle">ITensorAccessor</text></a></g></g><g id="node2" class="node"><title>Node2</title><g id="a_node2"><a target="_top" xlink:href="classarm__compute_1_1graph__utils_1_1_dummy_accessor.xhtml" xlink:title="Dummy accessor class."><polygon fill="#fff" stroke="#000" points="150 -304.5 150 -323.5 248 -323.5 248 -304.5 150 -304.5"/><text x="199" y="-311.5" font-family="Helvetica,sans-Serif" font-size="10" text-anchor="middle">DummyAccessor</text></a></g></g><g id="edge1" class="edge"><title>Node1-&gt;Node2</title><path fill="none" stroke="#191970" d="M54.0154,-181.211C64.8795,-210.302 89.4858,-265.28 129,-295 135.156,-299.631 142.378,-303.133 149.788,-305.781"/><polygon fill="#191970" stroke="#191970" points="57.298 -179.995 50.633 -171.759 50.707 -182.354 57.298 -179.995"/></g><g id="node3" class="node"><title>Node3</title><g id="a_node3"><a target="_top" xlink:href="classarm__compute_1_1graph__utils_1_1_image_accessor.xhtml" xlink:title="Image accessor class."><polygon fill="#fff" stroke="#000" points="154 -266.5 154 -285.5 244 -285.5 244 -266.5 154 -266.5"/><text x="199" y="-273.5" font-family="Helvetica,sans-Serif" font-size="10" text-anchor="middle">ImageAccessor</text></a></g></g><g id="edge2" class="edge"><title>Node1-&gt;Node3</title><path fill="none" stroke="#191970" d="M58.3844,-180.313C72.1413,-201.87 97.8285,-237.23 129,-257 136.45,-261.725 145.075,-265.291 153.65,-267.976"/><polygon fill="#191970" stroke="#191970" points="61.321 -178.407 53.082 -171.745 55.368 -182.09 61.321 -178.407"/></g><g id="node4" class="node"><title>Node4</title><g id="a_node4"><a target="_top" xlink:href="classarm__compute_1_1graph__utils_1_1_num_py_accessor.xhtml" xlink:title="NumPy accessor class."><polygon fill="#fff" stroke="#000" points="151.5 -228.5 151.5 -247.5 246.5 -247.5 246.5 -228.5 151.5 -228.5"/><text x="199" y="-235.5" font-family="Helvetica,sans-Serif" font-size="10" text-anchor="middle">NumPyAccessor</text></a></g></g><g id="edge3" class="edge"><title>Node1-&gt;Node4</title><path fill="none" stroke="#191970" d="M66.5397,-178.158C82.3578,-190.855 105.928,-208.152 129,-219 136.983,-222.754 145.846,-225.887 154.486,-228.455"/><polygon fill="#191970" stroke="#191970" points="68.553 -175.283 58.602 -171.647 64.114 -180.695 68.553 -175.283"/></g><g id="node5" class="node"><title>Node5</title><g id="a_node5"><a target="_top" xlink:href="classarm__compute_1_1graph__utils_1_1_num_py_bin_loader.xhtml" xlink:title="Numpy Binary loader class."><polygon fill="#fff" stroke="#000" points="149.5 -190.5 149.5 -209.5 248.5 -209.5 248.5 -190.5 149.5 -190.5"/><text x="199" y="-197.5" font-family="Helvetica,sans-Serif" font-size="10" text-anchor="middle">NumPyBinLoader</text></a></g></g><g id="edge4" class="edge"><title>Node1-&gt;Node5</title><path fill="none" stroke="#191970" d="M95.1847,-174.04C116.21,-179.349 140.567,-185.499 160.296,-190.48"/><polygon fill="#191970" stroke="#191970" points="96.03 -170.644 85.478 -171.589 94.316 -177.431 96.03 -170.644"/></g><g id="node6" class="node"><title>Node6</title><g id="a_node6"><a target="_top" xlink:href="classarm__compute_1_1graph__utils_1_1_p_p_m_writer.xhtml" xlink:title="PPM writer class."><polygon fill="#fff" stroke="#000" points="167 -152.5 167 -171.5 231 -171.5 231 -152.5 167 -152.5"/><text x="199" y="-159.5" font-family="Helvetica,sans-Serif" font-size="10" text-anchor="middle">PPMWriter</text></a></g></g><g id="edge5" class="edge"><title>Node1-&gt;Node6</title><path fill="none" stroke="#191970" d="M103.093,-162C124.633,-162 148.484,-162 166.888,-162"/><polygon fill="#191970" stroke="#191970" points="103.063 -158.5 93.063 -162 103.063 -165.5 103.063 -158.5"/></g><g id="node7" class="node"><title>Node7</title><g id="a_node7"><a target="_top" xlink:href="classarm__compute_1_1graph__utils_1_1_random_accessor.xhtml" xlink:title="Random accessor class."><polygon fill="#fff" stroke="#000" points="149 -114.5 149 -133.5 249 -133.5 249 -114.5 149 -114.5"/><text x="199" y="-121.5" font-family="Helvetica,sans-Serif" font-size="10" text-anchor="middle">RandomAccessor</text></a></g></g><g id="edge6" class="edge"><title>Node1-&gt;Node7</title><path fill="none" stroke="#191970" d="M95.1847,-149.96C116.21,-144.651 140.567,-138.501 160.296,-133.52"/><polygon fill="#191970" stroke="#191970" points="94.316 -146.569 85.478 -152.411 96.03 -153.356 94.316 -146.569"/></g><g id="node8" class="node"><title>Node8</title><g id="a_node8"><a target="_top" xlink:href="classarm__compute_1_1graph__utils_1_1_top_n_predictions_accessor.xhtml" xlink:title="Result accessor class."><polygon fill="#fff" stroke="#000" points="131 -76.5 131 -95.5 267 -95.5 267 -76.5 131 -76.5"/><text x="199" y="-83.5" font-family="Helvetica,sans-Serif" font-size="10" text-anchor="middle">TopNPredictionsAccessor</text></a></g></g><g id="edge7" class="edge"><title>Node1-&gt;Node8</title><path fill="none" stroke="#191970" d="M66.5397,-145.842C82.3578,-133.145 105.928,-115.848 129,-105 136.983,-101.246 145.846,-98.1134 154.486,-95.5455"/><polygon fill="#191970" stroke="#191970" points="64.114 -143.305 58.602 -152.353 68.553 -148.717 64.114 -143.305"/></g><g id="node9" class="node"><title>Node9</title><g id="a_node9"><a target="_top" xlink:href="classarm__compute_1_1graph__utils_1_1_validation_input_accessor.xhtml" xlink:title="Input Accessor used for network validation."><polygon fill="#fff" stroke="#000" points="133.5 -38.5 133.5 -57.5 264.5 -57.5 264.5 -38.5 133.5 -38.5"/><text x="199" y="-45.5" font-family="Helvetica,sans-Serif" font-size="10" text-anchor="middle">ValidationInputAccessor</text></a></g></g><g id="edge8" class="edge"><title>Node1-&gt;Node9</title><path fill="none" stroke="#191970" d="M58.3844,-143.687C72.1413,-122.13 97.8285,-86.7704 129,-67 135.086,-63.1402 141.956,-60.0541 148.942,-57.5892"/><polygon fill="#191970" stroke="#191970" points="55.368 -141.91 53.082 -152.255 61.321 -145.593 55.368 -141.91"/></g><g id="node10" class="node"><title>Node10</title><g id="a_node10"><a target="_top" xlink:href="classarm__compute_1_1graph__utils_1_1_validation_output_accessor.xhtml" xlink:title="Output Accessor used for network validation."><polygon fill="#fff" stroke="#000" points="129 -.5 129 -19.5 269 -19.5 269 -.5 129 -.5"/><text x="199" y="-7.5" font-family="Helvetica,sans-Serif" font-size="10" text-anchor="middle">ValidationOutputAccessor</text></a></g></g><g id="edge9" class="edge"><title>Node1-&gt;Node10</title><path fill="none" stroke="#191970" d="M54.0154,-142.789C64.8795,-113.698 89.4858,-58.7201 129,-29 134.164,-25.1163 140.076,-22.0265 146.221,-19.5682"/><polygon fill="#191970" stroke="#191970" points="50.707 -141.646 50.633 -152.241 57.298 -144.005 50.707 -141.646"/></g></g></svg>