<svg xmlns="http://www.w3.org/2000/svg" xmlns:xlink="http://www.w3.org/1999/xlink" width="262pt" height="788pt" viewBox="0 0 262 788"><g id="graph0" class="graph" transform="scale(1 1) rotate(0) translate(4 784)"><title>Graphical Class Hierarchy</title><polygon fill="#fff" stroke="none" points="-4 4 -4 -784 258 -784 258 4 -4 4"/><g id="node1" class="node"><title>Node1</title><g id="a_node1"><a target="_top" xlink:href="classarm__compute_1_1graph_1_1_i_node.xhtml" xlink:title="Node interface."><polygon fill="#fff" stroke="#000" points="0 -380.5 0 -399.5 44 -399.5 44 -380.5 0 -380.5"/><text x="22" y="-387.5" font-family="Helvetica,sans-Serif" font-size="10" text-anchor="middle">INode</text></a></g></g><g id="node2" class="node"><title>Node2</title><g id="a_node2"><a target="_top" xlink:href="classarm__compute_1_1graph_1_1_activation_layer_node.xhtml" xlink:title="Activation Layer node."><polygon fill="#fff" stroke="#000" points="109 -760.5 109 -779.5 225 -779.5 225 -760.5 109 -760.5"/><text x="167" y="-767.5" font-family="Helvetica,sans-Serif" font-size="10" text-anchor="middle">ActivationLayerNode</text></a></g></g><g id="edge1" class="edge"><title>Node1-&gt;Node2</title><path fill="none" stroke="#191970" d="M23.3005,-410.027C24.7459,-478.395 33.04,-701.093 80,-751 87.6491,-759.129 97.9289,-764.167 108.717,-767.216"/><polygon fill="#191970" stroke="#191970" points="26.795 -409.709 23.112 -399.775 19.797 -409.837 26.795 -409.709"/></g><g id="node3" class="node"><title>Node3</title><g id="a_node3"><a target="_top" xlink:href="classarm__compute_1_1graph_1_1_batch_normalization_layer_node.xhtml" xlink:title="Batch Normalization Layer node."><polygon fill="#fff" stroke="#000" points="85.5 -722.5 85.5 -741.5 248.5 -741.5 248.5 -722.5 85.5 -722.5"/><text x="167" y="-729.5" font-family="Helvetica,sans-Serif" font-size="10" text-anchor="middle">BatchNormalizationLayerNode</text></a></g></g><g id="edge2" class="edge"><title>Node1-&gt;Node3</title><path fill="none" stroke="#191970" d="M23.7067,-409.944C26.3701,-473.406 37.907,-669.067 80,-713 83.5967,-716.754 87.7549,-719.846 92.2622,-722.385"/><polygon fill="#191970" stroke="#191970" points="27.194 -409.555 23.307 -399.699 20.2 -409.828 27.194 -409.555"/></g><g id="node4" class="node"><title>Node4</title><g id="a_node4"><a target="_top" xlink:href="classarm__compute_1_1graph_1_1_channel_shuffle_layer_node.xhtml" xlink:title="Channel Shuffle Layer node."><polygon fill="#fff" stroke="#000" points="97 -684.5 97 -703.5 237 -703.5 237 -684.5 97 -684.5"/><text x="167" y="-691.5" font-family="Helvetica,sans-Serif" font-size="10" text-anchor="middle">ChannelShuffleLayerNode</text></a></g></g><g id="edge3" class="edge"><title>Node1-&gt;Node4</title><path fill="none" stroke="#191970" d="M24.2139,-409.85C28.1861,-468.124 42.7478,-636.994 80,-675 84.8164,-679.914 90.5969,-683.687 96.8537,-686.57"/><polygon fill="#191970" stroke="#191970" points="27.698 -409.494 23.557 -399.742 20.713 -409.948 27.698 -409.494"/></g><g id="node5" class="node"><title>Node5</title><g id="a_node5"><a target="_top" xlink:href="classarm__compute_1_1graph_1_1_concatenate_layer_node.xhtml" xlink:title="Concatenation Layer node."><polygon fill="#fff" stroke="#000" points="102 -646.5 102 -665.5 232 -665.5 232 -646.5 102 -646.5"/><text x="167" y="-653.5" font-family="Helvetica,sans-Serif" font-size="10" text-anchor="middle">ConcatenateLayerNode</text></a></g></g><g id="edge4" class="edge"><title>Node1-&gt;Node5</title><path fill="none" stroke="#191970" d="M24.8498,-409.582C30.2186,-462.197 47.5232,-604.826 80,-637 86.083,-643.026 93.62,-647.325 101.684,-650.364"/><polygon fill="#191970" stroke="#191970" points="28.323 -409.142 23.86 -399.533 21.357 -409.828 28.323 -409.142"/></g><g id="node6" class="node"><title>Node6</title><g id="a_node6"><a target="_top" xlink:href="classarm__compute_1_1graph_1_1_const_node.xhtml" xlink:title="Const node."><polygon fill="#fff" stroke="#000" points="132 -608.5 132 -627.5 202 -627.5 202 -608.5 132 -608.5"/><text x="167" y="-615.5" font-family="Helvetica,sans-Serif" font-size="10" text-anchor="middle">ConstNode</text></a></g></g><g id="edge5" class="edge"><title>Node1-&gt;Node6</title><path fill="none" stroke="#191970" d="M22.1419,-409.768C21.4936,-451.255 26.2272,-547.79 80,-599 93.7302,-612.076 114.337,-616.942 131.936,-618.484"/><polygon fill="#191970" stroke="#191970" points="25.645 -409.705 22.431 -399.61 18.648 -409.506 25.645 -409.705"/></g><g id="node7" class="node"><title>Node7</title><g id="a_node7"><a target="_top" xlink:href="classarm__compute_1_1graph_1_1_convolution_layer_node.xhtml" xlink:title="Convolution Layer node."><polygon fill="#fff" stroke="#000" points="104.5 -570.5 104.5 -589.5 229.5 -589.5 229.5 -570.5 104.5 -570.5"/><text x="167" y="-577.5" font-family="Helvetica,sans-Serif" font-size="10" text-anchor="middle">ConvolutionLayerNode</text></a></g></g><g id="edge6" class="edge"><title>Node1-&gt;Node7</title><path fill="none" stroke="#191970" d="M23.5896,-410.079C25.7816,-445.976 35.7309,-521.124 80,-561 86.9302,-567.243 95.4407,-571.589 104.385,-574.588"/><polygon fill="#191970" stroke="#191970" points="27.077 -409.724 23.117 -399.897 20.085 -410.049 27.077 -409.724"/></g><g id="node8" class="node"><title>Node8</title><g id="a_node8"><a target="_top" xlink:href="classarm__compute_1_1graph_1_1_deconvolution_layer_node.xhtml" xlink:title="Deconvolution Layer node."><polygon fill="#fff" stroke="#000" points="98.5 -532.5 98.5 -551.5 235.5 -551.5 235.5 -532.5 98.5 -532.5"/><text x="167" y="-539.5" font-family="Helvetica,sans-Serif" font-size="10" text-anchor="middle">DeconvolutionLayerNode</text></a></g></g><g id="edge7" class="edge"><title>Node1-&gt;Node8</title><path fill="none" stroke="#191970" d="M25.7266,-409.712C30.8667,-439.053 44.8296,-493.874 80,-523 85.4172,-527.486 91.6643,-530.974 98.2682,-533.676"/><polygon fill="#191970" stroke="#191970" points="29.182 -409.152 24.163 -399.821 22.267 -410.245 29.182 -409.152"/></g><g id="node9" class="node"><title>Node9</title><g id="a_node9"><a target="_top" xlink:href="classarm__compute_1_1graph_1_1_depthwise_convolution_layer_node.xhtml" xlink:title="Depthwise Convolution Layer node."><polygon fill="#fff" stroke="#000" points="80 -494.5 80 -513.5 254 -513.5 254 -494.5 80 -494.5"/><text x="167" y="-501.5" font-family="Helvetica,sans-Serif" font-size="10" text-anchor="middle">DepthwiseConvolutionLayerNode</text></a></g></g><g id="edge8" class="edge"><title>Node1-&gt;Node9</title><path fill="none" stroke="#191970" d="M29.2153,-409.097C37.337,-430.926 53.7063,-466.073 80,-485 85.3362,-488.841 91.3062,-491.928 97.5464,-494.406"/><polygon fill="#191970" stroke="#191970" points="32.491 -407.862 25.884 -399.58 25.884 -410.175 32.491 -407.862"/></g><g id="node10" class="node"><title>Node10</title><g id="a_node10"><a target="_top" xlink:href="classarm__compute_1_1graph_1_1_dummy_node.xhtml" xlink:title="Dummy Layer node."><polygon fill="#fff" stroke="#000" points="127 -456.5 127 -475.5 207 -475.5 207 -456.5 127 -456.5"/><text x="167" y="-463.5" font-family="Helvetica,sans-Serif" font-size="10" text-anchor="middle">DummyNode</text></a></g></g><g id="edge9" class="edge"><title>Node1-&gt;Node10</title><path fill="none" stroke="#191970" d="M36.2554,-407.89C46.7219,-420.722 62.4509,-437.381 80,-447 94.2129,-454.791 111.4,-459.387 126.662,-462.099"/><polygon fill="#191970" stroke="#191970" points="38.809 -405.474 29.892 -399.752 33.294 -409.786 38.809 -405.474"/></g><g id="node11" class="node"><title>Node11</title><g id="a_node11"><a target="_top" xlink:href="classarm__compute_1_1graph_1_1_eltwise_layer_node.xhtml" xlink:title="Eltwise Layer node."><polygon fill="#fff" stroke="#000" points="116.5 -418.5 116.5 -437.5 217.5 -437.5 217.5 -418.5 116.5 -418.5"/><text x="167" y="-425.5" font-family="Helvetica,sans-Serif" font-size="10" text-anchor="middle">EltwiseLayerNode</text></a></g></g><g id="edge10" class="edge"><title>Node1-&gt;Node11</title><path fill="none" stroke="#191970" d="M53.7239,-400.893C62.1844,-403.714 71.4004,-406.624 80,-409 92.3802,-412.421 105.895,-415.642 118.467,-418.427"/><polygon fill="#191970" stroke="#191970" points="54.816 -397.568 44.221 -397.66 52.56 -404.195 54.816 -397.568"/></g><g id="node12" class="node"><title>Node12</title><g id="a_node12"><a target="_top" xlink:href="classarm__compute_1_1graph_1_1_flatten_layer_node.xhtml" xlink:title="Flatten Layer node."><polygon fill="#fff" stroke="#000" points="116.5 -380.5 116.5 -399.5 217.5 -399.5 217.5 -380.5 116.5 -380.5"/><text x="167" y="-387.5" font-family="Helvetica,sans-Serif" font-size="10" text-anchor="middle">FlattenLayerNode</text></a></g></g><g id="edge11" class="edge"><title>Node1-&gt;Node12</title><path fill="none" stroke="#191970" d="M54.1474,-390C72.3287,-390 95.6857,-390 116.349,-390"/><polygon fill="#191970" stroke="#191970" points="54.1 -386.5 44.1 -390 54.1 -393.5 54.1 -386.5"/></g><g id="node13" class="node"><title>Node13</title><g id="a_node13"><a target="_top" xlink:href="classarm__compute_1_1graph_1_1_fully_connected_layer_node.xhtml" xlink:title="Fully Connected Layer node."><polygon fill="#fff" stroke="#000" points="97 -342.5 97 -361.5 237 -361.5 237 -342.5 97 -342.5"/><text x="167" y="-349.5" font-family="Helvetica,sans-Serif" font-size="10" text-anchor="middle">FullyConnectedLayerNode</text></a></g></g><g id="edge12" class="edge"><title>Node1-&gt;Node13</title><path fill="none" stroke="#191970" d="M53.7239,-379.107C62.1844,-376.286 71.4004,-373.376 80,-371 92.3802,-367.579 105.895,-364.358 118.467,-361.573"/><polygon fill="#191970" stroke="#191970" points="52.56 -375.805 44.221 -382.34 54.816 -382.432 52.56 -375.805"/></g><g id="node14" class="node"><title>Node14</title><g id="a_node14"><a target="_top" xlink:href="classarm__compute_1_1graph_1_1_input_node.xhtml" xlink:title="Input Layer node."><polygon fill="#fff" stroke="#000" points="134 -304.5 134 -323.5 200 -323.5 200 -304.5 134 -304.5"/><text x="167" y="-311.5" font-family="Helvetica,sans-Serif" font-size="10" text-anchor="middle">InputNode</text></a></g></g><g id="edge13" class="edge"><title>Node1-&gt;Node14</title><path fill="none" stroke="#191970" d="M36.2554,-372.11C46.7219,-359.278 62.4509,-342.619 80,-333 96.4923,-323.96 116.99,-319.221 133.836,-316.736"/><polygon fill="#191970" stroke="#191970" points="33.294 -370.214 29.892 -380.248 38.809 -374.526 33.294 -370.214"/></g><g id="node15" class="node"><title>Node15</title><g id="a_node15"><a target="_top" xlink:href="classarm__compute_1_1graph_1_1_normalization_layer_node.xhtml" xlink:title="Normalization Layer node."><polygon fill="#fff" stroke="#000" points="99.5 -266.5 99.5 -285.5 234.5 -285.5 234.5 -266.5 99.5 -266.5"/><text x="167" y="-273.5" font-family="Helvetica,sans-Serif" font-size="10" text-anchor="middle">NormalizationLayerNode</text></a></g></g><g id="edge14" class="edge"><title>Node1-&gt;Node15</title><path fill="none" stroke="#191970" d="M29.2153,-370.903C37.337,-349.074 53.7063,-313.927 80,-295 85.8326,-290.802 92.4224,-287.504 99.2946,-284.919"/><polygon fill="#191970" stroke="#191970" points="25.884 -369.825 25.884 -380.42 32.491 -372.138 25.884 -369.825"/></g><g id="node16" class="node"><title>Node16</title><g id="a_node16"><a target="_top" xlink:href="classarm__compute_1_1graph_1_1_output_node.xhtml" xlink:title="Output Layer node."><polygon fill="#fff" stroke="#000" points="129.5 -228.5 129.5 -247.5 204.5 -247.5 204.5 -228.5 129.5 -228.5"/><text x="167" y="-235.5" font-family="Helvetica,sans-Serif" font-size="10" text-anchor="middle">OutputNode</text></a></g></g><g id="edge15" class="edge"><title>Node1-&gt;Node16</title><path fill="none" stroke="#191970" d="M25.7266,-370.288C30.8667,-340.947 44.8296,-286.126 80,-257 93.6608,-245.687 112.599,-240.725 129.228,-238.682"/><polygon fill="#191970" stroke="#191970" points="22.267 -369.755 24.163 -380.179 29.182 -370.848 22.267 -369.755"/></g><g id="node17" class="node"><title>Node17</title><g id="a_node17"><a target="_top" xlink:href="classarm__compute_1_1graph_1_1_permute_layer_node.xhtml" xlink:title="Permute Layer node."><polygon fill="#fff" stroke="#000" points="112 -190.5 112 -209.5 222 -209.5 222 -190.5 112 -190.5"/><text x="167" y="-197.5" font-family="Helvetica,sans-Serif" font-size="10" text-anchor="middle">PermuteLayerNode</text></a></g></g><g id="edge16" class="edge"><title>Node1-&gt;Node17</title><path fill="none" stroke="#191970" d="M23.5896,-369.921C25.7816,-334.024 35.7309,-258.876 80,-219 88.8616,-211.018 100.307,-206.136 111.939,-203.206"/><polygon fill="#191970" stroke="#191970" points="20.085 -369.951 23.117 -380.103 27.077 -370.276 20.085 -369.951"/></g><g id="node18" class="node"><title>Node18</title><g id="a_node18"><a target="_top" xlink:href="classarm__compute_1_1graph_1_1_pooling_layer_node.xhtml" xlink:title="Pooling Layer node."><polygon fill="#fff" stroke="#000" points="115.5 -152.5 115.5 -171.5 218.5 -171.5 218.5 -152.5 115.5 -152.5"/><text x="167" y="-159.5" font-family="Helvetica,sans-Serif" font-size="10" text-anchor="middle">PoolingLayerNode</text></a></g></g><g id="edge17" class="edge"><title>Node1-&gt;Node18</title><path fill="none" stroke="#191970" d="M22.1419,-370.232C21.4936,-328.745 26.2272,-232.21 80,-181 89.5225,-171.931 102.353,-166.811 115.193,-164.011"/><polygon fill="#191970" stroke="#191970" points="18.648 -370.494 22.431 -380.39 25.645 -370.295 18.648 -370.494"/></g><g id="node19" class="node"><title>Node19</title><g id="a_node19"><a target="_top" xlink:href="classarm__compute_1_1graph_1_1_reshape_layer_node.xhtml" xlink:title="Reshape Layer node."><polygon fill="#fff" stroke="#000" points="112.5 -114.5 112.5 -133.5 221.5 -133.5 221.5 -114.5 112.5 -114.5"/><text x="167" y="-121.5" font-family="Helvetica,sans-Serif" font-size="10" text-anchor="middle">ReshapeLayerNode</text></a></g></g><g id="edge18" class="edge"><title>Node1-&gt;Node19</title><path fill="none" stroke="#191970" d="M24.8498,-370.418C30.2186,-317.803 47.5232,-175.174 80,-143 88.6901,-134.391 100.347,-129.307 112.269,-126.386"/><polygon fill="#191970" stroke="#191970" points="21.357 -370.172 23.86 -380.467 28.323 -370.858 21.357 -370.172"/></g><g id="node20" class="node"><title>Node20</title><g id="a_node20"><a target="_top" xlink:href="classarm__compute_1_1graph_1_1_resize_layer_node.xhtml" xlink:title="Resize Layer node."><polygon fill="#fff" stroke="#000" points="118 -76.5 118 -95.5 216 -95.5 216 -76.5 118 -76.5"/><text x="167" y="-83.5" font-family="Helvetica,sans-Serif" font-size="10" text-anchor="middle">ResizeLayerNode</text></a></g></g><g id="edge19" class="edge"><title>Node1-&gt;Node20</title><path fill="none" stroke="#191970" d="M24.2139,-370.15C28.1861,-311.876 42.7478,-143.006 80,-105 89.954,-94.8445 104.025,-89.5601 117.909,-86.9479"/><polygon fill="#191970" stroke="#191970" points="20.713 -370.052 23.557 -380.258 27.698 -370.506 20.713 -370.052"/></g><g id="node21" class="node"><title>Node21</title><g id="a_node21"><a target="_top" xlink:href="classarm__compute_1_1graph_1_1_softmax_layer_node.xhtml" xlink:title="Softmax Layer node."><polygon fill="#fff" stroke="#000" points="112.5 -38.5 112.5 -57.5 221.5 -57.5 221.5 -38.5 112.5 -38.5"/><text x="167" y="-45.5" font-family="Helvetica,sans-Serif" font-size="10" text-anchor="middle">SoftmaxLayerNode</text></a></g></g><g id="edge20" class="edge"><title>Node1-&gt;Node21</title><path fill="none" stroke="#191970" d="M23.7067,-370.056C26.3701,-306.594 37.907,-110.933 80,-67 88.5685,-58.057 100.325,-52.871 112.393,-49.96"/><polygon fill="#191970" stroke="#191970" points="20.2 -370.172 23.307 -380.301 27.194 -370.445 20.2 -370.172"/></g><g id="node22" class="node"><title>Node22</title><g id="a_node22"><a target="_top" xlink:href="classarm__compute_1_1graph_1_1_split_layer_node.xhtml" xlink:title="Split Layer node."><polygon fill="#fff" stroke="#000" points="122.5 -.5 122.5 -19.5 211.5 -19.5 211.5 -.5 122.5 -.5"/><text x="167" y="-7.5" font-family="Helvetica,sans-Serif" font-size="10" text-anchor="middle">SplitLayerNode</text></a></g></g><g id="edge21" class="edge"><title>Node1-&gt;Node22</title><path fill="none" stroke="#191970" d="M23.3005,-369.973C24.7459,-301.605 33.04,-78.9074 80,-29 90.7926,-17.53 106.822,-12.214 122.128,-9.95681"/><polygon fill="#191970" stroke="#191970" points="19.797 -370.163 23.112 -380.225 26.795 -370.291 19.797 -370.163"/></g></g></svg>