<svg xmlns="http://www.w3.org/2000/svg" xmlns:xlink="http://www.w3.org/1999/xlink" width="166pt" height="95pt" viewBox="0 0 166 95"><g id="graph0" class="graph" transform="scale(1 1) rotate(0) translate(4 91)"><title>CommonGraphParams</title><polygon fill="#fff" stroke="none" points="-4 4 -4 -91 162 -91 162 4 -4 4"/><g id="node1" class="node"><title>Node1</title><polygon fill="#bfbfbf" stroke="#000" points="15 -.5 15 -19.5 141 -19.5 141 -.5 15 -.5"/><text x="78" y="-7.5" font-family="Helvetica,sans-Serif" font-size="10" text-anchor="middle">CommonGraphParams</text></g><g id="node2" class="node"><title>Node2</title><polygon fill="#fff" stroke="#bfbfbf" points="0 -67.5 0 -86.5 72 -86.5 72 -67.5 0 -67.5"/><text x="36" y="-74.5" font-family="Helvetica,sans-Serif" font-size="10" text-anchor="middle">DataLayout</text></g><g id="edge1" class="edge"><title>Node2-&gt;Node1</title><path fill="none" stroke="#9a32cd" stroke-dasharray="5 2" d="M34.3261,-56.7694C34.5809,-50.4377 35.7827,-43.593 39,-38 43.5169,-30.1479 51.3527,-24.0586 58.8213,-19.667"/><polygon fill="#9a32cd" stroke="#9a32cd" points="30.843 -57.348 34.659 -67.231 37.839 -57.125 30.843 -57.348"/><text x="69" y="-41" font-family="Helvetica,sans-Serif" font-size="10" text-anchor="middle">data_layout</text></g><g id="node3" class="node"><title>Node3</title><polygon fill="#fff" stroke="#bfbfbf" points="90.5 -67.5 90.5 -86.5 151.5 -86.5 151.5 -67.5 90.5 -67.5"/><text x="121" y="-74.5" font-family="Helvetica,sans-Serif" font-size="10" text-anchor="middle">DataType</text></g><g id="edge2" class="edge"><title>Node3-&gt;Node1</title><path fill="none" stroke="#9a32cd" stroke-dasharray="5 2" d="M111.57,-58.5714C107.846,-52.0024 103.407,-44.5412 99,-38 94.7526,-31.6963 89.5026,-24.9463 85.3144,-19.7722"/><polygon fill="#9a32cd" stroke="#9a32cd" points="108.523 -60.294 116.43 -67.346 114.647 -56.902 108.523 -60.294"/><text x="132" y="-41" font-family="Helvetica,sans-Serif" font-size="10" text-anchor="middle">data_type</text></g></g></svg>