<svg xmlns="http://www.w3.org/2000/svg" xmlns:xlink="http://www.w3.org/1999/xlink" width="170pt" height="152pt" viewBox="0 0 170 152"><g id="graph0" class="graph" transform="scale(1 1) rotate(0) translate(4 148)"><title>Comparable&lt; T &gt;</title><polygon fill="#fff" stroke="none" points="-4 4 -4 -148 166 -148 166 4 -4 4"/><g id="node1" class="node"><title>Node1</title><polygon fill="#bfbfbf" stroke="#000" points="14.5 -.5 14.5 -19.5 117.5 -19.5 117.5 -.5 14.5 -.5"/><text x="66" y="-7.5" font-family="Helvetica,sans-Serif" font-size="10" text-anchor="middle">Comparable&lt; T &gt;</text></g><g id="node2" class="node"><title>Node2</title><g id="a_node2"><a target="_top" xlink:href="structarm__compute_1_1misc_1_1_c_r_t_p.xhtml" xlink:title="CRTP\&lt; T, Comparable \&gt;"><polygon fill="#fff" stroke="#000" points="0 -57.5 0 -76.5 132 -76.5 132 -57.5 0 -57.5"/><text x="66" y="-64.5" font-family="Helvetica,sans-Serif" font-size="10" text-anchor="middle">CRTP&lt; T, Comparable &gt;</text></a></g></g><g id="edge1" class="edge"><title>Node2-&gt;Node1</title><path fill="none" stroke="#191970" d="M66,-47.1166C66,-37.8173 66,-27.0557 66,-19.7149"/><polygon fill="#191970" stroke="#191970" points="62.5 -47.406 66 -57.406 69.5 -47.406 62.5 -47.406"/></g><g id="node3" class="node"><title>Node3</title><g id="a_node3"><a target="_top" xlink:href="structarm__compute_1_1misc_1_1_c_r_t_p.xhtml" xlink:title="Curiously recurring template pattern Interface."><polygon fill="#fff" stroke="#000" points="18.5 -124.5 18.5 -143.5 113.5 -143.5 113.5 -124.5 18.5 -124.5"/><text x="66" y="-131.5" font-family="Helvetica,sans-Serif" font-size="10" text-anchor="middle">CRTP&lt; T, Type &gt;</text></a></g></g><g id="edge2" class="edge"><title>Node3-&gt;Node2</title><path fill="none" stroke="orange" stroke-dasharray="5 2" d="M66,-114.037C66,-101.67 66,-86.1198 66,-76.6273"/><polygon fill="orange" stroke="orange" points="62.5 -114.234 66 -124.234 69.5 -114.234 62.5 -114.234"/><text x="114" y="-98" font-family="Helvetica,sans-Serif" font-size="10" text-anchor="middle">&lt; T, Comparable &gt;</text></g></g></svg>